%TF.GenerationSoftware,KiCad,Pcbnew,9.0.5*%
%TF.CreationDate,2025-10-24T01:37:17-04:00*%
%TF.ProjectId,ElectrodeArrayPCB,456c6563-7472-46f6-9465-417272617950,rev?*%
%TF.SameCoordinates,Original*%
%TF.FileFunction,Paste,Top*%
%TF.FilePolarity,Positive*%
%FSLAX46Y46*%
G04 Gerber Fmt 4.6, Leading zero omitted, Abs format (unit mm)*
G04 Created by KiCad (PCBNEW 9.0.5) date 2025-10-24 01:37:17*
%MOMM*%
%LPD*%
G01*
G04 APERTURE LIST*
G04 Aperture macros list*
%AMRoundRect*
0 Rectangle with rounded corners*
0 $1 Rounding radius*
0 $2 $3 $4 $5 $6 $7 $8 $9 X,Y pos of 4 corners*
0 Add a 4 corners polygon primitive as box body*
4,1,4,$2,$3,$4,$5,$6,$7,$8,$9,$2,$3,0*
0 Add four circle primitives for the rounded corners*
1,1,$1+$1,$2,$3*
1,1,$1+$1,$4,$5*
1,1,$1+$1,$6,$7*
1,1,$1+$1,$8,$9*
0 Add four rect primitives between the rounded corners*
20,1,$1+$1,$2,$3,$4,$5,0*
20,1,$1+$1,$4,$5,$6,$7,0*
20,1,$1+$1,$6,$7,$8,$9,0*
20,1,$1+$1,$8,$9,$2,$3,0*%
G04 Aperture macros list end*
%ADD10C,0.001000*%
%ADD11RoundRect,0.140000X-0.170000X0.140000X-0.170000X-0.140000X0.170000X-0.140000X0.170000X0.140000X0*%
%ADD12C,0.250000*%
%ADD13C,0.100000*%
%ADD14C,0.400000*%
%ADD15RoundRect,0.140000X0.170000X-0.140000X0.170000X0.140000X-0.170000X0.140000X-0.170000X-0.140000X0*%
%ADD16RoundRect,0.140000X0.140000X0.170000X-0.140000X0.170000X-0.140000X-0.170000X0.140000X-0.170000X0*%
%ADD17RoundRect,0.100000X-0.637500X-0.100000X0.637500X-0.100000X0.637500X0.100000X-0.637500X0.100000X0*%
%ADD18C,1.730000*%
%ADD19RoundRect,0.220000X0.255000X-0.220000X0.255000X0.220000X-0.255000X0.220000X-0.255000X-0.220000X0*%
%ADD20R,0.850000X1.100000*%
%ADD21R,0.750000X1.100000*%
%ADD22R,1.200000X1.000000*%
%ADD23R,1.550000X1.350000*%
%ADD24R,1.900000X1.350000*%
%ADD25R,1.170000X1.800000*%
%ADD26RoundRect,0.500000X1.000000X-2.000000X1.000000X2.000000X-1.000000X2.000000X-1.000000X-2.000000X0*%
%ADD27R,1.400000X0.500000*%
%ADD28R,1.400000X0.300000*%
%ADD29R,0.280000X0.700000*%
%ADD30RoundRect,0.070000X-0.355000X-0.070000X0.355000X-0.070000X0.355000X0.070000X-0.355000X0.070000X0*%
%ADD31R,0.640000X0.640000*%
%ADD32RoundRect,0.150000X0.150000X-0.825000X0.150000X0.825000X-0.150000X0.825000X-0.150000X-0.825000X0*%
%ADD33RoundRect,0.062500X-0.062500X-0.375000X0.062500X-0.375000X0.062500X0.375000X-0.062500X0.375000X0*%
%ADD34RoundRect,0.062500X-0.375000X-0.062500X0.375000X-0.062500X0.375000X0.062500X-0.375000X0.062500X0*%
%ADD35RoundRect,0.130000X-0.130000X-0.130000X0.130000X-0.130000X0.130000X0.130000X-0.130000X0.130000X0*%
%ADD36RoundRect,0.248889X-0.311111X-0.626111X0.311111X-0.626111X0.311111X0.626111X-0.311111X0.626111X0*%
%ADD37RoundRect,0.200000X-0.275000X0.200000X-0.275000X-0.200000X0.275000X-0.200000X0.275000X0.200000X0*%
%ADD38RoundRect,0.220000X-0.380000X0.220000X-0.380000X-0.220000X0.380000X-0.220000X0.380000X0.220000X0*%
%ADD39RoundRect,0.250000X0.250000X0.475000X-0.250000X0.475000X-0.250000X-0.475000X0.250000X-0.475000X0*%
%ADD40RoundRect,0.250000X0.325000X0.650000X-0.325000X0.650000X-0.325000X-0.650000X0.325000X-0.650000X0*%
%ADD41RoundRect,0.250000X-0.250000X-0.475000X0.250000X-0.475000X0.250000X0.475000X-0.250000X0.475000X0*%
%ADD42RoundRect,0.140000X-0.140000X-0.170000X0.140000X-0.170000X0.140000X0.170000X-0.140000X0.170000X0*%
%ADD43RoundRect,0.140000X0.219203X0.021213X0.021213X0.219203X-0.219203X-0.021213X-0.021213X-0.219203X0*%
%ADD44RoundRect,0.248780X-0.451220X0.261220X-0.451220X-0.261220X0.451220X-0.261220X0.451220X0.261220X0*%
%ADD45RoundRect,0.250000X-0.425000X-0.650000X0.425000X-0.650000X0.425000X0.650000X-0.425000X0.650000X0*%
%ADD46RoundRect,0.150000X-0.385000X-0.150000X0.385000X-0.150000X0.385000X0.150000X-0.385000X0.150000X0*%
%ADD47RoundRect,0.250000X-0.312500X-0.625000X0.312500X-0.625000X0.312500X0.625000X-0.312500X0.625000X0*%
%ADD48RoundRect,0.150000X0.825000X0.150000X-0.825000X0.150000X-0.825000X-0.150000X0.825000X-0.150000X0*%
%ADD49RoundRect,0.250000X-0.325000X-0.650000X0.325000X-0.650000X0.325000X0.650000X-0.325000X0.650000X0*%
%ADD50RoundRect,0.225000X0.250000X-0.225000X0.250000X0.225000X-0.250000X0.225000X-0.250000X-0.225000X0*%
%ADD51R,2.400000X0.740000*%
%ADD52RoundRect,0.075000X-0.725000X-0.075000X0.725000X-0.075000X0.725000X0.075000X-0.725000X0.075000X0*%
%ADD53RoundRect,0.075000X-0.075000X-0.725000X0.075000X-0.725000X0.075000X0.725000X-0.075000X0.725000X0*%
%ADD54RoundRect,0.150000X-0.150000X0.512500X-0.150000X-0.512500X0.150000X-0.512500X0.150000X0.512500X0*%
%ADD55RoundRect,0.250000X-0.450000X-0.350000X0.450000X-0.350000X0.450000X0.350000X-0.450000X0.350000X0*%
%ADD56RoundRect,0.250000X0.650000X-0.325000X0.650000X0.325000X-0.650000X0.325000X-0.650000X-0.325000X0*%
%ADD57RoundRect,0.200000X0.275000X-0.200000X0.275000X0.200000X-0.275000X0.200000X-0.275000X-0.200000X0*%
%ADD58RoundRect,0.150000X-0.512500X-0.150000X0.512500X-0.150000X0.512500X0.150000X-0.512500X0.150000X0*%
%ADD59RoundRect,0.225000X-0.250000X0.225000X-0.250000X-0.225000X0.250000X-0.225000X0.250000X0.225000X0*%
%ADD60RoundRect,0.100000X0.100000X-0.712500X0.100000X0.712500X-0.100000X0.712500X-0.100000X-0.712500X0*%
%ADD61RoundRect,0.100000X-0.850000X-0.100000X0.850000X-0.100000X0.850000X0.100000X-0.850000X0.100000X0*%
%ADD62RoundRect,0.250000X-0.475000X0.250000X-0.475000X-0.250000X0.475000X-0.250000X0.475000X0.250000X0*%
G04 APERTURE END LIST*
D10*
%TO.C,J9*%
X125995000Y-72847700D02*
X125868415Y-72943742D01*
X125643742Y-73168415D01*
X125547700Y-73295000D01*
X123645000Y-73295000D01*
X123645000Y-70940000D01*
X125995000Y-70940000D01*
X125995000Y-72847700D01*
G36*
X125995000Y-72847700D02*
G01*
X125868415Y-72943742D01*
X125643742Y-73168415D01*
X125547700Y-73295000D01*
X123645000Y-73295000D01*
X123645000Y-70940000D01*
X125995000Y-70940000D01*
X125995000Y-72847700D01*
G37*
X130755000Y-73295000D02*
X128852300Y-73295000D01*
X128756258Y-73168415D01*
X128531585Y-72943742D01*
X128405000Y-72847700D01*
X128405000Y-70940000D01*
X130755000Y-70940000D01*
X130755000Y-73295000D01*
G36*
X130755000Y-73295000D02*
G01*
X128852300Y-73295000D01*
X128756258Y-73168415D01*
X128531585Y-72943742D01*
X128405000Y-72847700D01*
X128405000Y-70940000D01*
X130755000Y-70940000D01*
X130755000Y-73295000D01*
G37*
X125643742Y-75831585D02*
X125868415Y-76056258D01*
X125995000Y-76152300D01*
X125995000Y-78060000D01*
X123645000Y-78060000D01*
X123645000Y-75705000D01*
X125547700Y-75705000D01*
X125643742Y-75831585D01*
G36*
X125643742Y-75831585D02*
G01*
X125868415Y-76056258D01*
X125995000Y-76152300D01*
X125995000Y-78060000D01*
X123645000Y-78060000D01*
X123645000Y-75705000D01*
X125547700Y-75705000D01*
X125643742Y-75831585D01*
G37*
X130755000Y-78060000D02*
X128405000Y-78060000D01*
X128405000Y-76152300D01*
X128531585Y-76056258D01*
X128756258Y-75831585D01*
X128852300Y-75705000D01*
X130755000Y-75705000D01*
X130755000Y-78060000D01*
G36*
X130755000Y-78060000D02*
G01*
X128405000Y-78060000D01*
X128405000Y-76152300D01*
X128531585Y-76056258D01*
X128756258Y-75831585D01*
X128852300Y-75705000D01*
X130755000Y-75705000D01*
X130755000Y-78060000D01*
G37*
%TO.C,J8*%
X125743742Y-92631585D02*
X125968415Y-92856258D01*
X126095000Y-92952300D01*
X126095000Y-94855000D01*
X123740000Y-94855000D01*
X123740000Y-92505000D01*
X125647700Y-92505000D01*
X125743742Y-92631585D01*
G36*
X125743742Y-92631585D02*
G01*
X125968415Y-92856258D01*
X126095000Y-92952300D01*
X126095000Y-94855000D01*
X123740000Y-94855000D01*
X123740000Y-92505000D01*
X125647700Y-92505000D01*
X125743742Y-92631585D01*
G37*
X126095000Y-89647700D02*
X125968415Y-89743742D01*
X125743742Y-89968415D01*
X125647700Y-90095000D01*
X123740000Y-90095000D01*
X123740000Y-87745000D01*
X126095000Y-87745000D01*
X126095000Y-89647700D01*
G36*
X126095000Y-89647700D02*
G01*
X125968415Y-89743742D01*
X125743742Y-89968415D01*
X125647700Y-90095000D01*
X123740000Y-90095000D01*
X123740000Y-87745000D01*
X126095000Y-87745000D01*
X126095000Y-89647700D01*
G37*
X130860000Y-94855000D02*
X128505000Y-94855000D01*
X128505000Y-92952300D01*
X128631585Y-92856258D01*
X128856258Y-92631585D01*
X128952300Y-92505000D01*
X130860000Y-92505000D01*
X130860000Y-94855000D01*
G36*
X130860000Y-94855000D02*
G01*
X128505000Y-94855000D01*
X128505000Y-92952300D01*
X128631585Y-92856258D01*
X128856258Y-92631585D01*
X128952300Y-92505000D01*
X130860000Y-92505000D01*
X130860000Y-94855000D01*
G37*
X130860000Y-90095000D02*
X128952300Y-90095000D01*
X128856258Y-89968415D01*
X128631585Y-89743742D01*
X128505000Y-89647700D01*
X128505000Y-87745000D01*
X130860000Y-87745000D01*
X130860000Y-90095000D01*
G36*
X130860000Y-90095000D02*
G01*
X128952300Y-90095000D01*
X128856258Y-89968415D01*
X128631585Y-89743742D01*
X128505000Y-89647700D01*
X128505000Y-87745000D01*
X130860000Y-87745000D01*
X130860000Y-90095000D01*
G37*
%TO.C,J7*%
X160743742Y-91631585D02*
X160968415Y-91856258D01*
X161095000Y-91952300D01*
X161095000Y-93860000D01*
X158745000Y-93860000D01*
X158745000Y-91505000D01*
X160647700Y-91505000D01*
X160743742Y-91631585D01*
G36*
X160743742Y-91631585D02*
G01*
X160968415Y-91856258D01*
X161095000Y-91952300D01*
X161095000Y-93860000D01*
X158745000Y-93860000D01*
X158745000Y-91505000D01*
X160647700Y-91505000D01*
X160743742Y-91631585D01*
G37*
X161095000Y-88647700D02*
X160968415Y-88743742D01*
X160743742Y-88968415D01*
X160647700Y-89095000D01*
X158745000Y-89095000D01*
X158745000Y-86740000D01*
X161095000Y-86740000D01*
X161095000Y-88647700D01*
G36*
X161095000Y-88647700D02*
G01*
X160968415Y-88743742D01*
X160743742Y-88968415D01*
X160647700Y-89095000D01*
X158745000Y-89095000D01*
X158745000Y-86740000D01*
X161095000Y-86740000D01*
X161095000Y-88647700D01*
G37*
X165855000Y-93860000D02*
X163505000Y-93860000D01*
X163505000Y-91952300D01*
X163631585Y-91856258D01*
X163856258Y-91631585D01*
X163952300Y-91505000D01*
X165855000Y-91505000D01*
X165855000Y-93860000D01*
G36*
X165855000Y-93860000D02*
G01*
X163505000Y-93860000D01*
X163505000Y-91952300D01*
X163631585Y-91856258D01*
X163856258Y-91631585D01*
X163952300Y-91505000D01*
X165855000Y-91505000D01*
X165855000Y-93860000D01*
G37*
X165855000Y-89095000D02*
X163952300Y-89095000D01*
X163856258Y-88968415D01*
X163631585Y-88743742D01*
X163505000Y-88647700D01*
X163505000Y-86740000D01*
X165855000Y-86740000D01*
X165855000Y-89095000D01*
G36*
X165855000Y-89095000D02*
G01*
X163952300Y-89095000D01*
X163856258Y-88968415D01*
X163631585Y-88743742D01*
X163505000Y-88647700D01*
X163505000Y-86740000D01*
X165855000Y-86740000D01*
X165855000Y-89095000D01*
G37*
%TO.C,J3*%
X135843742Y-102131585D02*
X136068415Y-102356258D01*
X136195000Y-102452300D01*
X136195000Y-104355000D01*
X133840000Y-104355000D01*
X133840000Y-102005000D01*
X135747700Y-102005000D01*
X135843742Y-102131585D01*
G36*
X135843742Y-102131585D02*
G01*
X136068415Y-102356258D01*
X136195000Y-102452300D01*
X136195000Y-104355000D01*
X133840000Y-104355000D01*
X133840000Y-102005000D01*
X135747700Y-102005000D01*
X135843742Y-102131585D01*
G37*
X136195000Y-99147700D02*
X136068415Y-99243742D01*
X135843742Y-99468415D01*
X135747700Y-99595000D01*
X133840000Y-99595000D01*
X133840000Y-97245000D01*
X136195000Y-97245000D01*
X136195000Y-99147700D01*
G36*
X136195000Y-99147700D02*
G01*
X136068415Y-99243742D01*
X135843742Y-99468415D01*
X135747700Y-99595000D01*
X133840000Y-99595000D01*
X133840000Y-97245000D01*
X136195000Y-97245000D01*
X136195000Y-99147700D01*
G37*
X140960000Y-104355000D02*
X138605000Y-104355000D01*
X138605000Y-102452300D01*
X138731585Y-102356258D01*
X138956258Y-102131585D01*
X139052300Y-102005000D01*
X140960000Y-102005000D01*
X140960000Y-104355000D01*
G36*
X140960000Y-104355000D02*
G01*
X138605000Y-104355000D01*
X138605000Y-102452300D01*
X138731585Y-102356258D01*
X138956258Y-102131585D01*
X139052300Y-102005000D01*
X140960000Y-102005000D01*
X140960000Y-104355000D01*
G37*
X140960000Y-99595000D02*
X139052300Y-99595000D01*
X138956258Y-99468415D01*
X138731585Y-99243742D01*
X138605000Y-99147700D01*
X138605000Y-97245000D01*
X140960000Y-97245000D01*
X140960000Y-99595000D01*
G36*
X140960000Y-99595000D02*
G01*
X139052300Y-99595000D01*
X138956258Y-99468415D01*
X138731585Y-99243742D01*
X138605000Y-99147700D01*
X138605000Y-97245000D01*
X140960000Y-97245000D01*
X140960000Y-99595000D01*
G37*
%TD*%
D11*
%TO.C,C19*%
X137500000Y-72700000D03*
X137500000Y-73700000D03*
%TD*%
%TO.C,R13*%
X154700000Y-70600000D03*
X154700000Y-71600000D03*
%TD*%
D12*
%TO.C,J10*%
X144500000Y-68800000D03*
X144850000Y-68800000D03*
D13*
X145300000Y-68800000D03*
X145500000Y-68800000D03*
D14*
X145900000Y-68800000D03*
X146400000Y-68800000D03*
%TD*%
D15*
%TO.C,R45*%
X149200000Y-73700000D03*
X149200000Y-72700000D03*
%TD*%
D16*
%TO.C,R11*%
X140200000Y-75200000D03*
X139200000Y-75200000D03*
%TD*%
D11*
%TO.C,C25*%
X150300000Y-72700000D03*
X150300000Y-73700000D03*
%TD*%
D17*
%TO.C,U19*%
X141737500Y-70625000D03*
X141737500Y-71275000D03*
X141737500Y-71925000D03*
X141737500Y-72575000D03*
X141737500Y-73225000D03*
X141737500Y-73875000D03*
X141737500Y-74525000D03*
X141737500Y-75175000D03*
X147462500Y-75175000D03*
X147462500Y-74525000D03*
X147462500Y-73875000D03*
X147462500Y-73225000D03*
X147462500Y-72575000D03*
X147462500Y-71925000D03*
X147462500Y-71275000D03*
X147462500Y-70625000D03*
%TD*%
D18*
%TO.C,J9*%
X127200000Y-74500000D03*
%TD*%
D12*
%TO.C,J2*%
X133800000Y-80800000D03*
X133800000Y-80450000D03*
D13*
X133800000Y-80000000D03*
X133800000Y-79800000D03*
D14*
X133800000Y-79400000D03*
X133800000Y-78900000D03*
%TD*%
D15*
%TO.C,R10*%
X137500000Y-75900000D03*
X137500000Y-74900000D03*
%TD*%
D18*
%TO.C,J8*%
X127300000Y-91300000D03*
%TD*%
D19*
%TO.C,D2*%
X174500000Y-76610000D03*
X174500000Y-78190000D03*
%TD*%
D20*
%TO.C,J4*%
X199895000Y-68550000D03*
X200995000Y-68550000D03*
X202095000Y-68550000D03*
X203195000Y-68550000D03*
X204295000Y-68550000D03*
X205395000Y-68550000D03*
X206495000Y-68550000D03*
D21*
X207545000Y-68550000D03*
D22*
X197260000Y-74700000D03*
X197260000Y-78400000D03*
D23*
X197435000Y-68675000D03*
D24*
X200760000Y-79375000D03*
X206730000Y-79375000D03*
D25*
X208755000Y-68900000D03*
%TD*%
D26*
%TO.C,J6*%
X227420000Y-94670000D03*
D27*
X222920000Y-97870000D03*
X222920000Y-97070000D03*
D28*
X222920000Y-96420000D03*
X222920000Y-95420000D03*
X222920000Y-93920000D03*
X222920000Y-92920000D03*
D27*
X222920000Y-91470000D03*
X222920000Y-92270000D03*
D28*
X222920000Y-93420000D03*
X222920000Y-94420000D03*
X222920000Y-94920000D03*
X222920000Y-95920000D03*
%TD*%
D29*
%TO.C,U1*%
X180725000Y-79450000D03*
X180725000Y-76350000D03*
X180225000Y-79450000D03*
X180225000Y-76350000D03*
D30*
X181950000Y-76900000D03*
X181950000Y-77400000D03*
X181950000Y-77900000D03*
X181950000Y-78400000D03*
X181950000Y-78900000D03*
X179000000Y-78900000D03*
X179000000Y-78400000D03*
X179000000Y-77900000D03*
X179000000Y-77400000D03*
X179000000Y-76900000D03*
D31*
X180955000Y-78760000D03*
X180955000Y-77900000D03*
X180955000Y-77040000D03*
X179995000Y-78760000D03*
X179995000Y-77900000D03*
X179995000Y-77040000D03*
%TD*%
D32*
%TO.C,U11*%
X147500000Y-98000000D03*
X148770000Y-98000000D03*
X150040000Y-98000000D03*
X151310000Y-98000000D03*
X151310000Y-102950000D03*
X150040000Y-102950000D03*
X148770000Y-102950000D03*
X147500000Y-102950000D03*
%TD*%
D33*
%TO.C,U14*%
X177587500Y-99312500D03*
X178087500Y-99312500D03*
X178587500Y-99312500D03*
X179087500Y-99312500D03*
D34*
X179775000Y-100000000D03*
X179775000Y-100500000D03*
X179775000Y-101000000D03*
X179775000Y-101500000D03*
D33*
X179087500Y-102187500D03*
X178587500Y-102187500D03*
X178087500Y-102187500D03*
X177587500Y-102187500D03*
D34*
X176900000Y-101500000D03*
X176900000Y-101000000D03*
X176900000Y-100500000D03*
X176900000Y-100000000D03*
D35*
X178662500Y-101075000D03*
X178662500Y-100425000D03*
X178012500Y-101075000D03*
X178012500Y-100425000D03*
%TD*%
D11*
%TO.C,R9*%
X185000000Y-78900000D03*
X185000000Y-79900000D03*
%TD*%
D36*
%TO.C,R8*%
X183840000Y-75600000D03*
X186760000Y-75600000D03*
%TD*%
D16*
%TO.C,R7*%
X175000000Y-75400000D03*
X174000000Y-75400000D03*
%TD*%
D11*
%TO.C,R6*%
X176500000Y-79400000D03*
X176500000Y-80400000D03*
%TD*%
D37*
%TO.C,R5*%
X175000000Y-79580000D03*
X175000000Y-81220000D03*
%TD*%
D11*
%TO.C,R3*%
X172900000Y-79800000D03*
X172900000Y-80800000D03*
%TD*%
D37*
%TO.C,R2*%
X176500000Y-76080000D03*
X176500000Y-77720000D03*
%TD*%
D38*
%TO.C,FB3*%
X159800000Y-70960000D03*
X159800000Y-68840000D03*
%TD*%
D16*
%TO.C,C18*%
X181100000Y-74900000D03*
X182100000Y-74900000D03*
%TD*%
D39*
%TO.C,C17*%
X181150000Y-72900000D03*
X183050000Y-72900000D03*
%TD*%
D40*
%TO.C,C10*%
X180020000Y-70600000D03*
X182980000Y-70600000D03*
%TD*%
D11*
%TO.C,C3*%
X184000000Y-78900000D03*
X184000000Y-79900000D03*
%TD*%
D41*
%TO.C,C2*%
X177550000Y-72900000D03*
X179450000Y-72900000D03*
%TD*%
D42*
%TO.C,C1*%
X178500000Y-74900000D03*
X179500000Y-74900000D03*
%TD*%
%TO.C,R84*%
X211900000Y-99400000D03*
X212900000Y-99400000D03*
%TD*%
D43*
%TO.C,R110*%
X181492894Y-103092894D03*
X182200000Y-103800000D03*
%TD*%
D11*
%TO.C,R19*%
X154600000Y-113200000D03*
X154600000Y-114200000D03*
%TD*%
%TO.C,R83*%
X199000000Y-107700000D03*
X199000000Y-108700000D03*
%TD*%
D44*
%TO.C,R112*%
X197600000Y-85860000D03*
X197600000Y-87680000D03*
%TD*%
D16*
%TO.C,R31*%
X156500000Y-99000000D03*
X155500000Y-99000000D03*
%TD*%
D42*
%TO.C,R41*%
X164700000Y-109600000D03*
X165700000Y-109600000D03*
%TD*%
D45*
%TO.C,S1*%
X214050000Y-81200000D03*
X218200000Y-81200000D03*
%TD*%
D15*
%TO.C,R74*%
X202400000Y-108700000D03*
X202400000Y-107700000D03*
%TD*%
D16*
%TO.C,C73*%
X189041250Y-103870000D03*
X188041250Y-103870000D03*
%TD*%
D11*
%TO.C,R77*%
X203800000Y-114800000D03*
X203800000Y-115800000D03*
%TD*%
D42*
%TO.C,C52*%
X196500000Y-89000000D03*
X195500000Y-89000000D03*
%TD*%
D15*
%TO.C,R71*%
X203285000Y-120480000D03*
X203285000Y-119480000D03*
%TD*%
D11*
%TO.C,C78*%
X144500000Y-98000000D03*
X144500000Y-99000000D03*
%TD*%
D16*
%TO.C,C53*%
X209500000Y-107500000D03*
X208500000Y-107500000D03*
%TD*%
D15*
%TO.C,R65*%
X205000000Y-84200000D03*
X205000000Y-83200000D03*
%TD*%
D11*
%TO.C,C63*%
X207600000Y-107600000D03*
X207600000Y-108600000D03*
%TD*%
D15*
%TO.C,R56*%
X171500000Y-100500000D03*
X171500000Y-99500000D03*
%TD*%
D38*
%TO.C,FB1*%
X177300000Y-68740000D03*
X177300000Y-70860000D03*
%TD*%
D11*
%TO.C,C70*%
X186610000Y-108270000D03*
X186610000Y-109270000D03*
%TD*%
%TO.C,C38*%
X205085000Y-119580000D03*
X205085000Y-120580000D03*
%TD*%
%TO.C,C39*%
X194850000Y-119900000D03*
X194850000Y-120900000D03*
%TD*%
D15*
%TO.C,R68*%
X202400000Y-84200000D03*
X202400000Y-83200000D03*
%TD*%
D46*
%TO.C,U9*%
X153100000Y-117100000D03*
X153100000Y-115200000D03*
X150620000Y-116150000D03*
%TD*%
D16*
%TO.C,R37*%
X168000000Y-103000000D03*
X167000000Y-103000000D03*
%TD*%
D11*
%TO.C,C51*%
X212000000Y-91500000D03*
X212000000Y-92500000D03*
%TD*%
%TO.C,R87*%
X214700000Y-76600000D03*
X214700000Y-77600000D03*
%TD*%
D47*
%TO.C,R17*%
X147675000Y-111600000D03*
X150600000Y-111600000D03*
%TD*%
D42*
%TO.C,R108*%
X153600000Y-108900000D03*
X154600000Y-108900000D03*
%TD*%
D16*
%TO.C,R113*%
X182800000Y-101400000D03*
X181800000Y-101400000D03*
%TD*%
D11*
%TO.C,R96*%
X220400000Y-92700000D03*
X220400000Y-93700000D03*
%TD*%
D48*
%TO.C,U24*%
X210600000Y-118400000D03*
X210600000Y-117130000D03*
X210600000Y-115860000D03*
X210600000Y-114590000D03*
X205650000Y-114590000D03*
X205650000Y-115860000D03*
X205650000Y-117130000D03*
X205650000Y-118400000D03*
%TD*%
D11*
%TO.C,R21*%
X145500000Y-98000000D03*
X145500000Y-99000000D03*
%TD*%
D42*
%TO.C,C68*%
X144600000Y-117600000D03*
X145600000Y-117600000D03*
%TD*%
D15*
%TO.C,R76*%
X204000000Y-108700000D03*
X204000000Y-107700000D03*
%TD*%
%TO.C,R97*%
X175700000Y-100300000D03*
X175700000Y-99300000D03*
%TD*%
D36*
%TO.C,R102*%
X168900000Y-75500000D03*
X165980000Y-75500000D03*
%TD*%
D18*
%TO.C,J7*%
X162300000Y-90300000D03*
%TD*%
D15*
%TO.C,C23*%
X161500000Y-102000000D03*
X161500000Y-101000000D03*
%TD*%
%TO.C,R26*%
X146000000Y-94500000D03*
X146000000Y-93500000D03*
%TD*%
%TO.C,R90*%
X219725000Y-80800000D03*
X219725000Y-79800000D03*
%TD*%
D42*
%TO.C,R38*%
X164700000Y-106600000D03*
X165700000Y-106600000D03*
%TD*%
D16*
%TO.C,C9*%
X153600000Y-113600000D03*
X152600000Y-113600000D03*
%TD*%
D49*
%TO.C,C67*%
X149320000Y-108900000D03*
X152280000Y-108900000D03*
%TD*%
D42*
%TO.C,R33*%
X158500000Y-103500000D03*
X159500000Y-103500000D03*
%TD*%
D50*
%TO.C,C62*%
X214400000Y-93760000D03*
X214400000Y-92200000D03*
%TD*%
D15*
%TO.C,R120*%
X156500000Y-99000000D03*
X156500000Y-98000000D03*
%TD*%
D51*
%TO.C,J1*%
X169500000Y-104730000D03*
X173400000Y-104730000D03*
X169500000Y-106000000D03*
X173400000Y-106000000D03*
X169500000Y-107270000D03*
X173400000Y-107270000D03*
X169500000Y-108540000D03*
X173400000Y-108540000D03*
X169500000Y-109810000D03*
X173400000Y-109810000D03*
%TD*%
D48*
%TO.C,U25*%
X200200000Y-118400000D03*
X200200000Y-117130000D03*
X200200000Y-115860000D03*
X200200000Y-114590000D03*
X195250000Y-114590000D03*
X195250000Y-115860000D03*
X195250000Y-117130000D03*
X195250000Y-118400000D03*
%TD*%
D16*
%TO.C,C56*%
X193200000Y-94800000D03*
X192200000Y-94800000D03*
%TD*%
D15*
%TO.C,C44*%
X186600000Y-96600000D03*
X186600000Y-95600000D03*
%TD*%
D11*
%TO.C,R91*%
X217725000Y-76700000D03*
X217725000Y-77700000D03*
%TD*%
D42*
%TO.C,R61*%
X194100000Y-70200000D03*
X195100000Y-70200000D03*
%TD*%
D49*
%TO.C,C69*%
X143620000Y-119600000D03*
X146580000Y-119600000D03*
%TD*%
D11*
%TO.C,R57*%
X164000000Y-98500000D03*
X164000000Y-99500000D03*
%TD*%
D38*
%TO.C,FB2*%
X192600000Y-108660000D03*
X192600000Y-106540000D03*
%TD*%
D52*
%TO.C,U15*%
X194825000Y-92325000D03*
X194825000Y-92825000D03*
X194825000Y-93325000D03*
X194825000Y-93825000D03*
X194825000Y-94325000D03*
X194825000Y-94825000D03*
X194825000Y-95325000D03*
X194825000Y-95825000D03*
X194825000Y-96325000D03*
X194825000Y-96825000D03*
X194825000Y-97325000D03*
X194825000Y-97825000D03*
X194825000Y-98325000D03*
X194825000Y-98825000D03*
X194825000Y-99325000D03*
X194825000Y-99825000D03*
X194825000Y-100325000D03*
X194825000Y-100825000D03*
X194825000Y-101325000D03*
X194825000Y-101825000D03*
X194825000Y-102325000D03*
X194825000Y-102825000D03*
X194825000Y-103325000D03*
X194825000Y-103825000D03*
X194825000Y-104325000D03*
D53*
X196500000Y-106000000D03*
X197000000Y-106000000D03*
X197500000Y-106000000D03*
X198000000Y-106000000D03*
X198500000Y-106000000D03*
X199000000Y-106000000D03*
X199500000Y-106000000D03*
X200000000Y-106000000D03*
X200500000Y-106000000D03*
X201000000Y-106000000D03*
X201500000Y-106000000D03*
X202000000Y-106000000D03*
X202500000Y-106000000D03*
X203000000Y-106000000D03*
X203500000Y-106000000D03*
X204000000Y-106000000D03*
X204500000Y-106000000D03*
X205000000Y-106000000D03*
X205500000Y-106000000D03*
X206000000Y-106000000D03*
X206500000Y-106000000D03*
X207000000Y-106000000D03*
X207500000Y-106000000D03*
X208000000Y-106000000D03*
X208500000Y-106000000D03*
D52*
X210175000Y-104325000D03*
X210175000Y-103825000D03*
X210175000Y-103325000D03*
X210175000Y-102825000D03*
X210175000Y-102325000D03*
X210175000Y-101825000D03*
X210175000Y-101325000D03*
X210175000Y-100825000D03*
X210175000Y-100325000D03*
X210175000Y-99825000D03*
X210175000Y-99325000D03*
X210175000Y-98825000D03*
X210175000Y-98325000D03*
X210175000Y-97825000D03*
X210175000Y-97325000D03*
X210175000Y-96825000D03*
X210175000Y-96325000D03*
X210175000Y-95825000D03*
X210175000Y-95325000D03*
X210175000Y-94825000D03*
X210175000Y-94325000D03*
X210175000Y-93825000D03*
X210175000Y-93325000D03*
X210175000Y-92825000D03*
X210175000Y-92325000D03*
D53*
X208500000Y-90650000D03*
X208000000Y-90650000D03*
X207500000Y-90650000D03*
X207000000Y-90650000D03*
X206500000Y-90650000D03*
X206000000Y-90650000D03*
X205500000Y-90650000D03*
X205000000Y-90650000D03*
X204500000Y-90650000D03*
X204000000Y-90650000D03*
X203500000Y-90650000D03*
X203000000Y-90650000D03*
X202500000Y-90650000D03*
X202000000Y-90650000D03*
X201500000Y-90650000D03*
X201000000Y-90650000D03*
X200500000Y-90650000D03*
X200000000Y-90650000D03*
X199500000Y-90650000D03*
X199000000Y-90650000D03*
X198500000Y-90650000D03*
X198000000Y-90650000D03*
X197500000Y-90650000D03*
X197000000Y-90650000D03*
X196500000Y-90650000D03*
%TD*%
D16*
%TO.C,R35*%
X165000000Y-99500000D03*
X164000000Y-99500000D03*
%TD*%
%TO.C,R115*%
X163000000Y-99500000D03*
X162000000Y-99500000D03*
%TD*%
D15*
%TO.C,C13*%
X150000000Y-96000000D03*
X150000000Y-95000000D03*
%TD*%
D54*
%TO.C,U17*%
X168300000Y-99400000D03*
X167350000Y-99400000D03*
X166400000Y-99400000D03*
X166400000Y-101675000D03*
X167350000Y-101675000D03*
X168300000Y-101675000D03*
%TD*%
D16*
%TO.C,R93*%
X221750000Y-99250000D03*
X220750000Y-99250000D03*
%TD*%
D11*
%TO.C,R22*%
X142500000Y-98000000D03*
X142500000Y-99000000D03*
%TD*%
D42*
%TO.C,R64*%
X194100000Y-71800000D03*
X195100000Y-71800000D03*
%TD*%
D16*
%TO.C,R117*%
X165000000Y-101000000D03*
X164000000Y-101000000D03*
%TD*%
D55*
%TO.C,X1*%
X188100000Y-95120000D03*
X190300000Y-95120000D03*
X190300000Y-96880000D03*
X188100000Y-96880000D03*
%TD*%
D42*
%TO.C,R59*%
X194100000Y-74200000D03*
X195100000Y-74200000D03*
%TD*%
D11*
%TO.C,R99*%
X175700000Y-101200000D03*
X175700000Y-102200000D03*
%TD*%
D42*
%TO.C,R39*%
X164700000Y-105100000D03*
X165700000Y-105100000D03*
%TD*%
D11*
%TO.C,C36*%
X193200000Y-74300000D03*
X193200000Y-75300000D03*
%TD*%
D15*
%TO.C,C58*%
X192200000Y-97100000D03*
X192200000Y-96100000D03*
%TD*%
D16*
%TO.C,R107*%
X191200000Y-100600000D03*
X190200000Y-100600000D03*
%TD*%
D15*
%TO.C,R69*%
X204050000Y-84300000D03*
X204050000Y-83300000D03*
%TD*%
%TO.C,R70*%
X203200000Y-84200000D03*
X203200000Y-83200000D03*
%TD*%
D11*
%TO.C,C66*%
X192200000Y-101100000D03*
X192200000Y-102100000D03*
%TD*%
D42*
%TO.C,R111*%
X190041250Y-103870000D03*
X191041250Y-103870000D03*
%TD*%
%TO.C,R98*%
X172800000Y-101200000D03*
X173800000Y-101200000D03*
%TD*%
D11*
%TO.C,R92*%
X218725000Y-76800000D03*
X218725000Y-77800000D03*
%TD*%
D42*
%TO.C,R82*%
X211900000Y-100200000D03*
X212900000Y-100200000D03*
%TD*%
D56*
%TO.C,C71*%
X184800000Y-106780000D03*
X184800000Y-103820000D03*
%TD*%
D42*
%TO.C,R42*%
X164700000Y-108100000D03*
X165700000Y-108100000D03*
%TD*%
%TO.C,C64*%
X212100000Y-93400000D03*
X213100000Y-93400000D03*
%TD*%
D18*
%TO.C,J3*%
X137400000Y-100800000D03*
%TD*%
D42*
%TO.C,C45*%
X188700000Y-93800000D03*
X189700000Y-93800000D03*
%TD*%
D15*
%TO.C,C75*%
X174700000Y-100300000D03*
X174700000Y-99300000D03*
%TD*%
D42*
%TO.C,R40*%
X164700000Y-103600000D03*
X165700000Y-103600000D03*
%TD*%
D11*
%TO.C,C57*%
X213000000Y-91500000D03*
X213000000Y-92500000D03*
%TD*%
D42*
%TO.C,R89*%
X218725000Y-79000000D03*
X219725000Y-79000000D03*
%TD*%
D15*
%TO.C,C24*%
X169500000Y-102000000D03*
X169500000Y-101000000D03*
%TD*%
D11*
%TO.C,C37*%
X204285000Y-120480000D03*
X204285000Y-119480000D03*
%TD*%
D56*
%TO.C,C11*%
X152000000Y-95480000D03*
X152000000Y-92520000D03*
%TD*%
D15*
%TO.C,R75*%
X203200000Y-108700000D03*
X203200000Y-107700000D03*
%TD*%
D16*
%TO.C,R32*%
X156500000Y-102000000D03*
X155500000Y-102000000D03*
%TD*%
D42*
%TO.C,R63*%
X194100000Y-72600000D03*
X195100000Y-72600000D03*
%TD*%
%TO.C,R116*%
X155500000Y-100500000D03*
X156500000Y-100500000D03*
%TD*%
D15*
%TO.C,R14*%
X147400000Y-84300000D03*
X147400000Y-83300000D03*
%TD*%
%TO.C,R27*%
X149000000Y-96000000D03*
X149000000Y-95000000D03*
%TD*%
D11*
%TO.C,R72*%
X212400000Y-117500000D03*
X212400000Y-118500000D03*
%TD*%
D57*
%TO.C,R94*%
X221600000Y-93040000D03*
X221600000Y-91400000D03*
%TD*%
D40*
%TO.C,C79*%
X144060000Y-87000000D03*
X141100000Y-87000000D03*
%TD*%
D15*
%TO.C,R58*%
X192400000Y-75300000D03*
X192400000Y-74300000D03*
%TD*%
D11*
%TO.C,R30*%
X161500000Y-102900000D03*
X161500000Y-103900000D03*
%TD*%
D42*
%TO.C,C14*%
X150000000Y-113600000D03*
X151000000Y-113600000D03*
%TD*%
D15*
%TO.C,R67*%
X201600000Y-84200000D03*
X201600000Y-83200000D03*
%TD*%
D16*
%TO.C,R106*%
X191300000Y-101800000D03*
X190300000Y-101800000D03*
%TD*%
%TO.C,C60*%
X193200000Y-105200000D03*
X192200000Y-105200000D03*
%TD*%
%TO.C,C46*%
X220750000Y-100250000D03*
X221750000Y-100250000D03*
%TD*%
D15*
%TO.C,C42*%
X219800000Y-82800000D03*
X219800000Y-81800000D03*
%TD*%
%TO.C,R66*%
X205800000Y-84200000D03*
X205800000Y-83200000D03*
%TD*%
%TO.C,R44*%
X146550000Y-79800000D03*
X146550000Y-78800000D03*
%TD*%
D58*
%TO.C,U10*%
X188072500Y-105120000D03*
X188072500Y-106070000D03*
X188072500Y-107020000D03*
X190347500Y-107020000D03*
X190347500Y-105120000D03*
%TD*%
D42*
%TO.C,R20*%
X142200000Y-100900000D03*
X143200000Y-100900000D03*
%TD*%
D54*
%TO.C,U16*%
X160000000Y-99500000D03*
X159050000Y-99500000D03*
X158100000Y-99500000D03*
X158100000Y-101775000D03*
X159050000Y-101775000D03*
X160000000Y-101775000D03*
%TD*%
D56*
%TO.C,C12*%
X154500000Y-95480000D03*
X154500000Y-92520000D03*
%TD*%
D49*
%TO.C,C77*%
X146040000Y-87000000D03*
X149000000Y-87000000D03*
%TD*%
D15*
%TO.C,C8*%
X146550000Y-77800000D03*
X146550000Y-76800000D03*
%TD*%
D11*
%TO.C,R79*%
X204800000Y-107700000D03*
X204800000Y-108700000D03*
%TD*%
%TO.C,R15*%
X154600000Y-117100000D03*
X154600000Y-118100000D03*
%TD*%
D59*
%TO.C,C61*%
X206600000Y-107800000D03*
X206600000Y-109360000D03*
%TD*%
D16*
%TO.C,C54*%
X197000000Y-107500000D03*
X196000000Y-107500000D03*
%TD*%
D60*
%TO.C,U27*%
X143600000Y-115825000D03*
X144250000Y-115825000D03*
X144900000Y-115825000D03*
X145550000Y-115825000D03*
X145550000Y-111600000D03*
X144900000Y-111600000D03*
X144250000Y-111600000D03*
X143600000Y-111600000D03*
%TD*%
D11*
%TO.C,R34*%
X143500000Y-97000000D03*
X143500000Y-98000000D03*
%TD*%
D42*
%TO.C,C15*%
X145500000Y-89000000D03*
X146500000Y-89000000D03*
%TD*%
D61*
%TO.C,U5*%
X137500000Y-77025000D03*
X137500000Y-77675000D03*
X137500000Y-78325000D03*
X137500000Y-78975000D03*
X137500000Y-79625000D03*
X137500000Y-80275000D03*
X137500000Y-80925000D03*
X137500000Y-81575000D03*
X137500000Y-82225000D03*
X137500000Y-82875000D03*
X137500000Y-83525000D03*
X137500000Y-84175000D03*
X144500000Y-84175000D03*
X144500000Y-83525000D03*
X144500000Y-82875000D03*
X144500000Y-82225000D03*
X144500000Y-81575000D03*
X144500000Y-80925000D03*
X144500000Y-80275000D03*
X144500000Y-79625000D03*
X144500000Y-78975000D03*
X144500000Y-78325000D03*
X144500000Y-77675000D03*
X144500000Y-77025000D03*
%TD*%
D16*
%TO.C,R55*%
X171500000Y-100500000D03*
X170500000Y-100500000D03*
%TD*%
%TO.C,R36*%
X165000000Y-102000000D03*
X164000000Y-102000000D03*
%TD*%
D11*
%TO.C,R16*%
X154600000Y-115100000D03*
X154600000Y-116100000D03*
%TD*%
%TO.C,C40*%
X193850000Y-120900000D03*
X193850000Y-119900000D03*
%TD*%
D40*
%TO.C,C16*%
X155600000Y-111600000D03*
X152640000Y-111600000D03*
%TD*%
D42*
%TO.C,R62*%
X194100000Y-73400000D03*
X195100000Y-73400000D03*
%TD*%
D11*
%TO.C,C41*%
X177700000Y-104700000D03*
X177700000Y-103700000D03*
%TD*%
%TO.C,R86*%
X219725000Y-77900000D03*
X219725000Y-76900000D03*
%TD*%
D16*
%TO.C,R109*%
X184710000Y-108270000D03*
X185710000Y-108270000D03*
%TD*%
D42*
%TO.C,R105*%
X172800000Y-100400000D03*
X173800000Y-100400000D03*
%TD*%
D11*
%TO.C,C72*%
X186610000Y-104970000D03*
X186610000Y-105970000D03*
%TD*%
%TO.C,R12*%
X167200000Y-78800000D03*
X167200000Y-79800000D03*
%TD*%
D15*
%TO.C,R73*%
X201600000Y-108700000D03*
X201600000Y-107700000D03*
%TD*%
D11*
%TO.C,C74*%
X174700000Y-101200000D03*
X174700000Y-102200000D03*
%TD*%
D42*
%TO.C,R81*%
X211900000Y-101000000D03*
X212900000Y-101000000D03*
%TD*%
%TO.C,R78*%
X193450000Y-118400000D03*
X192450000Y-118400000D03*
%TD*%
D62*
%TO.C,C76*%
X179100000Y-104050000D03*
X179100000Y-105950000D03*
%TD*%
D16*
%TO.C,C59*%
X193200000Y-104200000D03*
X192200000Y-104200000D03*
%TD*%
D15*
%TO.C,R88*%
X215725000Y-77600000D03*
X215725000Y-76600000D03*
%TD*%
D37*
%TO.C,R104*%
X221400000Y-97840000D03*
X221400000Y-96200000D03*
%TD*%
D42*
%TO.C,R24*%
X145900000Y-107500000D03*
X146900000Y-107500000D03*
%TD*%
D16*
%TO.C,R43*%
X171500000Y-102000000D03*
X170500000Y-102000000D03*
%TD*%
D42*
%TO.C,R18*%
X142600000Y-117600000D03*
X143600000Y-117600000D03*
%TD*%
D15*
%TO.C,C55*%
X193200000Y-97100000D03*
X193200000Y-96100000D03*
%TD*%
D42*
%TO.C,R60*%
X194100000Y-71000000D03*
X195100000Y-71000000D03*
%TD*%
D16*
%TO.C,R114*%
X182800000Y-100000000D03*
X181800000Y-100000000D03*
%TD*%
%TO.C,R100*%
X191200000Y-99600000D03*
X190200000Y-99600000D03*
%TD*%
D15*
%TO.C,R23*%
X147900000Y-108500000D03*
X147900000Y-107500000D03*
%TD*%
D11*
%TO.C,R85*%
X180600000Y-104400000D03*
X180600000Y-105400000D03*
%TD*%
D58*
%TO.C,U12*%
X143225000Y-90500000D03*
X143225000Y-91450000D03*
X143225000Y-92400000D03*
X145500000Y-92400000D03*
X145500000Y-90500000D03*
%TD*%
D11*
%TO.C,C65*%
X192200000Y-99250000D03*
X192200000Y-100250000D03*
%TD*%
D15*
%TO.C,R95*%
X180300000Y-98200000D03*
X180300000Y-97200000D03*
%TD*%
%TO.C,R80*%
X200200000Y-108700000D03*
X200200000Y-107700000D03*
%TD*%
D16*
%TO.C,C43*%
X190800000Y-98400000D03*
X189800000Y-98400000D03*
%TD*%
D11*
%TO.C,R103*%
X199400000Y-87100000D03*
X199400000Y-88100000D03*
%TD*%
%TO.C,C81*%
X166200000Y-79800000D03*
X166200000Y-78800000D03*
%TD*%
D39*
%TO.C,C4*%
X165250000Y-72800000D03*
X163350000Y-72800000D03*
%TD*%
D16*
%TO.C,C7*%
X164300000Y-74800000D03*
X163300000Y-74800000D03*
%TD*%
D19*
%TO.C,D1*%
X156700000Y-78090000D03*
X156700000Y-76510000D03*
%TD*%
D40*
%TO.C,C80*%
X165180000Y-70500000D03*
X162220000Y-70500000D03*
%TD*%
D11*
%TO.C,R118*%
X155000000Y-79400000D03*
X155000000Y-80400000D03*
%TD*%
D37*
%TO.C,R119*%
X158700000Y-75980000D03*
X158700000Y-77620000D03*
%TD*%
%TO.C,R54*%
X157200000Y-79480000D03*
X157200000Y-81120000D03*
%TD*%
D11*
%TO.C,R25*%
X158700000Y-79300000D03*
X158700000Y-80300000D03*
%TD*%
D42*
%TO.C,R1*%
X156200000Y-75300000D03*
X157200000Y-75300000D03*
%TD*%
%TO.C,C6*%
X160700000Y-74800000D03*
X161700000Y-74800000D03*
%TD*%
D41*
%TO.C,C5*%
X159750000Y-72800000D03*
X161650000Y-72800000D03*
%TD*%
D31*
%TO.C,U28*%
X162195000Y-76940000D03*
X162195000Y-77800000D03*
X162195000Y-78660000D03*
X163155000Y-76940000D03*
X163155000Y-77800000D03*
X163155000Y-78660000D03*
D30*
X161200000Y-76800000D03*
X161200000Y-77300000D03*
X161200000Y-77800000D03*
X161200000Y-78300000D03*
X161200000Y-78800000D03*
X164150000Y-78800000D03*
X164150000Y-78300000D03*
X164150000Y-77800000D03*
X164150000Y-77300000D03*
X164150000Y-76800000D03*
D29*
X162425000Y-76250000D03*
X162425000Y-79350000D03*
X162925000Y-76250000D03*
X162925000Y-79350000D03*
%TD*%
M02*
