%TF.GenerationSoftware,KiCad,Pcbnew,9.0.5*%
%TF.CreationDate,2025-10-24T01:37:17-04:00*%
%TF.ProjectId,ElectrodeArrayPCB,456c6563-7472-46f6-9465-417272617950,rev?*%
%TF.SameCoordinates,Original*%
%TF.FileFunction,Copper,L4,Bot*%
%TF.FilePolarity,Positive*%
%FSLAX46Y46*%
G04 Gerber Fmt 4.6, Leading zero omitted, Abs format (unit mm)*
G04 Created by KiCad (PCBNEW 9.0.5) date 2025-10-24 01:37:17*
%MOMM*%
%LPD*%
G01*
G04 APERTURE LIST*
%TA.AperFunction,ComponentPad*%
%ADD10C,0.250000*%
%TD*%
%TA.AperFunction,ComponentPad*%
%ADD11C,2.000000*%
%TD*%
%TA.AperFunction,ComponentPad*%
%ADD12R,0.850000X0.850000*%
%TD*%
%TA.AperFunction,ComponentPad*%
%ADD13C,0.850000*%
%TD*%
%TA.AperFunction,ComponentPad*%
%ADD14O,2.100000X1.300000*%
%TD*%
%TA.AperFunction,ComponentPad*%
%ADD15O,2.300000X1.300000*%
%TD*%
%TA.AperFunction,ComponentPad*%
%ADD16C,0.500000*%
%TD*%
%TA.AperFunction,ComponentPad*%
%ADD17C,0.600000*%
%TD*%
%TA.AperFunction,SMDPad,CuDef*%
%ADD18R,1.650000X2.400000*%
%TD*%
%TA.AperFunction,HeatsinkPad*%
%ADD19C,0.600000*%
%TD*%
%TA.AperFunction,HeatsinkPad*%
%ADD20R,1.300000X1.300000*%
%TD*%
%TA.AperFunction,ViaPad*%
%ADD21C,0.600000*%
%TD*%
%TA.AperFunction,Conductor*%
%ADD22C,0.200000*%
%TD*%
%TA.AperFunction,Conductor*%
%ADD23C,0.100000*%
%TD*%
G04 APERTURE END LIST*
D10*
%TO.P,J10,1,Pin_1*%
%TO.N,Net-(J10-Pin_1)*%
X143800000Y-68800000D03*
%TO.P,J10,2,Pin_2*%
%TO.N,Net-(J10-Pin_2)*%
X144150000Y-68800000D03*
D11*
%TO.P,J10,9,Pin_9*%
%TO.N,Net-(J10-Pin_9)*%
X135800000Y-68800000D03*
%TO.P,J10,10,Pin_10*%
%TO.N,Net-(J10-Pin_10)*%
X154700000Y-68800000D03*
%TD*%
D10*
%TO.P,J2,1,Pin_1*%
%TO.N,Net-(J2-Pin_1)*%
X133800000Y-81500000D03*
%TO.P,J2,2,Pin_2*%
%TO.N,Net-(J2-Pin_2)*%
X133800000Y-81150000D03*
D11*
%TO.P,J2,9,Pin_9*%
%TO.N,Net-(J2-Pin_9)*%
X133800000Y-89500000D03*
%TO.P,J2,10,Pin_10*%
%TO.N,Net-(J10-Pin_9)*%
X133800000Y-70600000D03*
%TD*%
%TO.P,TP4,1,1*%
%TO.N,GND*%
X179900000Y-93300000D03*
%TD*%
%TO.P,TP3,1,1*%
%TO.N,GND*%
X224300000Y-78900000D03*
%TD*%
%TO.P,TP2,1,1*%
%TO.N,/ldo_3v3*%
X186200000Y-71800000D03*
%TD*%
%TO.P,TP1,1,1*%
%TO.N,/ldo_5v*%
X168100000Y-71700000D03*
%TD*%
D12*
%TO.P,JP3,1,A*%
%TO.N,+3.3V*%
X197400000Y-83400000D03*
D13*
%TO.P,JP3,2,C*%
%TO.N,Net-(JP3-C)*%
X198400000Y-83400000D03*
%TO.P,JP3,3,B*%
%TO.N,GND*%
X199400000Y-83400000D03*
%TD*%
D14*
%TO.P,J6,S1,SHIELD*%
%TO.N,Net-(J6-SHIELD)*%
X227800000Y-90340000D03*
D15*
X223600000Y-90340000D03*
D16*
X228420000Y-92670000D03*
X226420000Y-92670000D03*
X228420000Y-96670000D03*
X226420000Y-96670000D03*
D14*
X227800000Y-99000000D03*
D15*
X223600000Y-99000000D03*
%TD*%
D17*
%TO.P,U1,11,EPAD*%
%TO.N,GND*%
X180955000Y-78760000D03*
X180955000Y-77040000D03*
D18*
X180475000Y-77900000D03*
D17*
X180475000Y-77900000D03*
X179995000Y-78760000D03*
X179995000Y-77040000D03*
%TD*%
D19*
%TO.P,U14,17,EP*%
%TO.N,GND*%
X178687500Y-101100000D03*
X178687500Y-100400000D03*
D20*
X178337500Y-100750000D03*
D19*
X177987500Y-101100000D03*
X177987500Y-100400000D03*
%TD*%
D12*
%TO.P,JP1,1,A*%
%TO.N,Net-(JP1-A)*%
X148300000Y-114300000D03*
D13*
%TO.P,JP1,2,C*%
%TO.N,Net-(JP1-C)*%
X148300000Y-115300000D03*
%TO.P,JP1,3,B*%
%TO.N,Net-(JP1-B)*%
X148300000Y-116300000D03*
%TD*%
D17*
%TO.P,U28,11,EPAD*%
%TO.N,GND*%
X162195000Y-76940000D03*
X162195000Y-78660000D03*
X162675000Y-77800000D03*
D18*
X162675000Y-77800000D03*
D17*
X163155000Y-76940000D03*
X163155000Y-78660000D03*
%TD*%
D21*
%TO.N,/amp_inverting_input*%
X143500000Y-96400000D03*
%TO.N,s2*%
X192733372Y-92830665D03*
%TO.N,s1*%
X192650000Y-91969475D03*
%TO.N,s0*%
X193700000Y-92200000D03*
%TO.N,GND*%
X149118903Y-71891117D03*
X140400000Y-72800000D03*
X137500000Y-72100000D03*
%TO.N,Net-(U19-EN)*%
X148600000Y-72500000D03*
%TO.N,s2*%
X143200000Y-83600000D03*
X149000000Y-71100000D03*
%TO.N,s1*%
X148300000Y-70600000D03*
X138844375Y-83634995D03*
%TO.N,s0*%
X140600000Y-70700000D03*
X138594553Y-82874999D03*
%TO.N,GND*%
X150300000Y-74500000D03*
%TO.N,Net-(U19-EN)*%
X142700000Y-71300000D03*
%TO.N,GND*%
X131900000Y-88900000D03*
X131600000Y-93900000D03*
X129200000Y-78900000D03*
%TO.N,/battery*%
X157600000Y-70900000D03*
X158500000Y-70900000D03*
X178400000Y-68500000D03*
X178400000Y-69300000D03*
X175100000Y-71100000D03*
X176000000Y-71100000D03*
X176000000Y-70300000D03*
X175100000Y-70300000D03*
X175100000Y-69400000D03*
X176000000Y-69400000D03*
X176000000Y-68600000D03*
X175100000Y-68600000D03*
X157600000Y-70000000D03*
X157600000Y-69200000D03*
X158500000Y-70000000D03*
X158500000Y-69200000D03*
X157600000Y-68400000D03*
X161100000Y-69100000D03*
X161100000Y-68400000D03*
X158500000Y-68400000D03*
%TO.N,Net-(C41-Pad1)*%
X181000000Y-97700000D03*
X179700000Y-102700000D03*
%TO.N,/MCU_VDD33*%
X192600000Y-109400000D03*
X202700000Y-120500000D03*
X192400000Y-117900000D03*
X208561747Y-104968497D03*
X197000000Y-108100000D03*
%TO.N,Net-(J4-VDD)*%
X194200000Y-69500000D03*
X203400000Y-69400000D03*
%TO.N,+5V*%
X167800000Y-77000000D03*
X167800000Y-74200000D03*
X168500000Y-73800000D03*
X169300000Y-73800000D03*
X170200000Y-73800000D03*
X170200000Y-74700000D03*
X170200000Y-75600000D03*
X170200000Y-76400000D03*
X170200000Y-77300000D03*
X169400000Y-77300000D03*
X168600000Y-77300000D03*
%TO.N,/MCU_VDD33*%
X191600000Y-75700000D03*
%TO.N,GND*%
X196850000Y-89350000D03*
%TO.N,/MCU_VDD33*%
X198400000Y-87700000D03*
X196900000Y-88200000D03*
X197600000Y-88400000D03*
X196700000Y-87469000D03*
X198300000Y-88400000D03*
X211300000Y-91300000D03*
X213400000Y-87300000D03*
%TO.N,GND*%
X196000000Y-101300000D03*
%TO.N,/MCU_VDD33*%
X196100000Y-94800000D03*
X196100000Y-97100000D03*
X197775756Y-92901000D03*
%TO.N,GND*%
X145900000Y-82900000D03*
X146000000Y-76400000D03*
%TO.N,Net-(JP3-C)*%
X199424265Y-86424265D03*
%TO.N,GND*%
X158700000Y-80800000D03*
X155100000Y-81100000D03*
%TO.N,/ldo_5v*%
X165700000Y-77300000D03*
X157700000Y-81800000D03*
%TO.N,GND*%
X173000000Y-81500000D03*
%TO.N,/ldo_3v3*%
X183500000Y-77400000D03*
X175500000Y-81900000D03*
%TO.N,GND*%
X176500000Y-80900000D03*
X140400000Y-96800000D03*
X196000000Y-75200000D03*
X220400000Y-97800000D03*
X185200000Y-100600000D03*
X183800000Y-99000000D03*
X193200000Y-95610000D03*
X151562718Y-112286409D03*
X167878624Y-100568769D03*
X214000000Y-91400000D03*
X213600000Y-92400000D03*
X175000000Y-106500000D03*
X197200000Y-75600000D03*
X175000000Y-104000000D03*
X175000000Y-105500000D03*
X191600000Y-104600000D03*
X140800000Y-88200000D03*
X205119999Y-69400000D03*
X205000000Y-121200000D03*
X195600000Y-121000000D03*
X219000000Y-83400000D03*
X215200000Y-92200000D03*
X171500000Y-106000000D03*
X171500000Y-105000000D03*
X220600000Y-91600000D03*
X171500000Y-107000000D03*
X205600000Y-120600000D03*
X150000000Y-94520000D03*
X183800000Y-102400000D03*
X150100000Y-116600000D03*
X133500000Y-98000000D03*
X163000000Y-101000000D03*
X171500000Y-108000000D03*
X137400000Y-98000000D03*
X220600000Y-82800000D03*
X189400000Y-102400000D03*
X185410000Y-105070000D03*
X187210000Y-105970000D03*
X174000000Y-103000000D03*
X198000000Y-74800000D03*
X163500000Y-107500000D03*
X220000000Y-99200000D03*
X175000000Y-108000000D03*
X188000000Y-102400000D03*
X186610000Y-110070000D03*
X188000000Y-99000000D03*
X210400000Y-114000000D03*
X213600000Y-93000000D03*
X150000000Y-104500000D03*
X185200000Y-102400000D03*
X133400000Y-103600000D03*
X221600000Y-90400000D03*
X189355622Y-96039237D03*
X155000000Y-100500000D03*
X163500000Y-109500000D03*
X163500000Y-104500000D03*
X185200000Y-99000000D03*
X137400000Y-104700000D03*
X195800000Y-106800000D03*
X145100000Y-107700000D03*
X208200000Y-109000000D03*
X220000000Y-100200000D03*
X170500000Y-99500000D03*
X147000000Y-89500000D03*
X186600000Y-100600000D03*
X163500000Y-105500000D03*
X187200000Y-94400000D03*
X190989000Y-97124592D03*
X194000000Y-75200000D03*
X159000000Y-98500000D03*
X188900000Y-98200000D03*
X213943450Y-82881550D03*
X187178077Y-95943655D03*
X137400000Y-96900000D03*
X184410000Y-105070000D03*
X193200000Y-121000000D03*
X209206765Y-114593235D03*
X214800000Y-91400000D03*
X149825735Y-101674265D03*
X208800000Y-108200000D03*
X142000000Y-91500000D03*
X171500000Y-104000000D03*
X193800000Y-121600000D03*
X191600000Y-95000000D03*
X137400000Y-103800000D03*
X169500000Y-99500000D03*
X204200000Y-121200000D03*
X189400000Y-99000000D03*
X219743450Y-68881550D03*
X186600000Y-99000000D03*
X186210000Y-104070000D03*
X189010000Y-106070000D03*
X151700000Y-111600000D03*
X188000000Y-100600000D03*
X201800000Y-114600000D03*
X167500000Y-98500000D03*
X189139197Y-94455233D03*
X151562718Y-110913591D03*
X194800000Y-121600000D03*
X207400000Y-109511000D03*
X171500000Y-109000000D03*
X183800000Y-100600000D03*
X163500000Y-106500000D03*
X137400000Y-98000000D03*
X163500000Y-108500000D03*
X186600000Y-102400000D03*
X199639502Y-115060000D03*
X145600000Y-117100000D03*
X189400000Y-100600000D03*
X191714265Y-95685735D03*
X137400000Y-98000000D03*
X212543450Y-81281550D03*
X175000000Y-109000000D03*
%TO.N,+5V*%
X148100000Y-83300000D03*
X166500000Y-103100000D03*
X180800000Y-105900000D03*
X161100000Y-103700000D03*
X141900000Y-117500000D03*
X148999000Y-94105372D03*
%TO.N,/MCU_VDD33*%
X217800000Y-78600000D03*
X213800000Y-77800000D03*
%TO.N,Net-(J4-DAT2)*%
X201600000Y-74200000D03*
X195800000Y-74200000D03*
%TO.N,Net-(J4-DAT3{slash}CD)*%
X195800000Y-73400000D03*
X202412000Y-73400000D03*
%TO.N,Net-(J4-DAT0)*%
X195800000Y-71000000D03*
X205000000Y-70800000D03*
%TO.N,Net-(J4-DAT1)*%
X195800000Y-70000000D03*
X206722500Y-70122500D03*
%TO.N,Net-(J4-CMD)*%
X203200000Y-72600000D03*
X195800000Y-72600000D03*
%TO.N,Net-(J4-CLK)*%
X204050000Y-71800000D03*
X195800000Y-71800000D03*
%TO.N,VCM_Guard_2.5V*%
X172500000Y-102000000D03*
X154500000Y-106600000D03*
X163000000Y-102000000D03*
X142800000Y-99600000D03*
X142800000Y-106500000D03*
X154500000Y-102000000D03*
%TO.N,guard_ring*%
X147000000Y-90300003D03*
X135900000Y-101000000D03*
X143500000Y-89500000D03*
%TO.N,/amp_inverting_input*%
X143500000Y-93000000D03*
%TO.N,Net-(U15-PC8)*%
X208600000Y-97600003D03*
X205000000Y-85000000D03*
%TO.N,Net-(U15-PC9)*%
X205800000Y-85000000D03*
X208600000Y-96800000D03*
%TO.N,Net-(U15-PC10)*%
X207600000Y-92000000D03*
X206475735Y-86524265D03*
%TO.N,Net-(U15-PC12)*%
X204000000Y-85000000D03*
X206600000Y-92000000D03*
%TO.N,PD2_SDMMC1_CMD*%
X204400000Y-92200000D03*
X203199997Y-85000000D03*
%TO.N,Net-(U24-SIO3)*%
X202800000Y-116200000D03*
X204000113Y-109386582D03*
%TO.N,Net-(U25-~{CE})*%
X201600000Y-118400000D03*
X204800000Y-109400000D03*
%TO.N,Net-(U25-SCLK)*%
X200200000Y-109819634D03*
X196800000Y-115800000D03*
%TO.N,Net-(U25-SI{slash}SIO0)*%
X212881000Y-101800000D03*
X197800000Y-116400000D03*
%TO.N,Net-(U25-SIO3)*%
X201000000Y-119600000D03*
X213600000Y-99400000D03*
%TO.N,STM32_RSTn*%
X200600000Y-81000000D03*
X216543450Y-78881550D03*
X212900000Y-78800000D03*
X206400000Y-81000000D03*
%TO.N,Net-(U15-PA9)*%
X220400000Y-94400000D03*
X220200000Y-96020000D03*
%TD*%
D22*
%TO.N,guard_ring*%
X141500000Y-100100000D02*
X141500000Y-97300000D01*
X141500000Y-97300000D02*
X141700000Y-97100000D01*
X138700000Y-100100000D02*
X141500000Y-100100000D01*
X135900000Y-100300000D02*
X136800000Y-99400000D01*
X138000000Y-99400000D02*
X138700000Y-100100000D01*
X135900000Y-101000000D02*
X135900000Y-100300000D01*
X136800000Y-99400000D02*
X138000000Y-99400000D01*
X141700000Y-102400000D02*
X141800000Y-102400000D01*
X140800000Y-101500000D02*
X141700000Y-102400000D01*
X138200000Y-102200000D02*
X138900000Y-101500000D01*
X136500000Y-102200000D02*
X138200000Y-102200000D01*
X135900000Y-101600000D02*
X136500000Y-102200000D01*
X135900000Y-101000000D02*
X135900000Y-101600000D01*
X138900000Y-101500000D02*
X140800000Y-101500000D01*
%TO.N,/amp_inverting_input*%
X143500000Y-96400000D02*
X143500000Y-93000000D01*
D23*
%TO.N,s2*%
X192423182Y-92520475D02*
X192733372Y-92830665D01*
X192421768Y-92520475D02*
X192423182Y-92520475D01*
X192099000Y-92197707D02*
X192421768Y-92520475D01*
X186704707Y-86802000D02*
X192099000Y-92196293D01*
X149948644Y-71100000D02*
X153398000Y-74549356D01*
X158850644Y-86802000D02*
X186704707Y-86802000D01*
X149000000Y-71100000D02*
X149948644Y-71100000D01*
X153398000Y-74549356D02*
X153398000Y-81349356D01*
X153398000Y-81349356D02*
X158850644Y-86802000D01*
X192099000Y-92196293D02*
X192099000Y-92197707D01*
%TO.N,s1*%
X192650000Y-91850000D02*
X192650000Y-91969475D01*
X158975322Y-86501000D02*
X187301000Y-86501000D01*
X153699000Y-74424678D02*
X153699000Y-81224678D01*
X149624322Y-70350000D02*
X153699000Y-74424678D01*
X153699000Y-81224678D02*
X158975322Y-86501000D01*
X148550000Y-70350000D02*
X149624322Y-70350000D01*
X148300000Y-70600000D02*
X148550000Y-70350000D01*
X187301000Y-86501000D02*
X192650000Y-91850000D01*
%TO.N,s0*%
X193200000Y-92200000D02*
X193700000Y-92200000D01*
X193200000Y-91600000D02*
X193200000Y-92200000D01*
X154000000Y-81100000D02*
X159100000Y-86200000D01*
X159100000Y-86200000D02*
X187800000Y-86200000D01*
X154000000Y-74300000D02*
X154000000Y-81100000D01*
X149749000Y-70049000D02*
X154000000Y-74300000D01*
X140600000Y-70474322D02*
X141025322Y-70049000D01*
X141025322Y-70049000D02*
X149749000Y-70049000D01*
X187800000Y-86200000D02*
X193200000Y-91600000D01*
X140600000Y-70700000D02*
X140600000Y-70474322D01*
%TO.N,s2*%
X139800000Y-83600000D02*
X143200000Y-83600000D01*
X139437231Y-83237231D02*
X139800000Y-83600000D01*
X139446553Y-83227909D02*
X139437231Y-83237231D01*
X139446553Y-82522089D02*
X139446553Y-83227909D01*
X139301000Y-82376536D02*
X139446553Y-82522089D01*
X140952910Y-71552000D02*
X140599356Y-71552000D01*
X148289990Y-71369222D02*
X147669768Y-70749000D01*
X148730778Y-71369222D02*
X148289990Y-71369222D01*
X149000000Y-71100000D02*
X148730778Y-71369222D01*
X141452000Y-70749000D02*
X141452000Y-71052910D01*
X140599356Y-71552000D02*
X139301000Y-72850356D01*
X147669768Y-70749000D02*
X141452000Y-70749000D01*
X139301000Y-72850356D02*
X139301000Y-82376536D01*
X141452000Y-71052910D02*
X140952910Y-71552000D01*
%TO.N,Net-(U19-EN)*%
X146465510Y-72500000D02*
X148600000Y-72500000D01*
X145015510Y-71050000D02*
X146465510Y-72500000D01*
X142700000Y-71300000D02*
X142950000Y-71050000D01*
X142950000Y-71050000D02*
X145015510Y-71050000D01*
%TO.N,s1*%
X139000000Y-83479370D02*
X138844375Y-83634995D01*
X139000000Y-83248784D02*
X139000000Y-83479370D01*
X139145553Y-82646767D02*
X139145553Y-83103231D01*
X139000000Y-72725678D02*
X139000000Y-82501214D01*
X141151000Y-70471768D02*
X141151000Y-70928232D01*
X139145553Y-83103231D02*
X139000000Y-83248784D01*
X141151000Y-70928232D02*
X140828232Y-71251000D01*
X141089616Y-70410384D02*
X141151000Y-70471768D01*
X140828232Y-71251000D02*
X140474678Y-71251000D01*
X139000000Y-82501214D02*
X139145553Y-82646767D01*
X141100000Y-70400000D02*
X141089616Y-70410384D01*
X148100000Y-70400000D02*
X141100000Y-70400000D01*
X140474678Y-71251000D02*
X139000000Y-72725678D01*
X148300000Y-70600000D02*
X148100000Y-70400000D01*
%TO.N,s0*%
X138594553Y-72705447D02*
X140600000Y-70700000D01*
X138594553Y-82874999D02*
X138594553Y-72705447D01*
D22*
%TO.N,Net-(C41-Pad1)*%
X180900000Y-97800000D02*
X181000000Y-97700000D01*
X180800000Y-101600000D02*
X180900000Y-101600000D01*
X179700000Y-102700000D02*
X180800000Y-101600000D01*
X180900000Y-101600000D02*
X180900000Y-97800000D01*
%TO.N,Net-(J4-VDD)*%
X194300000Y-69400000D02*
X194200000Y-69500000D01*
X203400000Y-69400000D02*
X194300000Y-69400000D01*
%TO.N,/MCU_VDD33*%
X191600000Y-75700000D02*
X191600000Y-82369000D01*
X191600000Y-82369000D02*
X196700000Y-87469000D01*
%TO.N,STM32_RSTn*%
X212981550Y-78881550D02*
X212900000Y-78800000D01*
X216543450Y-78881550D02*
X212981550Y-78881550D01*
%TO.N,/MCU_VDD33*%
X196100000Y-94800000D02*
X196100000Y-97100000D01*
X196100000Y-94576756D02*
X196100000Y-94800000D01*
X197775756Y-92901000D02*
X196100000Y-94576756D01*
%TO.N,Net-(JP3-C)*%
X198400000Y-85400000D02*
X199424265Y-86424265D01*
X198400000Y-83400000D02*
X198400000Y-85400000D01*
%TO.N,/ldo_5v*%
X157700000Y-81800000D02*
X163700000Y-81800000D01*
X165700000Y-79800000D02*
X165700000Y-77300000D01*
X163700000Y-81800000D02*
X165700000Y-79800000D01*
%TO.N,/ldo_3v3*%
X183500000Y-79900000D02*
X183500000Y-77400000D01*
X175500000Y-81900000D02*
X181500000Y-81900000D01*
X181500000Y-81900000D02*
X183500000Y-79900000D01*
%TO.N,/MCU_VDD33*%
X217000000Y-77800000D02*
X217800000Y-78600000D01*
X213800000Y-77800000D02*
X217000000Y-77800000D01*
%TO.N,Net-(J4-DAT2)*%
X195800000Y-74200000D02*
X201600000Y-74200000D01*
%TO.N,Net-(J4-DAT3{slash}CD)*%
X195800000Y-73400000D02*
X202412000Y-73400000D01*
%TO.N,Net-(J4-DAT0)*%
X195800000Y-71000000D02*
X204800000Y-71000000D01*
X204800000Y-71000000D02*
X205000000Y-70800000D01*
%TO.N,Net-(J4-DAT1)*%
X195800000Y-70000000D02*
X206600000Y-70000000D01*
X206600000Y-70000000D02*
X206722500Y-70122500D01*
%TO.N,Net-(J4-CMD)*%
X195800000Y-72600000D02*
X203200000Y-72600000D01*
%TO.N,Net-(J4-CLK)*%
X195800000Y-71800000D02*
X204050000Y-71800000D01*
%TO.N,VCM_Guard_2.5V*%
X163000000Y-102000000D02*
X163500000Y-102500000D01*
X142800000Y-99600000D02*
X142800000Y-106500000D01*
X172000000Y-102500000D02*
X172500000Y-102000000D01*
X163500000Y-102500000D02*
X172000000Y-102500000D01*
X154500000Y-102000000D02*
X163000000Y-102000000D01*
X154500000Y-106600000D02*
X154500000Y-102000000D01*
%TO.N,guard_ring*%
X143500000Y-89500000D02*
X144300003Y-90300003D01*
X144300003Y-90300003D02*
X147000000Y-90300003D01*
%TO.N,Net-(U15-PC8)*%
X205000000Y-94049943D02*
X208550060Y-97600003D01*
X208550060Y-97600003D02*
X208600000Y-97600003D01*
X205000000Y-85000000D02*
X205000000Y-94049943D01*
%TO.N,Net-(U15-PC9)*%
X205401000Y-93601000D02*
X208600000Y-96800000D01*
X205601000Y-85248943D02*
X205401000Y-85448943D01*
X205800000Y-85000000D02*
X205601000Y-85199000D01*
X205401000Y-85448943D02*
X205401000Y-93601000D01*
X205601000Y-85199000D02*
X205601000Y-85248943D01*
%TO.N,Net-(U15-PC10)*%
X206400000Y-90800000D02*
X207600000Y-92000000D01*
X206400000Y-86600000D02*
X206400000Y-90800000D01*
X206475735Y-86524265D02*
X206400000Y-86600000D01*
%TO.N,Net-(U15-PC12)*%
X206401000Y-85248943D02*
X205802000Y-85847943D01*
X204601000Y-84399000D02*
X206048943Y-84399000D01*
X205802000Y-91202000D02*
X206600000Y-92000000D01*
X206048943Y-84399000D02*
X206401000Y-84751057D01*
X204000000Y-85000000D02*
X204601000Y-84399000D01*
X205802000Y-85847943D02*
X205802000Y-91202000D01*
X206401000Y-84751057D02*
X206401000Y-85248943D01*
%TO.N,PD2_SDMMC1_CMD*%
X203199997Y-90999997D02*
X204400000Y-92200000D01*
X203199997Y-85000000D02*
X203199997Y-90999997D01*
%TO.N,Net-(U24-SIO3)*%
X204000113Y-114999887D02*
X204000113Y-109386582D01*
X202800000Y-116200000D02*
X204000113Y-114999887D01*
%TO.N,Net-(U25-~{CE})*%
X204800000Y-115200000D02*
X204800000Y-109400000D01*
X201600000Y-118400000D02*
X204800000Y-115200000D01*
%TO.N,Net-(U25-SCLK)*%
X200200000Y-112400000D02*
X200200000Y-109819634D01*
X196800000Y-115800000D02*
X200200000Y-112400000D01*
%TO.N,Net-(U25-SI{slash}SIO0)*%
X197800000Y-116400000D02*
X199200000Y-117800000D01*
X201351057Y-119001000D02*
X201848943Y-119001000D01*
X201848943Y-119001000D02*
X202201000Y-118648943D01*
X200999000Y-118151057D02*
X200999000Y-118648943D01*
X201633900Y-117799000D02*
X201351057Y-117799000D01*
X202201000Y-118366100D02*
X204167100Y-116400000D01*
X204400000Y-116400000D02*
X212881000Y-107919000D01*
X200999000Y-118648943D02*
X201351057Y-119001000D01*
X202201000Y-118648943D02*
X202201000Y-118366100D01*
X204167100Y-116400000D02*
X204400000Y-116400000D01*
X201351057Y-117799000D02*
X200999000Y-118151057D01*
X199200000Y-117800000D02*
X201632900Y-117800000D01*
X212881000Y-107919000D02*
X212881000Y-101800000D01*
X201632900Y-117800000D02*
X201633900Y-117799000D01*
%TO.N,Net-(U25-SIO3)*%
X201817043Y-119600000D02*
X213600000Y-107817043D01*
X213600000Y-107817043D02*
X213600000Y-99400000D01*
X201000000Y-119600000D02*
X201817043Y-119600000D01*
%TO.N,STM32_RSTn*%
X206400000Y-81000000D02*
X200600000Y-81000000D01*
%TO.N,Net-(U15-PA9)*%
X220400000Y-94400000D02*
X220400000Y-95820000D01*
X220400000Y-95820000D02*
X220200000Y-96020000D01*
%TD*%
%TA.AperFunction,Conductor*%
%TO.N,GND*%
G36*
X134745150Y-67520185D02*
G01*
X134790905Y-67572989D01*
X134800849Y-67642147D01*
X134771824Y-67705703D01*
X134765792Y-67712181D01*
X134655485Y-67822487D01*
X134655485Y-67822488D01*
X134655483Y-67822490D01*
X134603321Y-67894285D01*
X134516657Y-68013566D01*
X134409433Y-68224003D01*
X134336446Y-68448631D01*
X134299500Y-68681902D01*
X134299500Y-68918092D01*
X134312342Y-68999178D01*
X134303386Y-69068472D01*
X134258389Y-69121923D01*
X134191638Y-69142562D01*
X134156201Y-69137208D01*
X134156111Y-69137585D01*
X134151722Y-69136531D01*
X134151546Y-69136505D01*
X134151488Y-69136486D01*
X134151366Y-69136446D01*
X133918097Y-69099500D01*
X133918092Y-69099500D01*
X133681908Y-69099500D01*
X133681903Y-69099500D01*
X133448631Y-69136446D01*
X133224003Y-69209433D01*
X133013566Y-69316657D01*
X132931894Y-69375996D01*
X132822490Y-69455483D01*
X132822488Y-69455485D01*
X132822487Y-69455485D01*
X132655485Y-69622487D01*
X132655485Y-69622488D01*
X132655483Y-69622490D01*
X132636749Y-69648275D01*
X132516657Y-69813566D01*
X132409433Y-70024003D01*
X132336446Y-70248631D01*
X132299500Y-70481902D01*
X132299500Y-70718097D01*
X132336446Y-70951368D01*
X132409433Y-71175996D01*
X132489685Y-71333497D01*
X132516657Y-71386433D01*
X132655483Y-71577510D01*
X132822490Y-71744517D01*
X133013567Y-71883343D01*
X133112991Y-71934002D01*
X133224003Y-71990566D01*
X133224005Y-71990566D01*
X133224008Y-71990568D01*
X133281958Y-72009397D01*
X133448631Y-72063553D01*
X133681903Y-72100500D01*
X133681908Y-72100500D01*
X133918097Y-72100500D01*
X134151368Y-72063553D01*
X134188869Y-72051368D01*
X134375992Y-71990568D01*
X134586433Y-71883343D01*
X134777510Y-71744517D01*
X134944517Y-71577510D01*
X135083343Y-71386433D01*
X135190568Y-71175992D01*
X135263553Y-70951368D01*
X135272918Y-70892238D01*
X135300500Y-70718097D01*
X135300500Y-70481902D01*
X135287658Y-70400823D01*
X135296612Y-70331530D01*
X135341609Y-70278078D01*
X135408360Y-70257438D01*
X135443794Y-70262791D01*
X135443885Y-70262414D01*
X135448280Y-70263468D01*
X135448453Y-70263495D01*
X135448631Y-70263553D01*
X135681903Y-70300500D01*
X135681908Y-70300500D01*
X135918097Y-70300500D01*
X136151368Y-70263553D01*
X136234794Y-70236446D01*
X136375992Y-70190568D01*
X136586433Y-70083343D01*
X136777510Y-69944517D01*
X136944517Y-69777510D01*
X137083343Y-69586433D01*
X137190568Y-69375992D01*
X137263553Y-69151368D01*
X137275260Y-69077455D01*
X137300500Y-68918097D01*
X137300500Y-68681902D01*
X137263553Y-68448631D01*
X137204378Y-68266510D01*
X137190568Y-68224008D01*
X137190566Y-68224005D01*
X137190566Y-68224003D01*
X137087039Y-68020821D01*
X137083343Y-68013567D01*
X136944517Y-67822490D01*
X136834208Y-67712181D01*
X136800723Y-67650858D01*
X136805707Y-67581166D01*
X136847579Y-67525233D01*
X136913043Y-67500816D01*
X136921889Y-67500500D01*
X153578111Y-67500500D01*
X153645150Y-67520185D01*
X153690905Y-67572989D01*
X153700849Y-67642147D01*
X153671824Y-67705703D01*
X153665792Y-67712181D01*
X153555485Y-67822487D01*
X153555485Y-67822488D01*
X153555483Y-67822490D01*
X153503321Y-67894285D01*
X153416657Y-68013566D01*
X153309433Y-68224003D01*
X153236446Y-68448631D01*
X153199500Y-68681902D01*
X153199500Y-68918097D01*
X153236446Y-69151368D01*
X153309433Y-69375996D01*
X153412789Y-69578842D01*
X153416657Y-69586433D01*
X153555483Y-69777510D01*
X153722490Y-69944517D01*
X153913567Y-70083343D01*
X153952525Y-70103193D01*
X154124003Y-70190566D01*
X154124005Y-70190566D01*
X154124008Y-70190568D01*
X154181958Y-70209397D01*
X154348631Y-70263553D01*
X154581903Y-70300500D01*
X154581908Y-70300500D01*
X154818097Y-70300500D01*
X155051368Y-70263553D01*
X155134794Y-70236446D01*
X155275992Y-70190568D01*
X155486433Y-70083343D01*
X155677510Y-69944517D01*
X155844517Y-69777510D01*
X155983343Y-69586433D01*
X156090568Y-69375992D01*
X156163553Y-69151368D01*
X156175260Y-69077455D01*
X156200500Y-68918097D01*
X156200500Y-68681902D01*
X156163553Y-68448631D01*
X156104378Y-68266510D01*
X156090568Y-68224008D01*
X156090566Y-68224005D01*
X156090566Y-68224003D01*
X155987039Y-68020821D01*
X155983343Y-68013567D01*
X155844517Y-67822490D01*
X155734208Y-67712181D01*
X155700723Y-67650858D01*
X155705707Y-67581166D01*
X155747579Y-67525233D01*
X155813043Y-67500816D01*
X155821889Y-67500500D01*
X157096561Y-67500500D01*
X157163600Y-67520185D01*
X157209355Y-67572989D01*
X157219299Y-67642147D01*
X157190274Y-67705703D01*
X157165452Y-67727602D01*
X157089711Y-67778210D01*
X157089707Y-67778213D01*
X156978213Y-67889707D01*
X156978210Y-67889711D01*
X156890609Y-68020814D01*
X156890602Y-68020827D01*
X156830264Y-68166498D01*
X156830261Y-68166510D01*
X156799500Y-68321153D01*
X156799500Y-68478846D01*
X156830261Y-68633489D01*
X156830264Y-68633501D01*
X156879574Y-68752548D01*
X156887043Y-68822018D01*
X156879574Y-68847452D01*
X156830264Y-68966498D01*
X156830261Y-68966510D01*
X156799500Y-69121153D01*
X156799500Y-69278846D01*
X156830261Y-69433489D01*
X156830264Y-69433501D01*
X156879574Y-69552548D01*
X156887043Y-69622018D01*
X156879574Y-69647452D01*
X156830264Y-69766498D01*
X156830261Y-69766510D01*
X156799500Y-69921153D01*
X156799500Y-70078846D01*
X156830261Y-70233489D01*
X156830264Y-70233501D01*
X156890604Y-70379177D01*
X156890605Y-70379179D01*
X156891899Y-70381115D01*
X156892264Y-70382282D01*
X156893476Y-70384549D01*
X156893045Y-70384778D01*
X156912773Y-70447794D01*
X156894285Y-70515173D01*
X156891899Y-70518885D01*
X156890605Y-70520820D01*
X156890604Y-70520822D01*
X156830264Y-70666498D01*
X156830261Y-70666510D01*
X156799500Y-70821153D01*
X156799500Y-70978846D01*
X156830261Y-71133489D01*
X156830264Y-71133501D01*
X156890602Y-71279172D01*
X156890609Y-71279185D01*
X156978210Y-71410288D01*
X156978213Y-71410292D01*
X157089707Y-71521786D01*
X157089711Y-71521789D01*
X157220814Y-71609390D01*
X157220827Y-71609397D01*
X157366498Y-71669735D01*
X157366503Y-71669737D01*
X157521153Y-71700499D01*
X157521156Y-71700500D01*
X157521158Y-71700500D01*
X157678844Y-71700500D01*
X157678845Y-71700499D01*
X157833497Y-71669737D01*
X157979179Y-71609394D01*
X157981110Y-71608103D01*
X157982276Y-71607737D01*
X157984546Y-71606525D01*
X157984776Y-71606955D01*
X158047786Y-71587226D01*
X158115166Y-71605710D01*
X158118850Y-71608077D01*
X158120821Y-71609394D01*
X158120824Y-71609395D01*
X158120827Y-71609397D01*
X158266498Y-71669735D01*
X158266503Y-71669737D01*
X158421153Y-71700499D01*
X158421156Y-71700500D01*
X158421158Y-71700500D01*
X158578844Y-71700500D01*
X158578845Y-71700499D01*
X158733497Y-71669737D01*
X158879179Y-71609394D01*
X158920324Y-71581902D01*
X166599500Y-71581902D01*
X166599500Y-71818097D01*
X166636446Y-72051368D01*
X166709433Y-72275996D01*
X166783719Y-72421789D01*
X166816657Y-72486433D01*
X166955483Y-72677510D01*
X167122490Y-72844517D01*
X167313567Y-72983343D01*
X167524008Y-73090568D01*
X167669764Y-73137927D01*
X167736687Y-73159672D01*
X167794363Y-73199110D01*
X167821561Y-73263468D01*
X167809646Y-73332315D01*
X167762402Y-73383790D01*
X167722561Y-73399220D01*
X167566508Y-73430261D01*
X167566498Y-73430264D01*
X167420827Y-73490602D01*
X167420814Y-73490609D01*
X167289711Y-73578210D01*
X167289707Y-73578213D01*
X167178213Y-73689707D01*
X167178210Y-73689711D01*
X167090609Y-73820814D01*
X167090602Y-73820827D01*
X167030264Y-73966498D01*
X167030261Y-73966510D01*
X166999500Y-74121153D01*
X166999500Y-74278846D01*
X167030261Y-74433489D01*
X167030264Y-74433501D01*
X167090602Y-74579172D01*
X167090609Y-74579185D01*
X167178210Y-74710288D01*
X167178213Y-74710292D01*
X167289707Y-74821786D01*
X167289711Y-74821789D01*
X167420814Y-74909390D01*
X167420827Y-74909397D01*
X167566498Y-74969735D01*
X167566503Y-74969737D01*
X167721153Y-75000499D01*
X167721156Y-75000500D01*
X167721158Y-75000500D01*
X167878844Y-75000500D01*
X167878845Y-75000499D01*
X168033497Y-74969737D01*
X168179179Y-74909394D01*
X168310289Y-74821789D01*
X168421789Y-74710289D01*
X168458325Y-74655610D01*
X168511937Y-74610804D01*
X168561427Y-74600500D01*
X168578844Y-74600500D01*
X168578845Y-74600499D01*
X168733497Y-74569737D01*
X168852548Y-74520425D01*
X168922017Y-74512956D01*
X168947453Y-74520425D01*
X169066503Y-74569737D01*
X169181151Y-74592542D01*
X169221153Y-74600499D01*
X169221156Y-74600500D01*
X169275500Y-74600500D01*
X169342539Y-74620185D01*
X169388294Y-74672989D01*
X169399500Y-74724500D01*
X169399500Y-74778846D01*
X169430261Y-74933489D01*
X169430264Y-74933501D01*
X169490604Y-75079177D01*
X169490605Y-75079179D01*
X169491899Y-75081115D01*
X169492264Y-75082282D01*
X169493476Y-75084549D01*
X169493045Y-75084778D01*
X169512773Y-75147794D01*
X169494285Y-75215173D01*
X169491899Y-75218885D01*
X169490605Y-75220820D01*
X169490604Y-75220822D01*
X169430264Y-75366498D01*
X169430261Y-75366510D01*
X169399500Y-75521153D01*
X169399500Y-75678846D01*
X169430261Y-75833489D01*
X169430264Y-75833501D01*
X169479574Y-75952548D01*
X169487043Y-76022018D01*
X169479574Y-76047452D01*
X169430264Y-76166498D01*
X169430261Y-76166510D01*
X169399500Y-76321153D01*
X169399500Y-76382152D01*
X169379815Y-76449191D01*
X169327011Y-76494946D01*
X169299692Y-76503769D01*
X169166508Y-76530261D01*
X169166498Y-76530264D01*
X169047452Y-76579574D01*
X168977982Y-76587043D01*
X168952548Y-76579574D01*
X168833501Y-76530264D01*
X168833489Y-76530261D01*
X168678845Y-76499500D01*
X168678842Y-76499500D01*
X168521158Y-76499500D01*
X168511444Y-76501432D01*
X168441852Y-76495203D01*
X168399574Y-76467495D01*
X168310292Y-76378213D01*
X168310288Y-76378210D01*
X168179185Y-76290609D01*
X168179172Y-76290602D01*
X168033501Y-76230264D01*
X168033489Y-76230261D01*
X167878845Y-76199500D01*
X167878842Y-76199500D01*
X167721158Y-76199500D01*
X167721155Y-76199500D01*
X167566510Y-76230261D01*
X167566498Y-76230264D01*
X167420827Y-76290602D01*
X167420814Y-76290609D01*
X167289711Y-76378210D01*
X167289707Y-76378213D01*
X167178213Y-76489707D01*
X167178210Y-76489711D01*
X167090609Y-76620814D01*
X167090602Y-76620827D01*
X167030264Y-76766498D01*
X167030261Y-76766510D01*
X166999500Y-76921153D01*
X166999500Y-77078846D01*
X167030261Y-77233489D01*
X167030264Y-77233501D01*
X167090602Y-77379172D01*
X167090609Y-77379185D01*
X167178210Y-77510288D01*
X167178213Y-77510292D01*
X167289707Y-77621786D01*
X167289711Y-77621789D01*
X167420814Y-77709390D01*
X167420827Y-77709397D01*
X167518853Y-77750000D01*
X167566503Y-77769737D01*
X167710993Y-77798478D01*
X167721153Y-77800499D01*
X167721156Y-77800500D01*
X167721158Y-77800500D01*
X167878842Y-77800500D01*
X167888548Y-77798569D01*
X167958139Y-77804793D01*
X168000424Y-77832502D01*
X168045473Y-77877551D01*
X168089712Y-77921790D01*
X168220814Y-78009390D01*
X168220827Y-78009397D01*
X168318853Y-78050000D01*
X168366503Y-78069737D01*
X168521153Y-78100499D01*
X168521156Y-78100500D01*
X168521158Y-78100500D01*
X168678844Y-78100500D01*
X168678845Y-78100499D01*
X168833497Y-78069737D01*
X168927273Y-78030894D01*
X168952548Y-78020425D01*
X169022017Y-78012956D01*
X169047452Y-78020425D01*
X169072727Y-78030894D01*
X169166503Y-78069737D01*
X169321153Y-78100499D01*
X169321156Y-78100500D01*
X169321158Y-78100500D01*
X169478844Y-78100500D01*
X169478845Y-78100499D01*
X169633497Y-78069737D01*
X169727273Y-78030894D01*
X169752548Y-78020425D01*
X169822017Y-78012956D01*
X169847452Y-78020425D01*
X169872727Y-78030894D01*
X169966503Y-78069737D01*
X170121153Y-78100499D01*
X170121156Y-78100500D01*
X170121158Y-78100500D01*
X170278844Y-78100500D01*
X170278845Y-78100499D01*
X170433497Y-78069737D01*
X170579179Y-78009394D01*
X170580144Y-78008749D01*
X170599920Y-77995536D01*
X170679234Y-77942539D01*
X170710289Y-77921789D01*
X170761915Y-77870163D01*
X180325000Y-77870163D01*
X180325000Y-77929837D01*
X180347836Y-77984968D01*
X180390032Y-78027164D01*
X180445163Y-78050000D01*
X180504837Y-78050000D01*
X180559968Y-78027164D01*
X180602164Y-77984968D01*
X180625000Y-77929837D01*
X180625000Y-77870163D01*
X180602164Y-77815032D01*
X180559968Y-77772836D01*
X180504837Y-77750000D01*
X180445163Y-77750000D01*
X180390032Y-77772836D01*
X180347836Y-77815032D01*
X180325000Y-77870163D01*
X170761915Y-77870163D01*
X170821789Y-77810289D01*
X170909394Y-77679179D01*
X170969737Y-77533497D01*
X171000500Y-77378842D01*
X171000500Y-77221158D01*
X171000500Y-77221155D01*
X171000499Y-77221153D01*
X170974531Y-77090606D01*
X170969737Y-77066503D01*
X170969735Y-77066498D01*
X170909397Y-76920827D01*
X170909395Y-76920824D01*
X170909394Y-76920821D01*
X170908103Y-76918889D01*
X170907737Y-76917723D01*
X170906525Y-76915454D01*
X170906955Y-76915223D01*
X170887226Y-76852214D01*
X170896362Y-76803237D01*
X170901109Y-76791576D01*
X170909394Y-76779179D01*
X170962009Y-76652155D01*
X179150000Y-76652155D01*
X179150000Y-77650000D01*
X180225000Y-77650000D01*
X180725000Y-77650000D01*
X181800000Y-77650000D01*
X181800000Y-76652172D01*
X181799999Y-76652155D01*
X181793598Y-76592627D01*
X181793596Y-76592620D01*
X181743354Y-76457913D01*
X181743350Y-76457906D01*
X181657190Y-76342812D01*
X181657187Y-76342809D01*
X181542093Y-76256649D01*
X181542086Y-76256645D01*
X181407379Y-76206403D01*
X181407372Y-76206401D01*
X181347844Y-76200000D01*
X180725000Y-76200000D01*
X180725000Y-77650000D01*
X180225000Y-77650000D01*
X180225000Y-76200000D01*
X179602155Y-76200000D01*
X179542627Y-76206401D01*
X179542620Y-76206403D01*
X179407913Y-76256645D01*
X179407906Y-76256649D01*
X179292812Y-76342809D01*
X179292809Y-76342812D01*
X179206649Y-76457906D01*
X179206645Y-76457913D01*
X179156403Y-76592620D01*
X179156401Y-76592627D01*
X179150000Y-76652155D01*
X170962009Y-76652155D01*
X170969737Y-76633497D01*
X170985917Y-76552155D01*
X171000500Y-76478844D01*
X171000500Y-76321155D01*
X171000499Y-76321153D01*
X170978563Y-76210874D01*
X170969737Y-76166503D01*
X170933569Y-76079185D01*
X170920425Y-76047452D01*
X170912956Y-75977983D01*
X170920425Y-75952548D01*
X170969735Y-75833501D01*
X170969737Y-75833497D01*
X171000500Y-75678842D01*
X171000500Y-75621153D01*
X190799500Y-75621153D01*
X190799500Y-75778846D01*
X190830261Y-75933489D01*
X190830264Y-75933501D01*
X190890602Y-76079172D01*
X190890609Y-76079185D01*
X190948954Y-76166503D01*
X190975614Y-76206403D01*
X190978602Y-76210874D01*
X190999480Y-76277551D01*
X190999500Y-76279765D01*
X190999500Y-82282330D01*
X190999499Y-82282348D01*
X190999499Y-82448054D01*
X190999498Y-82448054D01*
X191040423Y-82600785D01*
X191050047Y-82617454D01*
X191119477Y-82737712D01*
X191119481Y-82737717D01*
X191238349Y-82856585D01*
X191238355Y-82856590D01*
X195865425Y-87483660D01*
X195898910Y-87544983D01*
X195899361Y-87547149D01*
X195930261Y-87702491D01*
X195930264Y-87702501D01*
X195990602Y-87848172D01*
X195990609Y-87848185D01*
X196078210Y-87979289D01*
X196080854Y-87982510D01*
X196108167Y-88046820D01*
X196106619Y-88085363D01*
X196099500Y-88121156D01*
X196099500Y-88278846D01*
X196130261Y-88433489D01*
X196130264Y-88433501D01*
X196190602Y-88579172D01*
X196190609Y-88579185D01*
X196278210Y-88710288D01*
X196278213Y-88710292D01*
X196389707Y-88821786D01*
X196389711Y-88821789D01*
X196520814Y-88909390D01*
X196520827Y-88909397D01*
X196666498Y-88969735D01*
X196666503Y-88969737D01*
X196810324Y-88998345D01*
X196821153Y-89000499D01*
X196821156Y-89000500D01*
X196821158Y-89000500D01*
X196978842Y-89000500D01*
X196989674Y-88998345D01*
X197059264Y-89004568D01*
X197084133Y-89019172D01*
X197084646Y-89018405D01*
X197220814Y-89109390D01*
X197220827Y-89109397D01*
X197366498Y-89169735D01*
X197366503Y-89169737D01*
X197465858Y-89189500D01*
X197521153Y-89200499D01*
X197521156Y-89200500D01*
X197521158Y-89200500D01*
X197678844Y-89200500D01*
X197678845Y-89200499D01*
X197833497Y-89169737D01*
X197902549Y-89141134D01*
X197972016Y-89133666D01*
X197997447Y-89141133D01*
X198066503Y-89169737D01*
X198165858Y-89189500D01*
X198221153Y-89200499D01*
X198221156Y-89200500D01*
X198221158Y-89200500D01*
X198378844Y-89200500D01*
X198378845Y-89200499D01*
X198533497Y-89169737D01*
X198651592Y-89120821D01*
X198679172Y-89109397D01*
X198679172Y-89109396D01*
X198679179Y-89109394D01*
X198810289Y-89021789D01*
X198921789Y-88910289D01*
X199009394Y-88779179D01*
X199069737Y-88633497D01*
X199100500Y-88478842D01*
X199100500Y-88321158D01*
X199100500Y-88321155D01*
X199075469Y-88195322D01*
X199081696Y-88125731D01*
X199093980Y-88102246D01*
X199109394Y-88079179D01*
X199169737Y-87933497D01*
X199200500Y-87778842D01*
X199200500Y-87621158D01*
X199200500Y-87621155D01*
X199200499Y-87621153D01*
X199185916Y-87547842D01*
X199169737Y-87466503D01*
X199133617Y-87379303D01*
X199126149Y-87309834D01*
X199157424Y-87247355D01*
X199217513Y-87211703D01*
X199272371Y-87210234D01*
X199345420Y-87224765D01*
X199345423Y-87224765D01*
X199503109Y-87224765D01*
X199503110Y-87224764D01*
X199657762Y-87194002D01*
X199803444Y-87133659D01*
X199934554Y-87046054D01*
X200046054Y-86934554D01*
X200133659Y-86803444D01*
X200194002Y-86657762D01*
X200224765Y-86503107D01*
X200224765Y-86345423D01*
X200224765Y-86345420D01*
X200224764Y-86345418D01*
X200194003Y-86190775D01*
X200194002Y-86190768D01*
X200175077Y-86145079D01*
X200133662Y-86045092D01*
X200133655Y-86045079D01*
X200046054Y-85913976D01*
X200046051Y-85913972D01*
X199934557Y-85802478D01*
X199934553Y-85802475D01*
X199803450Y-85714874D01*
X199803437Y-85714867D01*
X199657766Y-85654529D01*
X199657756Y-85654526D01*
X199502414Y-85623626D01*
X199440503Y-85591241D01*
X199438925Y-85589690D01*
X199036819Y-85187584D01*
X199022115Y-85160656D01*
X199005523Y-85134838D01*
X199004631Y-85128637D01*
X199003334Y-85126261D01*
X199000500Y-85099903D01*
X199000500Y-84921153D01*
X202399497Y-84921153D01*
X202399497Y-85078846D01*
X202430258Y-85233489D01*
X202430261Y-85233501D01*
X202490599Y-85379172D01*
X202490606Y-85379185D01*
X202578599Y-85510874D01*
X202599477Y-85577551D01*
X202599497Y-85579765D01*
X202599497Y-90913327D01*
X202599496Y-90913345D01*
X202599496Y-91079051D01*
X202599495Y-91079051D01*
X202599496Y-91079054D01*
X202640420Y-91231782D01*
X202640421Y-91231784D01*
X202640420Y-91231784D01*
X202656756Y-91260077D01*
X202656758Y-91260079D01*
X202656759Y-91260081D01*
X202690295Y-91318168D01*
X202719476Y-91368712D01*
X202838346Y-91487582D01*
X202838352Y-91487587D01*
X203565425Y-92214660D01*
X203598910Y-92275983D01*
X203599361Y-92278149D01*
X203630261Y-92433491D01*
X203630264Y-92433501D01*
X203690602Y-92579172D01*
X203690609Y-92579185D01*
X203778210Y-92710288D01*
X203778213Y-92710292D01*
X203889707Y-92821786D01*
X203889711Y-92821789D01*
X204020814Y-92909390D01*
X204020827Y-92909397D01*
X204110273Y-92946446D01*
X204166503Y-92969737D01*
X204273243Y-92990969D01*
X204299691Y-92996230D01*
X204361602Y-93028615D01*
X204396176Y-93089330D01*
X204399500Y-93117847D01*
X204399500Y-93963273D01*
X204399499Y-93963291D01*
X204399499Y-94128997D01*
X204399498Y-94128997D01*
X204440424Y-94281732D01*
X204440425Y-94281733D01*
X204463063Y-94320942D01*
X204463064Y-94320944D01*
X204519475Y-94418652D01*
X204519481Y-94418660D01*
X204638349Y-94537528D01*
X204638355Y-94537533D01*
X207777826Y-97677004D01*
X207811311Y-97738327D01*
X207811762Y-97740493D01*
X207830261Y-97833494D01*
X207830264Y-97833504D01*
X207890602Y-97979175D01*
X207890609Y-97979188D01*
X207978210Y-98110291D01*
X207978213Y-98110295D01*
X208089707Y-98221789D01*
X208089711Y-98221792D01*
X208220814Y-98309393D01*
X208220827Y-98309400D01*
X208366498Y-98369738D01*
X208366503Y-98369740D01*
X208503578Y-98397006D01*
X208521153Y-98400502D01*
X208521156Y-98400503D01*
X208521158Y-98400503D01*
X208678844Y-98400503D01*
X208678845Y-98400502D01*
X208833497Y-98369740D01*
X208979179Y-98309397D01*
X209110289Y-98221792D01*
X209221789Y-98110292D01*
X209309394Y-97979182D01*
X209369737Y-97833500D01*
X209400500Y-97678845D01*
X209400500Y-97521161D01*
X209400500Y-97521158D01*
X209400499Y-97521156D01*
X209374740Y-97391658D01*
X209369737Y-97366506D01*
X209320423Y-97247452D01*
X209312955Y-97177984D01*
X209320421Y-97152554D01*
X209369737Y-97033497D01*
X209400500Y-96878842D01*
X209400500Y-96721158D01*
X209400500Y-96721155D01*
X209400499Y-96721153D01*
X209376400Y-96600000D01*
X209369737Y-96566503D01*
X209358935Y-96540424D01*
X209309397Y-96420827D01*
X209309390Y-96420814D01*
X209221789Y-96289711D01*
X209221786Y-96289707D01*
X209110292Y-96178213D01*
X209110288Y-96178210D01*
X208979185Y-96090609D01*
X208979172Y-96090602D01*
X208888486Y-96053040D01*
X208888485Y-96053039D01*
X208833497Y-96030263D01*
X208678842Y-95999500D01*
X208677997Y-95999500D01*
X208671774Y-95997917D01*
X208644423Y-95981719D01*
X208616238Y-95966976D01*
X208614660Y-95965425D01*
X208590388Y-95941153D01*
X219399500Y-95941153D01*
X219399500Y-96098846D01*
X219430261Y-96253489D01*
X219430264Y-96253501D01*
X219490602Y-96399172D01*
X219490609Y-96399185D01*
X219578210Y-96530288D01*
X219578213Y-96530292D01*
X219689707Y-96641786D01*
X219689711Y-96641789D01*
X219820814Y-96729390D01*
X219820827Y-96729397D01*
X219966498Y-96789735D01*
X219966503Y-96789737D01*
X220121153Y-96820499D01*
X220121156Y-96820500D01*
X220121158Y-96820500D01*
X220278844Y-96820500D01*
X220278845Y-96820499D01*
X220433497Y-96789737D01*
X220544110Y-96743920D01*
X225669499Y-96743920D01*
X225698340Y-96888907D01*
X225698343Y-96888917D01*
X225754912Y-97025488D01*
X225754919Y-97025501D01*
X225837048Y-97148415D01*
X225837051Y-97148419D01*
X225941580Y-97252948D01*
X225941584Y-97252951D01*
X226064498Y-97335080D01*
X226064511Y-97335087D01*
X226140381Y-97366513D01*
X226201087Y-97391658D01*
X226201091Y-97391658D01*
X226201092Y-97391659D01*
X226346079Y-97420500D01*
X226346082Y-97420500D01*
X226493920Y-97420500D01*
X226591462Y-97401096D01*
X226638913Y-97391658D01*
X226775495Y-97335084D01*
X226898416Y-97252951D01*
X227002951Y-97148416D01*
X227085084Y-97025495D01*
X227086881Y-97021158D01*
X227124531Y-96930261D01*
X227141658Y-96888913D01*
X227170500Y-96743918D01*
X227170500Y-96596082D01*
X227170500Y-96596079D01*
X227141659Y-96451092D01*
X227141658Y-96451091D01*
X227141658Y-96451087D01*
X227129124Y-96420827D01*
X227085087Y-96314511D01*
X227085080Y-96314498D01*
X227002951Y-96191584D01*
X227002948Y-96191580D01*
X226898419Y-96087051D01*
X226898415Y-96087048D01*
X226775501Y-96004919D01*
X226775488Y-96004912D01*
X226638917Y-95948343D01*
X226638907Y-95948340D01*
X226493920Y-95919500D01*
X226493918Y-95919500D01*
X226346082Y-95919500D01*
X226346080Y-95919500D01*
X226201092Y-95948340D01*
X226201082Y-95948343D01*
X226064511Y-96004912D01*
X226064498Y-96004919D01*
X225941584Y-96087048D01*
X225941580Y-96087051D01*
X225837051Y-96191580D01*
X225837048Y-96191584D01*
X225754919Y-96314498D01*
X225754912Y-96314511D01*
X225698343Y-96451082D01*
X225698340Y-96451092D01*
X225669500Y-96596079D01*
X225669500Y-96596082D01*
X225669500Y-96743918D01*
X225669500Y-96743920D01*
X225669499Y-96743920D01*
X220544110Y-96743920D01*
X220579179Y-96729394D01*
X220710289Y-96641789D01*
X220821789Y-96530289D01*
X220842363Y-96499499D01*
X220909390Y-96399185D01*
X220909390Y-96399184D01*
X220909394Y-96399179D01*
X220969737Y-96253497D01*
X221000500Y-96098842D01*
X221000500Y-95941158D01*
X221000500Y-95941156D01*
X220999903Y-95935098D01*
X221000276Y-95935061D01*
X220998781Y-95919137D01*
X220998911Y-95904987D01*
X221000501Y-95899057D01*
X221000501Y-95740942D01*
X221000500Y-95740938D01*
X221000500Y-94979765D01*
X221020185Y-94912726D01*
X221021398Y-94910874D01*
X221042799Y-94878846D01*
X221109394Y-94779179D01*
X221169737Y-94633497D01*
X221200500Y-94478842D01*
X221200500Y-94321158D01*
X221200500Y-94321155D01*
X221200499Y-94321153D01*
X221192657Y-94281728D01*
X221169737Y-94166503D01*
X221136462Y-94086169D01*
X221109397Y-94020827D01*
X221109390Y-94020814D01*
X221021789Y-93889711D01*
X221021786Y-93889707D01*
X220910292Y-93778213D01*
X220910288Y-93778210D01*
X220779185Y-93690609D01*
X220779172Y-93690602D01*
X220633501Y-93630264D01*
X220633489Y-93630261D01*
X220478845Y-93599500D01*
X220478842Y-93599500D01*
X220321158Y-93599500D01*
X220321155Y-93599500D01*
X220166510Y-93630261D01*
X220166498Y-93630264D01*
X220020827Y-93690602D01*
X220020814Y-93690609D01*
X219889711Y-93778210D01*
X219889707Y-93778213D01*
X219778213Y-93889707D01*
X219778210Y-93889711D01*
X219690609Y-94020814D01*
X219690602Y-94020827D01*
X219630264Y-94166498D01*
X219630261Y-94166510D01*
X219599500Y-94321153D01*
X219599500Y-94478846D01*
X219630261Y-94633489D01*
X219630264Y-94633501D01*
X219690602Y-94779172D01*
X219690609Y-94779185D01*
X219778602Y-94910874D01*
X219799480Y-94977551D01*
X219799500Y-94979765D01*
X219799500Y-95258572D01*
X219779815Y-95325611D01*
X219744392Y-95361674D01*
X219689707Y-95398213D01*
X219578213Y-95509707D01*
X219578210Y-95509711D01*
X219490609Y-95640814D01*
X219490602Y-95640827D01*
X219430264Y-95786498D01*
X219430261Y-95786510D01*
X219399500Y-95941153D01*
X208590388Y-95941153D01*
X206037819Y-93388584D01*
X206004334Y-93327261D01*
X206001500Y-93300903D01*
X206001500Y-92794836D01*
X206021185Y-92727797D01*
X206073989Y-92682042D01*
X206143147Y-92672098D01*
X206194392Y-92691735D01*
X206220813Y-92709389D01*
X206220815Y-92709390D01*
X206220821Y-92709394D01*
X206220823Y-92709395D01*
X206220827Y-92709397D01*
X206358683Y-92766498D01*
X206366503Y-92769737D01*
X206518644Y-92800000D01*
X206521153Y-92800499D01*
X206521156Y-92800500D01*
X206521158Y-92800500D01*
X206678844Y-92800500D01*
X206678845Y-92800499D01*
X206833497Y-92769737D01*
X206979179Y-92709394D01*
X207031110Y-92674694D01*
X207097785Y-92653816D01*
X207165165Y-92672300D01*
X207168863Y-92674676D01*
X207220821Y-92709394D01*
X207220823Y-92709395D01*
X207220825Y-92709396D01*
X207358683Y-92766498D01*
X207366503Y-92769737D01*
X207518644Y-92800000D01*
X207521153Y-92800499D01*
X207521156Y-92800500D01*
X207521158Y-92800500D01*
X207678844Y-92800500D01*
X207678845Y-92800499D01*
X207833497Y-92769737D01*
X207895825Y-92743920D01*
X225669499Y-92743920D01*
X225698340Y-92888907D01*
X225698343Y-92888917D01*
X225754912Y-93025488D01*
X225754919Y-93025501D01*
X225837048Y-93148415D01*
X225837051Y-93148419D01*
X225941580Y-93252948D01*
X225941584Y-93252951D01*
X226064498Y-93335080D01*
X226064511Y-93335087D01*
X226201082Y-93391656D01*
X226201087Y-93391658D01*
X226201091Y-93391658D01*
X226201092Y-93391659D01*
X226346079Y-93420500D01*
X226346082Y-93420500D01*
X226493920Y-93420500D01*
X226617195Y-93395978D01*
X226638913Y-93391658D01*
X226761326Y-93340953D01*
X226775488Y-93335087D01*
X226775488Y-93335086D01*
X226775495Y-93335084D01*
X226898416Y-93252951D01*
X227002951Y-93148416D01*
X227085084Y-93025495D01*
X227141658Y-92888913D01*
X227155011Y-92821786D01*
X227170500Y-92743920D01*
X227170500Y-92596079D01*
X227141659Y-92451092D01*
X227141658Y-92451091D01*
X227141658Y-92451087D01*
X227133294Y-92430894D01*
X227085087Y-92314511D01*
X227085080Y-92314498D01*
X227002951Y-92191584D01*
X227002948Y-92191580D01*
X226898419Y-92087051D01*
X226898415Y-92087048D01*
X226775501Y-92004919D01*
X226775488Y-92004912D01*
X226638917Y-91948343D01*
X226638907Y-91948340D01*
X226493920Y-91919500D01*
X226493918Y-91919500D01*
X226346082Y-91919500D01*
X226346080Y-91919500D01*
X226201092Y-91948340D01*
X226201082Y-91948343D01*
X226064511Y-92004912D01*
X226064498Y-92004919D01*
X225941584Y-92087048D01*
X225941580Y-92087051D01*
X225837051Y-92191580D01*
X225837048Y-92191584D01*
X225754919Y-92314498D01*
X225754912Y-92314511D01*
X225698343Y-92451082D01*
X225698340Y-92451092D01*
X225669500Y-92596079D01*
X225669500Y-92596082D01*
X225669500Y-92743918D01*
X225669500Y-92743920D01*
X225669499Y-92743920D01*
X207895825Y-92743920D01*
X207979179Y-92709394D01*
X208110289Y-92621789D01*
X208221789Y-92510289D01*
X208309394Y-92379179D01*
X208369737Y-92233497D01*
X208400500Y-92078842D01*
X208400500Y-91921158D01*
X208400500Y-91921155D01*
X208400499Y-91921153D01*
X208386837Y-91852472D01*
X208369737Y-91766503D01*
X208337929Y-91689711D01*
X208309397Y-91620827D01*
X208309390Y-91620814D01*
X208221789Y-91489711D01*
X208221786Y-91489707D01*
X208110292Y-91378213D01*
X208110288Y-91378210D01*
X208020429Y-91318168D01*
X207979185Y-91290609D01*
X207979172Y-91290602D01*
X207833501Y-91230264D01*
X207833491Y-91230261D01*
X207787703Y-91221153D01*
X210499500Y-91221153D01*
X210499500Y-91378846D01*
X210530261Y-91533489D01*
X210530264Y-91533501D01*
X210590602Y-91679172D01*
X210590609Y-91679185D01*
X210678210Y-91810288D01*
X210678213Y-91810292D01*
X210789707Y-91921786D01*
X210789711Y-91921789D01*
X210920814Y-92009390D01*
X210920827Y-92009397D01*
X211066498Y-92069735D01*
X211066503Y-92069737D01*
X211221153Y-92100499D01*
X211221156Y-92100500D01*
X211221158Y-92100500D01*
X211378844Y-92100500D01*
X211378845Y-92100499D01*
X211533497Y-92069737D01*
X211679179Y-92009394D01*
X211810289Y-91921789D01*
X211921789Y-91810289D01*
X212009394Y-91679179D01*
X212069737Y-91533497D01*
X212100500Y-91378842D01*
X212100500Y-91221158D01*
X212100500Y-91221155D01*
X212100499Y-91221153D01*
X212089070Y-91163696D01*
X212069737Y-91066503D01*
X212060460Y-91044106D01*
X212009397Y-90920827D01*
X212009390Y-90920814D01*
X211921789Y-90789711D01*
X211921786Y-90789707D01*
X211810292Y-90678213D01*
X211810288Y-90678210D01*
X211679185Y-90590609D01*
X211679172Y-90590602D01*
X211533501Y-90530264D01*
X211533489Y-90530261D01*
X211378845Y-90499500D01*
X211378842Y-90499500D01*
X211221158Y-90499500D01*
X211221155Y-90499500D01*
X211066510Y-90530261D01*
X211066498Y-90530264D01*
X210920827Y-90590602D01*
X210920814Y-90590609D01*
X210789711Y-90678210D01*
X210789707Y-90678213D01*
X210678213Y-90789707D01*
X210678210Y-90789711D01*
X210590609Y-90920814D01*
X210590602Y-90920827D01*
X210530264Y-91066498D01*
X210530261Y-91066510D01*
X210499500Y-91221153D01*
X207787703Y-91221153D01*
X207678149Y-91199361D01*
X207616238Y-91166976D01*
X207614660Y-91165425D01*
X207036819Y-90587584D01*
X207003334Y-90526261D01*
X207000500Y-90499903D01*
X207000500Y-90249448D01*
X221949500Y-90249448D01*
X221949500Y-90430551D01*
X221977829Y-90609410D01*
X222033787Y-90781636D01*
X222033788Y-90781639D01*
X222058757Y-90830642D01*
X222105199Y-90921789D01*
X222116006Y-90942997D01*
X222222441Y-91089494D01*
X222222445Y-91089499D01*
X222350500Y-91217554D01*
X222350505Y-91217558D01*
X222451043Y-91290602D01*
X222497006Y-91323996D01*
X222594019Y-91373427D01*
X222658360Y-91406211D01*
X222658363Y-91406212D01*
X222732387Y-91430263D01*
X222830591Y-91462171D01*
X222913429Y-91475291D01*
X223009449Y-91490500D01*
X223009454Y-91490500D01*
X223466052Y-91490500D01*
X223533091Y-91510185D01*
X223578846Y-91562989D01*
X223588790Y-91632147D01*
X223585827Y-91646590D01*
X223569500Y-91707525D01*
X223569500Y-91852475D01*
X223595188Y-91948342D01*
X223607017Y-91992488D01*
X223679488Y-92118011D01*
X223679490Y-92118013D01*
X223679491Y-92118015D01*
X223781985Y-92220509D01*
X223781986Y-92220510D01*
X223781988Y-92220511D01*
X223907511Y-92292982D01*
X223907512Y-92292982D01*
X223907515Y-92292984D01*
X224047525Y-92330500D01*
X224047528Y-92330500D01*
X224192472Y-92330500D01*
X224192475Y-92330500D01*
X224332485Y-92292984D01*
X224458015Y-92220509D01*
X224560509Y-92118015D01*
X224632984Y-91992485D01*
X224670500Y-91852475D01*
X224670500Y-91707525D01*
X224632984Y-91567515D01*
X224613344Y-91533497D01*
X224605595Y-91520075D01*
X224589122Y-91452175D01*
X224611974Y-91386148D01*
X224656688Y-91347590D01*
X224702994Y-91323996D01*
X224849501Y-91217553D01*
X224977553Y-91089501D01*
X225083996Y-90942994D01*
X225166211Y-90781639D01*
X225222171Y-90609409D01*
X225239579Y-90499500D01*
X225250500Y-90430551D01*
X225250500Y-90249448D01*
X225230279Y-90121786D01*
X225222171Y-90070591D01*
X225173510Y-89920824D01*
X225166212Y-89898363D01*
X225166211Y-89898360D01*
X225110850Y-89789710D01*
X225083996Y-89737006D01*
X225042447Y-89679818D01*
X224977558Y-89590505D01*
X224977554Y-89590500D01*
X224849499Y-89462445D01*
X224849494Y-89462441D01*
X224702997Y-89356006D01*
X224702996Y-89356005D01*
X224702994Y-89356004D01*
X224651300Y-89329664D01*
X224541639Y-89273788D01*
X224541636Y-89273787D01*
X224369410Y-89217829D01*
X224190551Y-89189500D01*
X224190546Y-89189500D01*
X223009454Y-89189500D01*
X223009449Y-89189500D01*
X222830589Y-89217829D01*
X222658363Y-89273787D01*
X222658360Y-89273788D01*
X222497002Y-89356006D01*
X222350505Y-89462441D01*
X222350500Y-89462445D01*
X222222445Y-89590500D01*
X222222441Y-89590505D01*
X222116006Y-89737002D01*
X222033788Y-89898360D01*
X222033787Y-89898363D01*
X221977829Y-90070589D01*
X221949500Y-90249448D01*
X207000500Y-90249448D01*
X207000500Y-87221153D01*
X212599500Y-87221153D01*
X212599500Y-87378846D01*
X212630261Y-87533489D01*
X212630264Y-87533501D01*
X212690602Y-87679172D01*
X212690609Y-87679185D01*
X212778210Y-87810288D01*
X212778213Y-87810292D01*
X212889707Y-87921786D01*
X212889711Y-87921789D01*
X213020814Y-88009390D01*
X213020827Y-88009397D01*
X213166498Y-88069735D01*
X213166503Y-88069737D01*
X213321153Y-88100499D01*
X213321156Y-88100500D01*
X213321158Y-88100500D01*
X213478844Y-88100500D01*
X213478845Y-88100499D01*
X213633497Y-88069737D01*
X213779179Y-88009394D01*
X213910289Y-87921789D01*
X214021789Y-87810289D01*
X214109394Y-87679179D01*
X214169737Y-87533497D01*
X214200500Y-87378842D01*
X214200500Y-87221158D01*
X214200500Y-87221155D01*
X214200499Y-87221153D01*
X214179563Y-87115901D01*
X214169737Y-87066503D01*
X214161266Y-87046051D01*
X214109397Y-86920827D01*
X214109390Y-86920814D01*
X214021789Y-86789711D01*
X214021786Y-86789707D01*
X213910292Y-86678213D01*
X213910288Y-86678210D01*
X213779185Y-86590609D01*
X213779172Y-86590602D01*
X213633501Y-86530264D01*
X213633489Y-86530261D01*
X213478845Y-86499500D01*
X213478842Y-86499500D01*
X213321158Y-86499500D01*
X213321155Y-86499500D01*
X213166510Y-86530261D01*
X213166498Y-86530264D01*
X213020827Y-86590602D01*
X213020814Y-86590609D01*
X212889711Y-86678210D01*
X212889707Y-86678213D01*
X212778213Y-86789707D01*
X212778210Y-86789711D01*
X212690609Y-86920814D01*
X212690602Y-86920827D01*
X212630264Y-87066498D01*
X212630261Y-87066510D01*
X212599500Y-87221153D01*
X207000500Y-87221153D01*
X207000500Y-87182940D01*
X207020185Y-87115901D01*
X207036814Y-87095263D01*
X207097524Y-87034554D01*
X207185129Y-86903444D01*
X207245472Y-86757762D01*
X207276235Y-86603107D01*
X207276235Y-86445423D01*
X207276235Y-86445420D01*
X207276234Y-86445418D01*
X207274942Y-86438925D01*
X207245472Y-86290768D01*
X207204049Y-86190763D01*
X207185132Y-86145092D01*
X207185125Y-86145079D01*
X207097524Y-86013976D01*
X207097521Y-86013972D01*
X206986027Y-85902478D01*
X206986023Y-85902475D01*
X206878273Y-85830478D01*
X206833468Y-85776865D01*
X206824761Y-85707540D01*
X206843958Y-85658641D01*
X206850777Y-85648401D01*
X206881520Y-85617659D01*
X206946404Y-85505276D01*
X206960577Y-85480728D01*
X207001501Y-85328000D01*
X207001501Y-85169886D01*
X207001501Y-85162291D01*
X207001500Y-85162273D01*
X207001500Y-84840117D01*
X207001501Y-84840104D01*
X207001501Y-84672002D01*
X207001501Y-84672000D01*
X206960577Y-84519272D01*
X206881520Y-84382341D01*
X206529464Y-84030285D01*
X206529463Y-84030284D01*
X206417659Y-83918480D01*
X206330847Y-83868360D01*
X206330847Y-83868359D01*
X206330843Y-83868358D01*
X206280728Y-83839423D01*
X206128000Y-83798499D01*
X205969886Y-83798499D01*
X205962290Y-83798499D01*
X205962274Y-83798500D01*
X204521940Y-83798500D01*
X204481019Y-83809464D01*
X204481019Y-83809465D01*
X204443751Y-83819451D01*
X204369214Y-83839423D01*
X204369209Y-83839426D01*
X204232290Y-83918475D01*
X204232282Y-83918481D01*
X204120480Y-84030283D01*
X204120480Y-84030284D01*
X204120478Y-84030286D01*
X204050265Y-84100499D01*
X203985338Y-84165426D01*
X203924015Y-84198910D01*
X203921849Y-84199361D01*
X203766508Y-84230261D01*
X203766498Y-84230264D01*
X203647450Y-84279575D01*
X203577980Y-84287044D01*
X203552546Y-84279575D01*
X203433498Y-84230264D01*
X203433486Y-84230261D01*
X203278842Y-84199500D01*
X203278839Y-84199500D01*
X203121155Y-84199500D01*
X203121152Y-84199500D01*
X202966507Y-84230261D01*
X202966495Y-84230264D01*
X202820824Y-84290602D01*
X202820811Y-84290609D01*
X202689708Y-84378210D01*
X202689704Y-84378213D01*
X202578210Y-84489707D01*
X202578207Y-84489711D01*
X202490606Y-84620814D01*
X202490599Y-84620827D01*
X202430261Y-84766498D01*
X202430258Y-84766510D01*
X202399497Y-84921153D01*
X199000500Y-84921153D01*
X199000500Y-84414751D01*
X199020185Y-84347712D01*
X199072989Y-84301957D01*
X199142147Y-84292013D01*
X199148691Y-84293134D01*
X199308890Y-84324999D01*
X199308894Y-84325000D01*
X199491106Y-84325000D01*
X199491109Y-84324999D01*
X199669805Y-84289454D01*
X199669813Y-84289452D01*
X199838151Y-84219724D01*
X199838152Y-84219724D01*
X199854948Y-84208500D01*
X199341191Y-83694745D01*
X199337386Y-83687777D01*
X199330946Y-83683133D01*
X199320879Y-83657547D01*
X199307706Y-83633422D01*
X199307696Y-83632364D01*
X199350272Y-83650000D01*
X199449728Y-83650000D01*
X199541614Y-83611940D01*
X199611940Y-83541614D01*
X199650000Y-83449728D01*
X199650000Y-83399999D01*
X199753553Y-83399999D01*
X199753553Y-83400001D01*
X200208500Y-83854948D01*
X200208500Y-83854947D01*
X200219723Y-83838154D01*
X200219724Y-83838151D01*
X200289452Y-83669813D01*
X200289454Y-83669805D01*
X200324999Y-83491109D01*
X200325000Y-83491106D01*
X200325000Y-83308894D01*
X200324999Y-83308890D01*
X200289454Y-83130194D01*
X200289451Y-83130182D01*
X200219728Y-82961855D01*
X200219725Y-82961849D01*
X200208500Y-82945050D01*
X199753553Y-83399999D01*
X199650000Y-83399999D01*
X199650000Y-83350272D01*
X199611940Y-83258386D01*
X199541614Y-83188060D01*
X199449728Y-83150000D01*
X199350272Y-83150000D01*
X199311836Y-83165920D01*
X199313482Y-83147535D01*
X199341191Y-83105253D01*
X199854947Y-82591498D01*
X199838145Y-82580271D01*
X199669817Y-82510548D01*
X199669805Y-82510545D01*
X199491109Y-82475000D01*
X199308890Y-82475000D01*
X199130194Y-82510545D01*
X199130186Y-82510547D01*
X198961839Y-82580278D01*
X198958972Y-82581811D01*
X198957300Y-82582158D01*
X198956221Y-82582606D01*
X198956136Y-82582401D01*
X198890568Y-82596045D01*
X198842086Y-82581808D01*
X198838390Y-82579833D01*
X198669962Y-82510068D01*
X198669952Y-82510065D01*
X198491156Y-82474500D01*
X198491154Y-82474500D01*
X198308846Y-82474500D01*
X198308844Y-82474500D01*
X198130047Y-82510065D01*
X198130034Y-82510069D01*
X198118545Y-82514828D01*
X198049076Y-82522294D01*
X198027765Y-82516447D01*
X198023424Y-82514828D01*
X197972478Y-82495826D01*
X197932481Y-82480908D01*
X197932483Y-82480908D01*
X197872883Y-82474501D01*
X197872881Y-82474500D01*
X197872873Y-82474500D01*
X197872864Y-82474500D01*
X196927129Y-82474500D01*
X196927123Y-82474501D01*
X196867516Y-82480908D01*
X196732671Y-82531202D01*
X196732664Y-82531206D01*
X196617455Y-82617452D01*
X196617454Y-82617454D01*
X196531206Y-82732664D01*
X196531202Y-82732671D01*
X196480908Y-82867517D01*
X196474501Y-82927116D01*
X196474500Y-82927135D01*
X196474500Y-83872870D01*
X196474501Y-83872876D01*
X196480908Y-83932483D01*
X196531202Y-84067328D01*
X196531206Y-84067335D01*
X196617452Y-84182544D01*
X196617455Y-84182547D01*
X196732664Y-84268793D01*
X196732671Y-84268797D01*
X196867517Y-84319091D01*
X196867516Y-84319091D01*
X196874444Y-84319835D01*
X196927127Y-84325500D01*
X197675500Y-84325499D01*
X197742539Y-84345183D01*
X197788294Y-84397987D01*
X197799500Y-84449499D01*
X197799500Y-85313330D01*
X197799499Y-85313348D01*
X197799499Y-85479054D01*
X197799498Y-85479054D01*
X197799499Y-85479057D01*
X197840423Y-85631785D01*
X197840424Y-85631786D01*
X197853553Y-85654526D01*
X197853554Y-85654529D01*
X197919475Y-85768709D01*
X197919481Y-85768717D01*
X198038349Y-85887585D01*
X198038355Y-85887590D01*
X198589690Y-86438925D01*
X198623175Y-86500248D01*
X198623626Y-86502414D01*
X198654526Y-86657756D01*
X198654529Y-86657766D01*
X198690646Y-86744961D01*
X198698115Y-86814430D01*
X198666839Y-86876909D01*
X198606750Y-86912561D01*
X198551894Y-86914030D01*
X198478846Y-86899500D01*
X198478842Y-86899500D01*
X198321158Y-86899500D01*
X198321155Y-86899500D01*
X198166510Y-86930261D01*
X198166498Y-86930264D01*
X198020827Y-86990602D01*
X198020814Y-86990609D01*
X197889711Y-87078210D01*
X197889707Y-87078213D01*
X197778213Y-87189707D01*
X197778210Y-87189711D01*
X197699799Y-87307061D01*
X197646186Y-87351866D01*
X197576861Y-87360573D01*
X197513834Y-87330418D01*
X197477115Y-87270975D01*
X197475080Y-87262362D01*
X197469738Y-87235508D01*
X197469737Y-87235507D01*
X197469737Y-87235503D01*
X197452546Y-87194000D01*
X197409397Y-87089827D01*
X197409390Y-87089814D01*
X197321789Y-86958711D01*
X197321786Y-86958707D01*
X197210292Y-86847213D01*
X197210288Y-86847210D01*
X197079185Y-86759609D01*
X197079172Y-86759602D01*
X196933501Y-86699264D01*
X196933491Y-86699261D01*
X196778149Y-86668361D01*
X196716238Y-86635976D01*
X196714660Y-86634425D01*
X192236819Y-82156584D01*
X192203334Y-82095261D01*
X192200500Y-82068903D01*
X192200500Y-80921153D01*
X199799500Y-80921153D01*
X199799500Y-81078846D01*
X199830261Y-81233489D01*
X199830264Y-81233501D01*
X199890602Y-81379172D01*
X199890609Y-81379185D01*
X199978210Y-81510288D01*
X199978213Y-81510292D01*
X200089707Y-81621786D01*
X200089711Y-81621789D01*
X200220814Y-81709390D01*
X200220827Y-81709397D01*
X200366498Y-81769735D01*
X200366503Y-81769737D01*
X200499958Y-81796283D01*
X200521153Y-81800499D01*
X200521156Y-81800500D01*
X200521158Y-81800500D01*
X200678844Y-81800500D01*
X200678845Y-81800499D01*
X200833497Y-81769737D01*
X200979179Y-81709394D01*
X201019501Y-81682452D01*
X201110875Y-81621398D01*
X201177553Y-81600520D01*
X201179766Y-81600500D01*
X205820234Y-81600500D01*
X205887273Y-81620185D01*
X205889125Y-81621398D01*
X206020814Y-81709390D01*
X206020827Y-81709397D01*
X206166498Y-81769735D01*
X206166503Y-81769737D01*
X206299958Y-81796283D01*
X206321153Y-81800499D01*
X206321156Y-81800500D01*
X206321158Y-81800500D01*
X206478844Y-81800500D01*
X206478845Y-81800499D01*
X206633497Y-81769737D01*
X206779179Y-81709394D01*
X206910289Y-81621789D01*
X207021789Y-81510289D01*
X207109394Y-81379179D01*
X207169737Y-81233497D01*
X207200500Y-81078842D01*
X207200500Y-80921158D01*
X207200500Y-80921155D01*
X207200499Y-80921153D01*
X207169738Y-80766510D01*
X207169737Y-80766503D01*
X207163426Y-80751267D01*
X207109397Y-80620827D01*
X207109390Y-80620814D01*
X207021789Y-80489711D01*
X207021786Y-80489707D01*
X206910292Y-80378213D01*
X206910288Y-80378210D01*
X206779185Y-80290609D01*
X206779172Y-80290602D01*
X206633501Y-80230264D01*
X206633489Y-80230261D01*
X206478845Y-80199500D01*
X206478842Y-80199500D01*
X206321158Y-80199500D01*
X206321155Y-80199500D01*
X206166510Y-80230261D01*
X206166498Y-80230264D01*
X206020827Y-80290602D01*
X206020814Y-80290609D01*
X205889125Y-80378602D01*
X205822447Y-80399480D01*
X205820234Y-80399500D01*
X201179766Y-80399500D01*
X201112727Y-80379815D01*
X201110875Y-80378602D01*
X200979185Y-80290609D01*
X200979172Y-80290602D01*
X200833501Y-80230264D01*
X200833489Y-80230261D01*
X200678845Y-80199500D01*
X200678842Y-80199500D01*
X200521158Y-80199500D01*
X200521155Y-80199500D01*
X200366510Y-80230261D01*
X200366498Y-80230264D01*
X200220827Y-80290602D01*
X200220814Y-80290609D01*
X200089711Y-80378210D01*
X200089707Y-80378213D01*
X199978213Y-80489707D01*
X199978210Y-80489711D01*
X199890609Y-80620814D01*
X199890602Y-80620827D01*
X199830264Y-80766498D01*
X199830261Y-80766510D01*
X199799500Y-80921153D01*
X192200500Y-80921153D01*
X192200500Y-78721153D01*
X212099500Y-78721153D01*
X212099500Y-78878846D01*
X212130261Y-79033489D01*
X212130264Y-79033501D01*
X212190602Y-79179172D01*
X212190609Y-79179185D01*
X212278210Y-79310288D01*
X212278213Y-79310292D01*
X212389707Y-79421786D01*
X212389711Y-79421789D01*
X212520814Y-79509390D01*
X212520827Y-79509397D01*
X212602808Y-79543354D01*
X212666503Y-79569737D01*
X212786460Y-79593598D01*
X212821153Y-79600499D01*
X212821156Y-79600500D01*
X212821158Y-79600500D01*
X212978844Y-79600500D01*
X212978845Y-79600499D01*
X213133497Y-79569737D01*
X213279179Y-79509394D01*
X213279185Y-79509390D01*
X213288827Y-79502948D01*
X213355504Y-79482070D01*
X213357718Y-79482050D01*
X215963684Y-79482050D01*
X216030723Y-79501735D01*
X216032575Y-79502948D01*
X216164264Y-79590940D01*
X216164277Y-79590947D01*
X216309900Y-79651265D01*
X216309953Y-79651287D01*
X216464603Y-79682049D01*
X216464606Y-79682050D01*
X216464608Y-79682050D01*
X216622294Y-79682050D01*
X216622295Y-79682049D01*
X216776947Y-79651287D01*
X216916222Y-79593598D01*
X216922622Y-79590947D01*
X216922622Y-79590946D01*
X216922629Y-79590944D01*
X217053739Y-79503339D01*
X217165239Y-79391839D01*
X217213320Y-79319879D01*
X217266931Y-79275076D01*
X217336256Y-79266368D01*
X217385313Y-79285669D01*
X217420814Y-79309390D01*
X217420827Y-79309397D01*
X217557300Y-79365925D01*
X217566503Y-79369737D01*
X217677617Y-79391839D01*
X217721153Y-79400499D01*
X217721156Y-79400500D01*
X217721158Y-79400500D01*
X217878844Y-79400500D01*
X217878845Y-79400499D01*
X218033497Y-79369737D01*
X218179179Y-79309394D01*
X218310289Y-79221789D01*
X218421789Y-79110289D01*
X218509394Y-78979179D01*
X218569737Y-78833497D01*
X218578422Y-78789837D01*
X218579992Y-78781947D01*
X222800000Y-78781947D01*
X222800000Y-79018052D01*
X222836934Y-79251247D01*
X222909897Y-79475802D01*
X223017087Y-79686174D01*
X223077338Y-79769104D01*
X223077340Y-79769105D01*
X223817037Y-79029408D01*
X223834075Y-79092993D01*
X223899901Y-79207007D01*
X223992993Y-79300099D01*
X224107007Y-79365925D01*
X224170590Y-79382962D01*
X223430893Y-80122658D01*
X223513828Y-80182914D01*
X223724197Y-80290102D01*
X223948752Y-80363065D01*
X223948751Y-80363065D01*
X224181948Y-80400000D01*
X224418052Y-80400000D01*
X224651247Y-80363065D01*
X224875802Y-80290102D01*
X225086163Y-80182918D01*
X225086169Y-80182914D01*
X225169104Y-80122658D01*
X225169105Y-80122658D01*
X224429408Y-79382962D01*
X224492993Y-79365925D01*
X224607007Y-79300099D01*
X224700099Y-79207007D01*
X224765925Y-79092993D01*
X224782962Y-79029408D01*
X225522658Y-79769105D01*
X225522658Y-79769104D01*
X225582914Y-79686169D01*
X225582918Y-79686163D01*
X225690102Y-79475802D01*
X225763065Y-79251247D01*
X225800000Y-79018052D01*
X225800000Y-78781947D01*
X225763065Y-78548752D01*
X225690102Y-78324197D01*
X225582914Y-78113828D01*
X225522658Y-78030894D01*
X225522658Y-78030893D01*
X224782962Y-78770590D01*
X224765925Y-78707007D01*
X224700099Y-78592993D01*
X224607007Y-78499901D01*
X224492993Y-78434075D01*
X224429409Y-78417037D01*
X225169105Y-77677340D01*
X225169104Y-77677338D01*
X225086174Y-77617087D01*
X224875802Y-77509897D01*
X224651247Y-77436934D01*
X224651248Y-77436934D01*
X224418052Y-77400000D01*
X224181948Y-77400000D01*
X223948752Y-77436934D01*
X223724197Y-77509897D01*
X223513830Y-77617084D01*
X223430894Y-77677340D01*
X224170591Y-78417037D01*
X224107007Y-78434075D01*
X223992993Y-78499901D01*
X223899901Y-78592993D01*
X223834075Y-78707007D01*
X223817037Y-78770590D01*
X223077340Y-78030894D01*
X223017084Y-78113830D01*
X222909897Y-78324197D01*
X222836934Y-78548752D01*
X222800000Y-78781947D01*
X218579992Y-78781947D01*
X218585773Y-78752883D01*
X218585773Y-78752882D01*
X218600499Y-78678846D01*
X218600500Y-78678844D01*
X218600500Y-78521155D01*
X218600499Y-78521153D01*
X218569737Y-78366503D01*
X218569735Y-78366498D01*
X218509397Y-78220827D01*
X218509390Y-78220814D01*
X218421789Y-78089711D01*
X218421786Y-78089707D01*
X218310292Y-77978213D01*
X218310288Y-77978210D01*
X218179185Y-77890609D01*
X218179172Y-77890602D01*
X218064317Y-77843028D01*
X218064311Y-77843026D01*
X218033497Y-77830263D01*
X217878842Y-77799500D01*
X217878433Y-77799500D01*
X217874069Y-77798478D01*
X217845417Y-77782239D01*
X217816238Y-77766976D01*
X217814660Y-77765425D01*
X217487590Y-77438355D01*
X217487588Y-77438352D01*
X217368717Y-77319481D01*
X217368716Y-77319480D01*
X217281904Y-77269360D01*
X217281904Y-77269359D01*
X217281900Y-77269358D01*
X217231785Y-77240423D01*
X217079057Y-77199499D01*
X216920943Y-77199499D01*
X216913347Y-77199499D01*
X216913331Y-77199500D01*
X214379766Y-77199500D01*
X214312727Y-77179815D01*
X214310875Y-77178602D01*
X214179185Y-77090609D01*
X214179172Y-77090602D01*
X214033501Y-77030264D01*
X214033489Y-77030261D01*
X213878845Y-76999500D01*
X213878842Y-76999500D01*
X213721158Y-76999500D01*
X213721155Y-76999500D01*
X213566510Y-77030261D01*
X213566498Y-77030264D01*
X213420827Y-77090602D01*
X213420814Y-77090609D01*
X213289711Y-77178210D01*
X213289707Y-77178213D01*
X213178213Y-77289707D01*
X213178210Y-77289711D01*
X213090609Y-77420814D01*
X213090602Y-77420827D01*
X213030264Y-77566498D01*
X213030261Y-77566510D01*
X212999500Y-77721153D01*
X212999500Y-77875500D01*
X212979815Y-77942539D01*
X212927011Y-77988294D01*
X212875500Y-77999500D01*
X212821155Y-77999500D01*
X212666510Y-78030261D01*
X212666498Y-78030264D01*
X212520827Y-78090602D01*
X212520814Y-78090609D01*
X212389711Y-78178210D01*
X212389707Y-78178213D01*
X212278213Y-78289707D01*
X212278210Y-78289711D01*
X212190609Y-78420814D01*
X212190602Y-78420827D01*
X212130264Y-78566498D01*
X212130261Y-78566510D01*
X212099500Y-78721153D01*
X192200500Y-78721153D01*
X192200500Y-76279765D01*
X192220185Y-76212726D01*
X192221398Y-76210874D01*
X192224386Y-76206403D01*
X192309394Y-76079179D01*
X192369737Y-75933497D01*
X192400500Y-75778842D01*
X192400500Y-75621158D01*
X192400500Y-75621155D01*
X192400499Y-75621153D01*
X192397255Y-75604844D01*
X192369737Y-75466503D01*
X192328314Y-75366498D01*
X192309397Y-75320827D01*
X192309390Y-75320814D01*
X192221789Y-75189711D01*
X192221786Y-75189707D01*
X192110292Y-75078213D01*
X192110288Y-75078210D01*
X191979185Y-74990609D01*
X191979172Y-74990602D01*
X191833501Y-74930264D01*
X191833489Y-74930261D01*
X191678845Y-74899500D01*
X191678842Y-74899500D01*
X191521158Y-74899500D01*
X191521155Y-74899500D01*
X191366510Y-74930261D01*
X191366498Y-74930264D01*
X191220827Y-74990602D01*
X191220814Y-74990609D01*
X191089711Y-75078210D01*
X191089707Y-75078213D01*
X190978213Y-75189707D01*
X190978210Y-75189711D01*
X190890609Y-75320814D01*
X190890602Y-75320827D01*
X190830264Y-75466498D01*
X190830261Y-75466510D01*
X190799500Y-75621153D01*
X171000500Y-75621153D01*
X171000500Y-75521158D01*
X171000500Y-75521155D01*
X171000499Y-75521153D01*
X170969738Y-75366510D01*
X170969737Y-75366503D01*
X170947063Y-75311762D01*
X170909397Y-75220827D01*
X170909394Y-75220822D01*
X170909394Y-75220821D01*
X170908103Y-75218889D01*
X170907737Y-75217723D01*
X170906525Y-75215454D01*
X170906955Y-75215223D01*
X170887226Y-75152214D01*
X170905710Y-75084834D01*
X170908100Y-75081115D01*
X170909394Y-75079179D01*
X170969737Y-74933497D01*
X171000500Y-74778842D01*
X171000500Y-74621158D01*
X171000500Y-74621155D01*
X171000499Y-74621153D01*
X170978977Y-74512956D01*
X170969737Y-74466503D01*
X170956062Y-74433489D01*
X170909397Y-74320827D01*
X170909395Y-74320824D01*
X170909394Y-74320821D01*
X170908103Y-74318889D01*
X170907737Y-74317723D01*
X170906525Y-74315454D01*
X170906955Y-74315223D01*
X170887226Y-74252214D01*
X170905710Y-74184834D01*
X170908077Y-74181149D01*
X170909394Y-74179179D01*
X170969737Y-74033497D01*
X171000500Y-73878842D01*
X171000500Y-73721158D01*
X171000500Y-73721155D01*
X171000499Y-73721153D01*
X170980647Y-73621350D01*
X170969737Y-73566503D01*
X170916608Y-73438237D01*
X170909397Y-73420827D01*
X170909390Y-73420814D01*
X170821789Y-73289711D01*
X170821786Y-73289707D01*
X170710292Y-73178213D01*
X170710288Y-73178210D01*
X170579185Y-73090609D01*
X170579172Y-73090602D01*
X170433501Y-73030264D01*
X170433489Y-73030261D01*
X170278845Y-72999500D01*
X170278842Y-72999500D01*
X170121158Y-72999500D01*
X170121155Y-72999500D01*
X169966510Y-73030261D01*
X169966498Y-73030264D01*
X169820822Y-73090604D01*
X169820820Y-73090605D01*
X169818885Y-73091899D01*
X169817717Y-73092264D01*
X169815451Y-73093476D01*
X169815221Y-73093045D01*
X169752206Y-73112773D01*
X169684827Y-73094285D01*
X169681115Y-73091899D01*
X169679179Y-73090605D01*
X169679177Y-73090604D01*
X169533501Y-73030264D01*
X169533489Y-73030261D01*
X169378845Y-72999500D01*
X169378842Y-72999500D01*
X169221889Y-72999500D01*
X169154850Y-72979815D01*
X169109095Y-72927011D01*
X169099151Y-72857853D01*
X169128176Y-72794297D01*
X169134208Y-72787819D01*
X169188538Y-72733489D01*
X169244517Y-72677510D01*
X169383343Y-72486433D01*
X169490568Y-72275992D01*
X169563553Y-72051368D01*
X169566383Y-72033501D01*
X169600500Y-71818097D01*
X169600500Y-71581902D01*
X169563553Y-71348631D01*
X169507460Y-71175996D01*
X169490568Y-71124008D01*
X169490566Y-71124005D01*
X169490566Y-71124003D01*
X169416602Y-70978842D01*
X169383343Y-70913567D01*
X169244517Y-70722490D01*
X169077510Y-70555483D01*
X168886433Y-70416657D01*
X168823977Y-70384834D01*
X168675996Y-70309433D01*
X168451368Y-70236446D01*
X168218097Y-70199500D01*
X168218092Y-70199500D01*
X167981908Y-70199500D01*
X167981903Y-70199500D01*
X167748631Y-70236446D01*
X167524003Y-70309433D01*
X167313566Y-70416657D01*
X167267674Y-70450000D01*
X167122490Y-70555483D01*
X167122488Y-70555485D01*
X167122487Y-70555485D01*
X166955485Y-70722487D01*
X166955485Y-70722488D01*
X166955483Y-70722490D01*
X166895862Y-70804550D01*
X166816657Y-70913566D01*
X166709433Y-71124003D01*
X166636446Y-71348631D01*
X166599500Y-71581902D01*
X158920324Y-71581902D01*
X159010289Y-71521789D01*
X159023367Y-71508711D01*
X159042724Y-71489355D01*
X159121786Y-71410292D01*
X159121789Y-71410289D01*
X159209394Y-71279179D01*
X159269737Y-71133497D01*
X159300500Y-70978842D01*
X159300500Y-70821158D01*
X159300500Y-70821155D01*
X159300499Y-70821153D01*
X159285209Y-70744286D01*
X159269737Y-70666503D01*
X159265173Y-70655485D01*
X159209397Y-70520827D01*
X159209394Y-70520822D01*
X159209394Y-70520821D01*
X159208103Y-70518889D01*
X159207737Y-70517723D01*
X159206525Y-70515454D01*
X159206955Y-70515223D01*
X159187226Y-70452214D01*
X159205710Y-70384834D01*
X159208100Y-70381115D01*
X159209394Y-70379179D01*
X159269737Y-70233497D01*
X159300500Y-70078842D01*
X159300500Y-69921158D01*
X159300500Y-69921155D01*
X159300499Y-69921153D01*
X159299319Y-69915223D01*
X159269737Y-69766503D01*
X159233569Y-69679185D01*
X159220425Y-69647452D01*
X159212956Y-69577983D01*
X159220425Y-69552548D01*
X159242943Y-69498184D01*
X159269737Y-69433497D01*
X159300500Y-69278842D01*
X159300500Y-69121158D01*
X159300500Y-69121155D01*
X159300499Y-69121153D01*
X159285839Y-69047452D01*
X159269737Y-68966503D01*
X159237927Y-68889707D01*
X159220425Y-68847452D01*
X159212956Y-68777983D01*
X159220425Y-68752548D01*
X159246082Y-68690606D01*
X159269737Y-68633497D01*
X159300500Y-68478842D01*
X159300500Y-68321158D01*
X159300500Y-68321155D01*
X159300499Y-68321153D01*
X159285488Y-68245687D01*
X159269737Y-68166503D01*
X159237929Y-68089711D01*
X159209397Y-68020827D01*
X159209390Y-68020814D01*
X159121789Y-67889711D01*
X159121786Y-67889707D01*
X159010292Y-67778213D01*
X159010288Y-67778210D01*
X158934548Y-67727602D01*
X158889743Y-67673990D01*
X158881036Y-67604665D01*
X158911190Y-67541637D01*
X158970634Y-67504918D01*
X159003439Y-67500500D01*
X160596561Y-67500500D01*
X160663600Y-67520185D01*
X160709355Y-67572989D01*
X160719299Y-67642147D01*
X160690274Y-67705703D01*
X160665452Y-67727602D01*
X160589711Y-67778210D01*
X160589707Y-67778213D01*
X160478213Y-67889707D01*
X160478210Y-67889711D01*
X160390609Y-68020814D01*
X160390602Y-68020827D01*
X160330264Y-68166498D01*
X160330261Y-68166510D01*
X160299500Y-68321153D01*
X160299500Y-68478846D01*
X160330260Y-68633488D01*
X160330262Y-68633493D01*
X160330263Y-68633497D01*
X160353918Y-68690606D01*
X160358865Y-68702549D01*
X160366333Y-68772018D01*
X160358865Y-68797447D01*
X160330263Y-68866503D01*
X160330262Y-68866506D01*
X160330260Y-68866511D01*
X160299500Y-69021153D01*
X160299500Y-69178846D01*
X160330261Y-69333489D01*
X160330264Y-69333501D01*
X160390602Y-69479172D01*
X160390609Y-69479185D01*
X160478210Y-69610288D01*
X160478213Y-69610292D01*
X160589707Y-69721786D01*
X160589711Y-69721789D01*
X160720814Y-69809390D01*
X160720827Y-69809397D01*
X160818853Y-69850000D01*
X160866503Y-69869737D01*
X161021153Y-69900499D01*
X161021156Y-69900500D01*
X161021158Y-69900500D01*
X161178844Y-69900500D01*
X161178845Y-69900499D01*
X161333497Y-69869737D01*
X161446166Y-69823067D01*
X161479172Y-69809397D01*
X161479172Y-69809396D01*
X161479179Y-69809394D01*
X161610289Y-69721789D01*
X161721789Y-69610289D01*
X161809394Y-69479179D01*
X161869737Y-69333497D01*
X161900500Y-69178842D01*
X161900500Y-69021158D01*
X161900500Y-69021155D01*
X161900499Y-69021153D01*
X161889627Y-68966498D01*
X161869737Y-68866503D01*
X161841134Y-68797450D01*
X161838663Y-68774468D01*
X161831720Y-68752421D01*
X161834633Y-68736985D01*
X161833666Y-68727984D01*
X161836059Y-68717395D01*
X161838124Y-68709817D01*
X161869737Y-68633497D01*
X161892083Y-68521153D01*
X174299500Y-68521153D01*
X174299500Y-68678846D01*
X174330261Y-68833489D01*
X174330264Y-68833501D01*
X174379574Y-68952548D01*
X174387043Y-69022018D01*
X174379574Y-69047452D01*
X174330264Y-69166498D01*
X174330261Y-69166510D01*
X174299500Y-69321153D01*
X174299500Y-69478846D01*
X174330261Y-69633489D01*
X174330264Y-69633501D01*
X174390604Y-69779177D01*
X174390605Y-69779179D01*
X174391899Y-69781115D01*
X174392264Y-69782282D01*
X174393476Y-69784549D01*
X174393045Y-69784778D01*
X174412773Y-69847794D01*
X174394285Y-69915173D01*
X174391899Y-69918885D01*
X174390605Y-69920820D01*
X174390604Y-69920822D01*
X174330264Y-70066498D01*
X174330261Y-70066510D01*
X174299500Y-70221153D01*
X174299500Y-70378846D01*
X174330261Y-70533489D01*
X174330264Y-70533501D01*
X174379574Y-70652548D01*
X174387043Y-70722018D01*
X174379574Y-70747452D01*
X174330264Y-70866498D01*
X174330261Y-70866510D01*
X174299500Y-71021153D01*
X174299500Y-71178846D01*
X174330261Y-71333489D01*
X174330264Y-71333501D01*
X174390602Y-71479172D01*
X174390609Y-71479185D01*
X174478210Y-71610288D01*
X174478213Y-71610292D01*
X174589707Y-71721786D01*
X174589711Y-71721789D01*
X174720814Y-71809390D01*
X174720827Y-71809397D01*
X174864323Y-71868834D01*
X174866503Y-71869737D01*
X174973982Y-71891116D01*
X175021153Y-71900499D01*
X175021156Y-71900500D01*
X175021158Y-71900500D01*
X175178844Y-71900500D01*
X175178845Y-71900499D01*
X175333497Y-71869737D01*
X175479179Y-71809394D01*
X175481110Y-71808103D01*
X175482276Y-71807737D01*
X175484546Y-71806525D01*
X175484776Y-71806955D01*
X175547786Y-71787226D01*
X175615166Y-71805710D01*
X175618850Y-71808077D01*
X175620821Y-71809394D01*
X175620824Y-71809395D01*
X175620827Y-71809397D01*
X175764323Y-71868834D01*
X175766503Y-71869737D01*
X175873982Y-71891116D01*
X175921153Y-71900499D01*
X175921156Y-71900500D01*
X175921158Y-71900500D01*
X176078844Y-71900500D01*
X176078845Y-71900499D01*
X176233497Y-71869737D01*
X176379179Y-71809394D01*
X176510289Y-71721789D01*
X176550176Y-71681902D01*
X184699500Y-71681902D01*
X184699500Y-71918097D01*
X184736446Y-72151368D01*
X184809433Y-72375996D01*
X184889228Y-72532601D01*
X184916657Y-72586433D01*
X185055483Y-72777510D01*
X185222490Y-72944517D01*
X185413567Y-73083343D01*
X185471327Y-73112773D01*
X185624003Y-73190566D01*
X185624005Y-73190566D01*
X185624008Y-73190568D01*
X185681958Y-73209397D01*
X185848631Y-73263553D01*
X186081903Y-73300500D01*
X186081908Y-73300500D01*
X186318097Y-73300500D01*
X186551368Y-73263553D01*
X186551630Y-73263468D01*
X186775992Y-73190568D01*
X186986433Y-73083343D01*
X187177510Y-72944517D01*
X187344517Y-72777510D01*
X187483343Y-72586433D01*
X187590568Y-72375992D01*
X187663553Y-72151368D01*
X187676482Y-72069737D01*
X187700500Y-71918097D01*
X187700500Y-71681902D01*
X187663553Y-71448631D01*
X187618602Y-71310288D01*
X187590568Y-71224008D01*
X187590566Y-71224005D01*
X187590566Y-71224003D01*
X187494013Y-71034508D01*
X187483343Y-71013567D01*
X187344517Y-70822490D01*
X187177510Y-70655483D01*
X186986433Y-70516657D01*
X186983619Y-70515223D01*
X186775996Y-70409433D01*
X186551368Y-70336446D01*
X186318097Y-70299500D01*
X186318092Y-70299500D01*
X186081908Y-70299500D01*
X186081903Y-70299500D01*
X185848631Y-70336446D01*
X185624003Y-70409433D01*
X185413566Y-70516657D01*
X185346799Y-70565167D01*
X185222490Y-70655483D01*
X185222488Y-70655485D01*
X185222487Y-70655485D01*
X185055485Y-70822487D01*
X185055485Y-70822488D01*
X185055483Y-70822490D01*
X185014541Y-70878842D01*
X184916657Y-71013566D01*
X184809433Y-71224003D01*
X184736446Y-71448631D01*
X184699500Y-71681902D01*
X176550176Y-71681902D01*
X176621789Y-71610289D01*
X176709394Y-71479179D01*
X176769737Y-71333497D01*
X176800500Y-71178842D01*
X176800500Y-71021158D01*
X176800500Y-71021155D01*
X176800499Y-71021153D01*
X176798990Y-71013566D01*
X176769737Y-70866503D01*
X176720425Y-70747452D01*
X176712956Y-70677983D01*
X176720425Y-70652548D01*
X176769735Y-70533501D01*
X176769737Y-70533497D01*
X176800500Y-70378842D01*
X176800500Y-70221158D01*
X176800500Y-70221155D01*
X176800499Y-70221153D01*
X176780734Y-70121789D01*
X176769737Y-70066503D01*
X176763252Y-70050846D01*
X176709397Y-69920827D01*
X176709394Y-69920822D01*
X176709394Y-69920821D01*
X176708103Y-69918889D01*
X176707737Y-69917723D01*
X176706525Y-69915454D01*
X176706955Y-69915223D01*
X176687226Y-69852214D01*
X176705710Y-69784834D01*
X176708100Y-69781115D01*
X176709394Y-69779179D01*
X176710085Y-69777512D01*
X176728319Y-69733489D01*
X176769737Y-69633497D01*
X176800500Y-69478842D01*
X176800500Y-69321158D01*
X176800500Y-69321155D01*
X176800499Y-69321153D01*
X176794958Y-69293297D01*
X176769737Y-69166503D01*
X176757312Y-69136505D01*
X176720425Y-69047452D01*
X176712956Y-68977983D01*
X176720425Y-68952548D01*
X176742191Y-68900000D01*
X176769737Y-68833497D01*
X176800500Y-68678842D01*
X176800500Y-68521158D01*
X176800500Y-68521155D01*
X176800499Y-68521153D01*
X176769737Y-68366503D01*
X176750955Y-68321158D01*
X176709397Y-68220827D01*
X176709390Y-68220814D01*
X176621789Y-68089711D01*
X176621786Y-68089707D01*
X176510292Y-67978213D01*
X176510288Y-67978210D01*
X176379185Y-67890609D01*
X176379172Y-67890602D01*
X176233501Y-67830264D01*
X176233489Y-67830261D01*
X176078845Y-67799500D01*
X176078842Y-67799500D01*
X175921158Y-67799500D01*
X175921155Y-67799500D01*
X175766510Y-67830261D01*
X175766498Y-67830264D01*
X175620822Y-67890604D01*
X175620820Y-67890605D01*
X175618885Y-67891899D01*
X175617717Y-67892264D01*
X175615451Y-67893476D01*
X175615221Y-67893045D01*
X175552206Y-67912773D01*
X175484827Y-67894285D01*
X175481115Y-67891899D01*
X175479179Y-67890605D01*
X175479177Y-67890604D01*
X175333501Y-67830264D01*
X175333489Y-67830261D01*
X175178845Y-67799500D01*
X175178842Y-67799500D01*
X175021158Y-67799500D01*
X175021155Y-67799500D01*
X174866510Y-67830261D01*
X174866498Y-67830264D01*
X174720827Y-67890602D01*
X174720814Y-67890609D01*
X174589711Y-67978210D01*
X174589707Y-67978213D01*
X174478213Y-68089707D01*
X174478210Y-68089711D01*
X174390609Y-68220814D01*
X174390602Y-68220827D01*
X174330264Y-68366498D01*
X174330261Y-68366510D01*
X174299500Y-68521153D01*
X161892083Y-68521153D01*
X161899135Y-68485701D01*
X161900500Y-68478844D01*
X161900500Y-68321155D01*
X161900499Y-68321153D01*
X161885488Y-68245687D01*
X161869737Y-68166503D01*
X161837929Y-68089711D01*
X161809397Y-68020827D01*
X161809390Y-68020814D01*
X161721789Y-67889711D01*
X161721786Y-67889707D01*
X161610292Y-67778213D01*
X161610288Y-67778210D01*
X161534548Y-67727602D01*
X161489743Y-67673990D01*
X161481036Y-67604665D01*
X161511190Y-67541637D01*
X161570634Y-67504918D01*
X161603439Y-67500500D01*
X178097810Y-67500500D01*
X178164849Y-67520185D01*
X178210604Y-67572989D01*
X178220548Y-67642147D01*
X178191523Y-67705703D01*
X178145262Y-67739061D01*
X178020827Y-67790602D01*
X178020814Y-67790609D01*
X177889711Y-67878210D01*
X177889707Y-67878213D01*
X177778213Y-67989707D01*
X177778210Y-67989711D01*
X177690609Y-68120814D01*
X177690602Y-68120827D01*
X177630264Y-68266498D01*
X177630261Y-68266510D01*
X177599500Y-68421153D01*
X177599500Y-68578846D01*
X177630261Y-68733489D01*
X177630264Y-68733501D01*
X177679574Y-68852548D01*
X177687043Y-68922018D01*
X177679574Y-68947452D01*
X177630264Y-69066498D01*
X177630261Y-69066510D01*
X177599500Y-69221153D01*
X177599500Y-69378846D01*
X177630261Y-69533489D01*
X177630264Y-69533501D01*
X177690602Y-69679172D01*
X177690609Y-69679185D01*
X177778210Y-69810288D01*
X177778213Y-69810292D01*
X177889707Y-69921786D01*
X177889711Y-69921789D01*
X178020814Y-70009390D01*
X178020827Y-70009397D01*
X178158683Y-70066498D01*
X178166503Y-70069737D01*
X178321153Y-70100499D01*
X178321156Y-70100500D01*
X178321158Y-70100500D01*
X178478844Y-70100500D01*
X178478845Y-70100499D01*
X178633497Y-70069737D01*
X178772550Y-70012140D01*
X178779172Y-70009397D01*
X178779172Y-70009396D01*
X178779179Y-70009394D01*
X178910289Y-69921789D01*
X179021789Y-69810289D01*
X179109394Y-69679179D01*
X179169737Y-69533497D01*
X179189628Y-69433501D01*
X179192084Y-69421153D01*
X193399500Y-69421153D01*
X193399500Y-69578846D01*
X193430261Y-69733489D01*
X193430264Y-69733501D01*
X193490602Y-69879172D01*
X193490609Y-69879185D01*
X193578210Y-70010288D01*
X193578213Y-70010292D01*
X193689707Y-70121786D01*
X193689711Y-70121789D01*
X193820814Y-70209390D01*
X193820827Y-70209397D01*
X193950808Y-70263236D01*
X193966503Y-70269737D01*
X194116131Y-70299500D01*
X194121153Y-70300499D01*
X194121156Y-70300500D01*
X194121158Y-70300500D01*
X194278844Y-70300500D01*
X194278845Y-70300499D01*
X194433497Y-70269737D01*
X194579179Y-70209394D01*
X194710289Y-70121789D01*
X194794603Y-70037474D01*
X194855924Y-70003991D01*
X194925616Y-70008975D01*
X194981550Y-70050846D01*
X195003900Y-70100965D01*
X195030261Y-70233491D01*
X195030264Y-70233501D01*
X195090602Y-70379172D01*
X195090609Y-70379185D01*
X195125304Y-70431109D01*
X195146182Y-70497786D01*
X195127698Y-70565167D01*
X195125304Y-70568891D01*
X195090609Y-70620814D01*
X195090602Y-70620827D01*
X195030264Y-70766498D01*
X195030261Y-70766510D01*
X194999500Y-70921153D01*
X194999500Y-71078846D01*
X195030261Y-71233489D01*
X195030264Y-71233501D01*
X195079574Y-71352548D01*
X195087043Y-71422018D01*
X195079574Y-71447452D01*
X195030264Y-71566498D01*
X195030261Y-71566510D01*
X194999500Y-71721153D01*
X194999500Y-71878846D01*
X195030261Y-72033489D01*
X195030264Y-72033501D01*
X195079574Y-72152548D01*
X195087043Y-72222018D01*
X195079574Y-72247452D01*
X195030264Y-72366498D01*
X195030261Y-72366510D01*
X194999500Y-72521153D01*
X194999500Y-72678846D01*
X195030261Y-72833489D01*
X195030264Y-72833501D01*
X195079574Y-72952548D01*
X195087043Y-73022018D01*
X195079574Y-73047452D01*
X195030264Y-73166498D01*
X195030261Y-73166510D01*
X194999500Y-73321153D01*
X194999500Y-73478846D01*
X195030261Y-73633489D01*
X195030264Y-73633501D01*
X195079574Y-73752548D01*
X195087043Y-73822018D01*
X195079574Y-73847452D01*
X195030264Y-73966498D01*
X195030261Y-73966510D01*
X194999500Y-74121153D01*
X194999500Y-74278846D01*
X195030261Y-74433489D01*
X195030264Y-74433501D01*
X195090602Y-74579172D01*
X195090609Y-74579185D01*
X195178210Y-74710288D01*
X195178213Y-74710292D01*
X195289707Y-74821786D01*
X195289711Y-74821789D01*
X195420814Y-74909390D01*
X195420827Y-74909397D01*
X195566498Y-74969735D01*
X195566503Y-74969737D01*
X195721153Y-75000499D01*
X195721156Y-75000500D01*
X195721158Y-75000500D01*
X195878844Y-75000500D01*
X195878845Y-75000499D01*
X196033497Y-74969737D01*
X196179179Y-74909394D01*
X196179185Y-74909390D01*
X196310875Y-74821398D01*
X196377553Y-74800520D01*
X196379766Y-74800500D01*
X201020234Y-74800500D01*
X201087273Y-74820185D01*
X201089125Y-74821398D01*
X201220814Y-74909390D01*
X201220827Y-74909397D01*
X201366498Y-74969735D01*
X201366503Y-74969737D01*
X201521153Y-75000499D01*
X201521156Y-75000500D01*
X201521158Y-75000500D01*
X201678844Y-75000500D01*
X201678845Y-75000499D01*
X201833497Y-74969737D01*
X201979179Y-74909394D01*
X202110289Y-74821789D01*
X202221789Y-74710289D01*
X202309394Y-74579179D01*
X202369737Y-74433497D01*
X202396839Y-74297243D01*
X202404259Y-74283059D01*
X202406912Y-74267270D01*
X202411855Y-74261831D01*
X213287050Y-74261831D01*
X213287050Y-74488168D01*
X213322458Y-74711722D01*
X213322458Y-74711725D01*
X213392398Y-74926978D01*
X213392400Y-74926981D01*
X213495155Y-75128650D01*
X213628193Y-75311761D01*
X213788239Y-75471807D01*
X213971350Y-75604845D01*
X214173019Y-75707600D01*
X214173021Y-75707601D01*
X214373801Y-75772837D01*
X214388279Y-75777542D01*
X214611831Y-75812950D01*
X214611832Y-75812950D01*
X214838168Y-75812950D01*
X214838169Y-75812950D01*
X215061721Y-75777542D01*
X215061724Y-75777541D01*
X215061725Y-75777541D01*
X215276978Y-75707601D01*
X215276978Y-75707600D01*
X215276981Y-75707600D01*
X215478650Y-75604845D01*
X215661761Y-75471807D01*
X215821807Y-75311761D01*
X215954845Y-75128650D01*
X216057600Y-74926981D01*
X216082476Y-74850420D01*
X216127541Y-74711725D01*
X216127541Y-74711724D01*
X216127542Y-74711721D01*
X216162950Y-74488169D01*
X216162950Y-74301540D01*
X216519200Y-74301540D01*
X216519200Y-74448459D01*
X216545202Y-74579179D01*
X216547860Y-74592542D01*
X216551156Y-74600499D01*
X216604078Y-74728266D01*
X216604083Y-74728275D01*
X216685698Y-74850419D01*
X216685701Y-74850423D01*
X216789576Y-74954298D01*
X216789580Y-74954301D01*
X216911724Y-75035916D01*
X216911730Y-75035919D01*
X216911731Y-75035920D01*
X217047458Y-75092140D01*
X217191540Y-75120799D01*
X217191544Y-75120800D01*
X217191545Y-75120800D01*
X217338456Y-75120800D01*
X217338457Y-75120799D01*
X217482542Y-75092140D01*
X217618269Y-75035920D01*
X217740420Y-74954301D01*
X217844301Y-74850420D01*
X217925920Y-74728269D01*
X217982140Y-74592542D01*
X218010800Y-74448455D01*
X218010800Y-74301545D01*
X218006743Y-74281148D01*
X218006743Y-74281146D01*
X218002901Y-74261831D01*
X218367050Y-74261831D01*
X218367050Y-74488168D01*
X218402458Y-74711722D01*
X218402458Y-74711725D01*
X218472398Y-74926978D01*
X218472400Y-74926981D01*
X218575155Y-75128650D01*
X218708193Y-75311761D01*
X218868239Y-75471807D01*
X219051350Y-75604845D01*
X219253019Y-75707600D01*
X219253021Y-75707601D01*
X219453801Y-75772837D01*
X219468279Y-75777542D01*
X219691831Y-75812950D01*
X219691832Y-75812950D01*
X219918168Y-75812950D01*
X219918169Y-75812950D01*
X220141721Y-75777542D01*
X220141724Y-75777541D01*
X220141725Y-75777541D01*
X220356978Y-75707601D01*
X220356978Y-75707600D01*
X220356981Y-75707600D01*
X220558650Y-75604845D01*
X220741761Y-75471807D01*
X220901807Y-75311761D01*
X221034845Y-75128650D01*
X221137600Y-74926981D01*
X221162476Y-74850420D01*
X221207541Y-74711725D01*
X221207541Y-74711724D01*
X221207542Y-74711721D01*
X221242950Y-74488169D01*
X221242950Y-74261831D01*
X221207542Y-74038279D01*
X221207541Y-74038275D01*
X221207541Y-74038274D01*
X221137601Y-73823021D01*
X221137599Y-73823018D01*
X221137090Y-73822018D01*
X221034845Y-73621350D01*
X220901807Y-73438239D01*
X220741761Y-73278193D01*
X220558650Y-73145155D01*
X220356981Y-73042400D01*
X220356978Y-73042398D01*
X220141723Y-72972458D01*
X219992686Y-72948852D01*
X219918169Y-72937050D01*
X219691831Y-72937050D01*
X219617313Y-72948852D01*
X219468277Y-72972458D01*
X219468274Y-72972458D01*
X219253021Y-73042398D01*
X219253018Y-73042400D01*
X219051349Y-73145155D01*
X218946878Y-73221058D01*
X218868239Y-73278193D01*
X218868237Y-73278195D01*
X218868236Y-73278195D01*
X218708195Y-73438236D01*
X218708195Y-73438237D01*
X218708193Y-73438239D01*
X218670149Y-73490602D01*
X218575155Y-73621349D01*
X218472400Y-73823018D01*
X218472398Y-73823021D01*
X218402458Y-74038274D01*
X218402458Y-74038277D01*
X218367050Y-74261831D01*
X218002901Y-74261831D01*
X217982141Y-74157465D01*
X217982140Y-74157458D01*
X217925920Y-74021731D01*
X217925919Y-74021730D01*
X217925916Y-74021724D01*
X217844301Y-73899580D01*
X217844298Y-73899576D01*
X217740423Y-73795701D01*
X217740419Y-73795698D01*
X217618275Y-73714083D01*
X217618266Y-73714078D01*
X217482544Y-73657861D01*
X217482545Y-73657861D01*
X217482542Y-73657860D01*
X217482538Y-73657859D01*
X217482534Y-73657858D01*
X217338459Y-73629200D01*
X217338455Y-73629200D01*
X217191545Y-73629200D01*
X217191540Y-73629200D01*
X217047465Y-73657858D01*
X217047455Y-73657861D01*
X216911733Y-73714078D01*
X216911724Y-73714083D01*
X216789580Y-73795698D01*
X216789576Y-73795701D01*
X216685701Y-73899576D01*
X216685698Y-73899580D01*
X216604083Y-74021724D01*
X216604078Y-74021733D01*
X216547861Y-74157455D01*
X216547858Y-74157465D01*
X216519200Y-74301540D01*
X216162950Y-74301540D01*
X216162950Y-74261831D01*
X216127542Y-74038279D01*
X216127541Y-74038275D01*
X216127541Y-74038274D01*
X216057601Y-73823021D01*
X216057599Y-73823018D01*
X216057090Y-73822018D01*
X215954845Y-73621350D01*
X215821807Y-73438239D01*
X215661761Y-73278193D01*
X215478650Y-73145155D01*
X215276981Y-73042400D01*
X215276978Y-73042398D01*
X215061723Y-72972458D01*
X214912686Y-72948852D01*
X214838169Y-72937050D01*
X214611831Y-72937050D01*
X214537313Y-72948852D01*
X214388277Y-72972458D01*
X214388274Y-72972458D01*
X214173021Y-73042398D01*
X214173018Y-73042400D01*
X213971349Y-73145155D01*
X213866878Y-73221058D01*
X213788239Y-73278193D01*
X213788237Y-73278195D01*
X213788236Y-73278195D01*
X213628195Y-73438236D01*
X213628195Y-73438237D01*
X213628193Y-73438239D01*
X213590149Y-73490602D01*
X213495155Y-73621349D01*
X213392400Y-73823018D01*
X213392398Y-73823021D01*
X213322458Y-74038274D01*
X213322458Y-74038277D01*
X213287050Y-74261831D01*
X202411855Y-74261831D01*
X202420120Y-74252736D01*
X202429223Y-74235334D01*
X202443679Y-74226813D01*
X202453903Y-74215564D01*
X202480113Y-74205339D01*
X202486346Y-74201666D01*
X202490695Y-74200500D01*
X202490842Y-74200500D01*
X202645497Y-74169737D01*
X202791179Y-74109394D01*
X202922289Y-74021789D01*
X203033789Y-73910289D01*
X203121394Y-73779179D01*
X203181737Y-73633497D01*
X203209828Y-73492273D01*
X203242212Y-73430363D01*
X203302928Y-73395789D01*
X203307187Y-73394861D01*
X203433497Y-73369737D01*
X203579179Y-73309394D01*
X203710289Y-73221789D01*
X203821789Y-73110289D01*
X203909394Y-72979179D01*
X203969737Y-72833497D01*
X203974505Y-72809524D01*
X203996231Y-72700308D01*
X204028616Y-72638397D01*
X204089332Y-72603823D01*
X204117848Y-72600500D01*
X204128844Y-72600500D01*
X204128845Y-72600499D01*
X204283497Y-72569737D01*
X204429179Y-72509394D01*
X204560289Y-72421789D01*
X204671789Y-72310289D01*
X204759394Y-72179179D01*
X204819737Y-72033497D01*
X204850500Y-71878842D01*
X204850500Y-71724500D01*
X204870185Y-71657461D01*
X204922989Y-71611706D01*
X204974500Y-71600500D01*
X205078844Y-71600500D01*
X205078845Y-71600499D01*
X205233497Y-71569737D01*
X205379179Y-71509394D01*
X205510289Y-71421789D01*
X205621789Y-71310289D01*
X205709394Y-71179179D01*
X205710713Y-71175996D01*
X205732248Y-71124003D01*
X205747645Y-71086831D01*
X213287050Y-71086831D01*
X213287050Y-71313169D01*
X213292667Y-71348631D01*
X213322458Y-71536722D01*
X213322458Y-71536725D01*
X213392398Y-71751978D01*
X213392400Y-71751981D01*
X213495155Y-71953650D01*
X213628193Y-72136761D01*
X213788239Y-72296807D01*
X213971350Y-72429845D01*
X214173019Y-72532600D01*
X214173021Y-72532601D01*
X214315344Y-72578844D01*
X214388279Y-72602542D01*
X214611831Y-72637950D01*
X214611832Y-72637950D01*
X214838168Y-72637950D01*
X214838169Y-72637950D01*
X215061721Y-72602542D01*
X215061724Y-72602541D01*
X215061725Y-72602541D01*
X215276978Y-72532601D01*
X215276978Y-72532600D01*
X215276981Y-72532600D01*
X215478650Y-72429845D01*
X215661761Y-72296807D01*
X215821807Y-72136761D01*
X215954845Y-71953650D01*
X216057600Y-71751981D01*
X216060026Y-71744514D01*
X216127541Y-71536725D01*
X216127541Y-71536724D01*
X216127542Y-71536721D01*
X216162950Y-71313169D01*
X216162950Y-71086831D01*
X218367050Y-71086831D01*
X218367050Y-71313169D01*
X218372667Y-71348631D01*
X218402458Y-71536722D01*
X218402458Y-71536725D01*
X218472398Y-71751978D01*
X218472400Y-71751981D01*
X218575155Y-71953650D01*
X218708193Y-72136761D01*
X218868239Y-72296807D01*
X219051350Y-72429845D01*
X219253019Y-72532600D01*
X219253021Y-72532601D01*
X219395344Y-72578844D01*
X219468279Y-72602542D01*
X219691831Y-72637950D01*
X219691832Y-72637950D01*
X219918168Y-72637950D01*
X219918169Y-72637950D01*
X220141721Y-72602542D01*
X220141724Y-72602541D01*
X220141725Y-72602541D01*
X220356978Y-72532601D01*
X220356978Y-72532600D01*
X220356981Y-72532600D01*
X220558650Y-72429845D01*
X220741761Y-72296807D01*
X220901807Y-72136761D01*
X221034845Y-71953650D01*
X221137600Y-71751981D01*
X221140026Y-71744514D01*
X221207541Y-71536725D01*
X221207541Y-71536724D01*
X221207542Y-71536721D01*
X221242950Y-71313169D01*
X221242950Y-71086831D01*
X221207542Y-70863279D01*
X221207541Y-70863275D01*
X221207541Y-70863274D01*
X221137601Y-70648021D01*
X221137599Y-70648018D01*
X221129840Y-70632789D01*
X221034845Y-70446350D01*
X220901807Y-70263239D01*
X220741761Y-70103193D01*
X220558650Y-69970155D01*
X220356981Y-69867400D01*
X220356978Y-69867398D01*
X220141723Y-69797458D01*
X219992686Y-69773852D01*
X219918169Y-69762050D01*
X219691831Y-69762050D01*
X219617313Y-69773852D01*
X219468277Y-69797458D01*
X219468274Y-69797458D01*
X219253021Y-69867398D01*
X219253018Y-69867400D01*
X219051349Y-69970155D01*
X218950189Y-70043653D01*
X218868239Y-70103193D01*
X218868237Y-70103195D01*
X218868236Y-70103195D01*
X218708195Y-70263236D01*
X218708195Y-70263237D01*
X218708193Y-70263239D01*
X218674632Y-70309432D01*
X218575155Y-70446349D01*
X218472400Y-70648018D01*
X218472398Y-70648021D01*
X218402458Y-70863274D01*
X218402458Y-70863277D01*
X218378654Y-71013566D01*
X218367050Y-71086831D01*
X216162950Y-71086831D01*
X216127542Y-70863279D01*
X216127541Y-70863275D01*
X216127541Y-70863274D01*
X216057601Y-70648021D01*
X216057599Y-70648018D01*
X216049840Y-70632789D01*
X215954845Y-70446350D01*
X215821807Y-70263239D01*
X215661761Y-70103193D01*
X215478650Y-69970155D01*
X215276981Y-69867400D01*
X215276978Y-69867398D01*
X215061723Y-69797458D01*
X214912686Y-69773852D01*
X214838169Y-69762050D01*
X214611831Y-69762050D01*
X214537313Y-69773852D01*
X214388277Y-69797458D01*
X214388274Y-69797458D01*
X214173021Y-69867398D01*
X214173018Y-69867400D01*
X213971349Y-69970155D01*
X213870189Y-70043653D01*
X213788239Y-70103193D01*
X213788237Y-70103195D01*
X213788236Y-70103195D01*
X213628195Y-70263236D01*
X213628195Y-70263237D01*
X213628193Y-70263239D01*
X213594632Y-70309432D01*
X213495155Y-70446349D01*
X213392400Y-70648018D01*
X213392398Y-70648021D01*
X213322458Y-70863274D01*
X213322458Y-70863277D01*
X213298654Y-71013566D01*
X213287050Y-71086831D01*
X205747645Y-71086831D01*
X205769737Y-71033497D01*
X205800500Y-70878842D01*
X205800500Y-70724500D01*
X205803050Y-70715814D01*
X205801762Y-70706853D01*
X205812740Y-70682812D01*
X205820185Y-70657461D01*
X205827025Y-70651533D01*
X205830787Y-70643297D01*
X205853021Y-70629007D01*
X205872989Y-70611706D01*
X205883503Y-70609418D01*
X205889565Y-70605523D01*
X205924500Y-70600500D01*
X206017059Y-70600500D01*
X206084098Y-70620185D01*
X206104740Y-70636819D01*
X206212207Y-70744286D01*
X206212211Y-70744289D01*
X206343314Y-70831890D01*
X206343327Y-70831897D01*
X206456664Y-70878842D01*
X206489003Y-70892237D01*
X206634373Y-70921153D01*
X206643653Y-70922999D01*
X206643656Y-70923000D01*
X206643658Y-70923000D01*
X206801344Y-70923000D01*
X206801345Y-70922999D01*
X206955997Y-70892237D01*
X207101679Y-70831894D01*
X207232789Y-70744289D01*
X207344289Y-70632789D01*
X207431894Y-70501679D01*
X207432590Y-70500000D01*
X207470103Y-70409433D01*
X207492237Y-70355997D01*
X207523000Y-70201342D01*
X207523000Y-70043658D01*
X207523000Y-70043655D01*
X207522999Y-70043653D01*
X207492237Y-69889003D01*
X207460991Y-69813567D01*
X207431897Y-69743327D01*
X207431890Y-69743314D01*
X207344289Y-69612211D01*
X207344286Y-69612207D01*
X207232792Y-69500713D01*
X207232788Y-69500710D01*
X207101685Y-69413109D01*
X207101672Y-69413102D01*
X206956001Y-69352764D01*
X206955991Y-69352761D01*
X206877106Y-69337070D01*
X206877105Y-69337069D01*
X206801345Y-69322000D01*
X206801342Y-69322000D01*
X206643658Y-69322000D01*
X206643655Y-69322000D01*
X206489010Y-69352761D01*
X206489002Y-69352763D01*
X206451119Y-69368455D01*
X206398955Y-69390061D01*
X206351505Y-69399500D01*
X204317848Y-69399500D01*
X204250809Y-69379815D01*
X204205054Y-69327011D01*
X204196231Y-69299692D01*
X204180685Y-69221540D01*
X215503200Y-69221540D01*
X215503200Y-69368459D01*
X215531858Y-69512534D01*
X215531861Y-69512544D01*
X215588078Y-69648266D01*
X215588083Y-69648275D01*
X215669698Y-69770419D01*
X215669701Y-69770423D01*
X215773576Y-69874298D01*
X215773580Y-69874301D01*
X215895724Y-69955916D01*
X215895730Y-69955919D01*
X215895731Y-69955920D01*
X216031458Y-70012140D01*
X216158834Y-70037476D01*
X216175540Y-70040799D01*
X216175544Y-70040800D01*
X216175545Y-70040800D01*
X216322456Y-70040800D01*
X216322457Y-70040799D01*
X216466542Y-70012140D01*
X216602269Y-69955920D01*
X216724420Y-69874301D01*
X216828301Y-69770420D01*
X216909920Y-69648269D01*
X216966140Y-69512542D01*
X216994800Y-69368455D01*
X216994800Y-69221545D01*
X216994799Y-69221540D01*
X217535200Y-69221540D01*
X217535200Y-69368459D01*
X217563858Y-69512534D01*
X217563861Y-69512544D01*
X217620078Y-69648266D01*
X217620083Y-69648275D01*
X217701698Y-69770419D01*
X217701701Y-69770423D01*
X217805576Y-69874298D01*
X217805580Y-69874301D01*
X217927724Y-69955916D01*
X217927730Y-69955919D01*
X217927731Y-69955920D01*
X218063458Y-70012140D01*
X218190834Y-70037476D01*
X218207540Y-70040799D01*
X218207544Y-70040800D01*
X218207545Y-70040800D01*
X218354456Y-70040800D01*
X218354457Y-70040799D01*
X218498542Y-70012140D01*
X218634269Y-69955920D01*
X218756420Y-69874301D01*
X218860301Y-69770420D01*
X218941920Y-69648269D01*
X218998140Y-69512542D01*
X219026800Y-69368455D01*
X219026800Y-69221545D01*
X218998140Y-69077458D01*
X218941920Y-68941731D01*
X218941919Y-68941730D01*
X218941916Y-68941724D01*
X218860301Y-68819580D01*
X218860298Y-68819576D01*
X218756423Y-68715701D01*
X218756419Y-68715698D01*
X218634275Y-68634083D01*
X218634266Y-68634078D01*
X218500922Y-68578846D01*
X218498542Y-68577860D01*
X218498538Y-68577859D01*
X218498534Y-68577858D01*
X218354459Y-68549200D01*
X218354455Y-68549200D01*
X218207545Y-68549200D01*
X218207540Y-68549200D01*
X218063465Y-68577858D01*
X218063455Y-68577861D01*
X217927733Y-68634078D01*
X217927724Y-68634083D01*
X217805580Y-68715698D01*
X217805576Y-68715701D01*
X217701701Y-68819576D01*
X217701698Y-68819580D01*
X217620083Y-68941724D01*
X217620078Y-68941733D01*
X217563861Y-69077455D01*
X217563858Y-69077465D01*
X217535200Y-69221540D01*
X216994799Y-69221540D01*
X216966140Y-69077458D01*
X216909920Y-68941731D01*
X216909919Y-68941730D01*
X216909916Y-68941724D01*
X216828301Y-68819580D01*
X216828298Y-68819576D01*
X216724423Y-68715701D01*
X216724419Y-68715698D01*
X216602275Y-68634083D01*
X216602266Y-68634078D01*
X216468922Y-68578846D01*
X216466542Y-68577860D01*
X216466538Y-68577859D01*
X216466534Y-68577858D01*
X216322459Y-68549200D01*
X216322455Y-68549200D01*
X216175545Y-68549200D01*
X216175540Y-68549200D01*
X216031465Y-68577858D01*
X216031455Y-68577861D01*
X215895733Y-68634078D01*
X215895724Y-68634083D01*
X215773580Y-68715698D01*
X215773576Y-68715701D01*
X215669701Y-68819576D01*
X215669698Y-68819580D01*
X215588083Y-68941724D01*
X215588078Y-68941733D01*
X215531861Y-69077455D01*
X215531858Y-69077465D01*
X215503200Y-69221540D01*
X204180685Y-69221540D01*
X204169738Y-69166508D01*
X204169737Y-69166507D01*
X204169737Y-69166503D01*
X204163468Y-69151368D01*
X204109397Y-69020827D01*
X204109390Y-69020814D01*
X204021789Y-68889711D01*
X204021786Y-68889707D01*
X203910292Y-68778213D01*
X203910288Y-68778210D01*
X203779185Y-68690609D01*
X203779172Y-68690602D01*
X203633501Y-68630264D01*
X203633489Y-68630261D01*
X203478845Y-68599500D01*
X203478842Y-68599500D01*
X203321158Y-68599500D01*
X203321155Y-68599500D01*
X203166510Y-68630261D01*
X203166498Y-68630264D01*
X203020827Y-68690602D01*
X203020814Y-68690609D01*
X202889125Y-68778602D01*
X202822447Y-68799480D01*
X202820234Y-68799500D01*
X194625316Y-68799500D01*
X194577864Y-68790061D01*
X194433501Y-68730264D01*
X194433489Y-68730261D01*
X194278845Y-68699500D01*
X194278842Y-68699500D01*
X194121158Y-68699500D01*
X194121155Y-68699500D01*
X193966510Y-68730261D01*
X193966498Y-68730264D01*
X193820827Y-68790602D01*
X193820814Y-68790609D01*
X193689711Y-68878210D01*
X193689707Y-68878213D01*
X193578213Y-68989707D01*
X193578210Y-68989711D01*
X193490609Y-69120814D01*
X193490602Y-69120827D01*
X193430264Y-69266498D01*
X193430261Y-69266510D01*
X193399500Y-69421153D01*
X179192084Y-69421153D01*
X179198107Y-69390875D01*
X179198107Y-69390874D01*
X179200500Y-69378844D01*
X179200500Y-69221155D01*
X179200499Y-69221153D01*
X179196039Y-69198732D01*
X179169737Y-69066503D01*
X179134919Y-68982444D01*
X179120425Y-68947452D01*
X179112956Y-68877983D01*
X179120425Y-68852548D01*
X179146082Y-68790606D01*
X179169737Y-68733497D01*
X179200500Y-68578842D01*
X179200500Y-68421158D01*
X179200500Y-68421155D01*
X179200499Y-68421153D01*
X179189627Y-68366498D01*
X179169737Y-68266503D01*
X179140971Y-68197054D01*
X179109397Y-68120827D01*
X179109390Y-68120814D01*
X179021789Y-67989711D01*
X179021786Y-67989707D01*
X178910292Y-67878213D01*
X178910288Y-67878210D01*
X178779185Y-67790609D01*
X178779172Y-67790602D01*
X178654738Y-67739061D01*
X178600334Y-67695221D01*
X178578269Y-67628926D01*
X178595548Y-67561227D01*
X178646685Y-67513616D01*
X178702190Y-67500500D01*
X229175500Y-67500500D01*
X229242539Y-67520185D01*
X229288294Y-67572989D01*
X229299500Y-67624500D01*
X229299500Y-89514349D01*
X229279815Y-89581388D01*
X229227011Y-89627143D01*
X229157853Y-89637087D01*
X229094297Y-89608062D01*
X229081206Y-89593800D01*
X229080725Y-89594212D01*
X229077554Y-89590500D01*
X228949499Y-89462445D01*
X228949494Y-89462441D01*
X228802997Y-89356006D01*
X228802996Y-89356005D01*
X228802994Y-89356004D01*
X228751300Y-89329664D01*
X228641639Y-89273788D01*
X228641636Y-89273787D01*
X228469410Y-89217829D01*
X228290551Y-89189500D01*
X228290546Y-89189500D01*
X227309454Y-89189500D01*
X227309449Y-89189500D01*
X227130589Y-89217829D01*
X226958363Y-89273787D01*
X226958360Y-89273788D01*
X226797002Y-89356006D01*
X226650505Y-89462441D01*
X226650500Y-89462445D01*
X226522445Y-89590500D01*
X226522441Y-89590505D01*
X226416006Y-89737002D01*
X226333788Y-89898360D01*
X226333787Y-89898363D01*
X226277829Y-90070589D01*
X226249500Y-90249448D01*
X226249500Y-90430551D01*
X226277829Y-90609410D01*
X226333787Y-90781636D01*
X226333788Y-90781639D01*
X226358757Y-90830642D01*
X226405199Y-90921789D01*
X226416006Y-90942997D01*
X226522441Y-91089494D01*
X226522445Y-91089499D01*
X226650500Y-91217554D01*
X226650505Y-91217558D01*
X226751043Y-91290602D01*
X226797006Y-91323996D01*
X226894019Y-91373427D01*
X226958360Y-91406211D01*
X226958363Y-91406212D01*
X227032387Y-91430263D01*
X227130591Y-91462171D01*
X227213429Y-91475291D01*
X227309449Y-91490500D01*
X227309454Y-91490500D01*
X228290551Y-91490500D01*
X228377259Y-91476765D01*
X228469409Y-91462171D01*
X228641639Y-91406211D01*
X228802994Y-91323996D01*
X228949501Y-91217553D01*
X229077553Y-91089501D01*
X229077558Y-91089494D01*
X229080725Y-91085788D01*
X229082398Y-91087217D01*
X229130445Y-91050125D01*
X229200055Y-91044106D01*
X229261869Y-91076676D01*
X229296261Y-91137495D01*
X229299500Y-91165650D01*
X229299500Y-92226627D01*
X229279815Y-92293666D01*
X229227011Y-92339421D01*
X229157853Y-92349365D01*
X229094297Y-92320340D01*
X229072398Y-92295518D01*
X229002951Y-92191584D01*
X229002948Y-92191580D01*
X228898419Y-92087051D01*
X228898415Y-92087048D01*
X228775501Y-92004919D01*
X228775488Y-92004912D01*
X228638917Y-91948343D01*
X228638907Y-91948340D01*
X228493920Y-91919500D01*
X228493918Y-91919500D01*
X228346082Y-91919500D01*
X228346080Y-91919500D01*
X228201092Y-91948340D01*
X228201082Y-91948343D01*
X228064511Y-92004912D01*
X228064498Y-92004919D01*
X227941584Y-92087048D01*
X227941580Y-92087051D01*
X227837051Y-92191580D01*
X227837048Y-92191584D01*
X227754919Y-92314498D01*
X227754912Y-92314511D01*
X227698343Y-92451082D01*
X227698340Y-92451092D01*
X227669500Y-92596079D01*
X227669500Y-92596082D01*
X227669500Y-92743918D01*
X227669500Y-92743920D01*
X227669499Y-92743920D01*
X227698340Y-92888907D01*
X227698343Y-92888917D01*
X227754912Y-93025488D01*
X227754919Y-93025501D01*
X227837048Y-93148415D01*
X227837051Y-93148419D01*
X227941580Y-93252948D01*
X227941584Y-93252951D01*
X228064498Y-93335080D01*
X228064511Y-93335087D01*
X228201082Y-93391656D01*
X228201087Y-93391658D01*
X228201091Y-93391658D01*
X228201092Y-93391659D01*
X228346079Y-93420500D01*
X228346082Y-93420500D01*
X228493920Y-93420500D01*
X228617195Y-93395978D01*
X228638913Y-93391658D01*
X228761326Y-93340953D01*
X228775488Y-93335087D01*
X228775488Y-93335086D01*
X228775495Y-93335084D01*
X228898416Y-93252951D01*
X229002951Y-93148416D01*
X229049436Y-93078846D01*
X229072398Y-93044482D01*
X229126010Y-92999676D01*
X229195335Y-92990969D01*
X229258362Y-93021123D01*
X229295082Y-93080566D01*
X229299500Y-93113372D01*
X229299500Y-96226627D01*
X229279815Y-96293666D01*
X229227011Y-96339421D01*
X229157853Y-96349365D01*
X229094297Y-96320340D01*
X229072398Y-96295518D01*
X229002951Y-96191584D01*
X229002948Y-96191580D01*
X228898419Y-96087051D01*
X228898415Y-96087048D01*
X228775501Y-96004919D01*
X228775488Y-96004912D01*
X228638917Y-95948343D01*
X228638907Y-95948340D01*
X228493920Y-95919500D01*
X228493918Y-95919500D01*
X228346082Y-95919500D01*
X228346080Y-95919500D01*
X228201092Y-95948340D01*
X228201082Y-95948343D01*
X228064511Y-96004912D01*
X228064498Y-96004919D01*
X227941584Y-96087048D01*
X227941580Y-96087051D01*
X227837051Y-96191580D01*
X227837048Y-96191584D01*
X227754919Y-96314498D01*
X227754912Y-96314511D01*
X227698343Y-96451082D01*
X227698340Y-96451092D01*
X227669500Y-96596079D01*
X227669500Y-96596082D01*
X227669500Y-96743918D01*
X227669500Y-96743920D01*
X227669499Y-96743920D01*
X227698340Y-96888907D01*
X227698343Y-96888917D01*
X227754912Y-97025488D01*
X227754919Y-97025501D01*
X227837048Y-97148415D01*
X227837051Y-97148419D01*
X227941580Y-97252948D01*
X227941584Y-97252951D01*
X228064498Y-97335080D01*
X228064511Y-97335087D01*
X228140381Y-97366513D01*
X228201087Y-97391658D01*
X228201091Y-97391658D01*
X228201092Y-97391659D01*
X228346079Y-97420500D01*
X228346082Y-97420500D01*
X228493920Y-97420500D01*
X228591462Y-97401096D01*
X228638913Y-97391658D01*
X228775495Y-97335084D01*
X228898416Y-97252951D01*
X229002951Y-97148416D01*
X229049859Y-97078213D01*
X229072398Y-97044482D01*
X229126010Y-96999676D01*
X229195335Y-96990969D01*
X229258362Y-97021123D01*
X229295082Y-97080566D01*
X229299500Y-97113372D01*
X229299500Y-98174349D01*
X229279815Y-98241388D01*
X229227011Y-98287143D01*
X229157853Y-98297087D01*
X229094297Y-98268062D01*
X229081206Y-98253800D01*
X229080725Y-98254212D01*
X229077554Y-98250500D01*
X228949499Y-98122445D01*
X228949494Y-98122441D01*
X228802997Y-98016006D01*
X228802996Y-98016005D01*
X228802994Y-98016004D01*
X228730739Y-97979188D01*
X228641639Y-97933788D01*
X228641636Y-97933787D01*
X228469410Y-97877829D01*
X228290551Y-97849500D01*
X228290546Y-97849500D01*
X227309454Y-97849500D01*
X227309449Y-97849500D01*
X227130589Y-97877829D01*
X226958363Y-97933787D01*
X226958360Y-97933788D01*
X226797002Y-98016006D01*
X226650505Y-98122441D01*
X226650500Y-98122445D01*
X226522445Y-98250500D01*
X226522441Y-98250505D01*
X226416006Y-98397002D01*
X226333788Y-98558360D01*
X226333787Y-98558363D01*
X226277829Y-98730589D01*
X226249500Y-98909448D01*
X226249500Y-99090551D01*
X226277829Y-99269410D01*
X226333787Y-99441636D01*
X226333788Y-99441639D01*
X226389664Y-99551300D01*
X226414478Y-99600000D01*
X226416006Y-99602997D01*
X226522441Y-99749494D01*
X226522445Y-99749499D01*
X226650500Y-99877554D01*
X226650505Y-99877558D01*
X226724858Y-99931578D01*
X226797006Y-99983996D01*
X226902415Y-100037705D01*
X226958360Y-100066211D01*
X226958363Y-100066212D01*
X227044476Y-100094191D01*
X227130591Y-100122171D01*
X227213429Y-100135291D01*
X227309449Y-100150500D01*
X227309454Y-100150500D01*
X228290551Y-100150500D01*
X228377259Y-100136765D01*
X228469409Y-100122171D01*
X228641639Y-100066211D01*
X228802994Y-99983996D01*
X228949501Y-99877553D01*
X229077553Y-99749501D01*
X229077558Y-99749494D01*
X229080725Y-99745788D01*
X229082398Y-99747217D01*
X229130445Y-99710125D01*
X229200055Y-99704106D01*
X229261869Y-99736676D01*
X229296261Y-99797495D01*
X229299500Y-99825650D01*
X229299500Y-122575500D01*
X229279815Y-122642539D01*
X229227011Y-122688294D01*
X229175500Y-122699500D01*
X123724500Y-122699500D01*
X123657461Y-122679815D01*
X123611706Y-122627011D01*
X123600500Y-122575500D01*
X123600500Y-117421153D01*
X141099500Y-117421153D01*
X141099500Y-117578846D01*
X141130261Y-117733489D01*
X141130264Y-117733501D01*
X141190602Y-117879172D01*
X141190609Y-117879185D01*
X141278210Y-118010288D01*
X141278213Y-118010292D01*
X141389707Y-118121786D01*
X141389711Y-118121789D01*
X141520814Y-118209390D01*
X141520827Y-118209397D01*
X141666498Y-118269735D01*
X141666503Y-118269737D01*
X141821153Y-118300499D01*
X141821156Y-118300500D01*
X141821158Y-118300500D01*
X141978844Y-118300500D01*
X141978845Y-118300499D01*
X142133497Y-118269737D01*
X142279179Y-118209394D01*
X142410289Y-118121789D01*
X142521789Y-118010289D01*
X142609394Y-117879179D01*
X142633429Y-117821153D01*
X191599500Y-117821153D01*
X191599500Y-117978846D01*
X191630261Y-118133489D01*
X191630264Y-118133501D01*
X191690602Y-118279172D01*
X191690609Y-118279185D01*
X191778210Y-118410288D01*
X191778213Y-118410292D01*
X191889707Y-118521786D01*
X191889711Y-118521789D01*
X192020814Y-118609390D01*
X192020827Y-118609397D01*
X192166498Y-118669735D01*
X192166503Y-118669737D01*
X192321153Y-118700499D01*
X192321156Y-118700500D01*
X192321158Y-118700500D01*
X192478844Y-118700500D01*
X192478845Y-118700499D01*
X192633497Y-118669737D01*
X192779179Y-118609394D01*
X192910289Y-118521789D01*
X193021789Y-118410289D01*
X193109394Y-118279179D01*
X193169737Y-118133497D01*
X193200500Y-117978842D01*
X193200500Y-117821158D01*
X193200500Y-117821155D01*
X193200499Y-117821153D01*
X193169738Y-117666510D01*
X193169737Y-117666503D01*
X193133427Y-117578842D01*
X193109397Y-117520827D01*
X193109390Y-117520814D01*
X193021789Y-117389711D01*
X193021786Y-117389707D01*
X192910292Y-117278213D01*
X192910288Y-117278210D01*
X192779185Y-117190609D01*
X192779172Y-117190602D01*
X192633501Y-117130264D01*
X192633489Y-117130261D01*
X192478845Y-117099500D01*
X192478842Y-117099500D01*
X192321158Y-117099500D01*
X192321155Y-117099500D01*
X192166510Y-117130261D01*
X192166498Y-117130264D01*
X192020827Y-117190602D01*
X192020814Y-117190609D01*
X191889711Y-117278210D01*
X191889707Y-117278213D01*
X191778213Y-117389707D01*
X191778210Y-117389711D01*
X191690609Y-117520814D01*
X191690602Y-117520827D01*
X191630264Y-117666498D01*
X191630261Y-117666510D01*
X191599500Y-117821153D01*
X142633429Y-117821153D01*
X142655603Y-117767621D01*
X142655605Y-117767614D01*
X142669737Y-117733497D01*
X142700500Y-117578842D01*
X142700500Y-117421158D01*
X142700500Y-117421155D01*
X142700499Y-117421153D01*
X142672066Y-117278211D01*
X142669737Y-117266503D01*
X142641983Y-117199498D01*
X142609397Y-117120827D01*
X142609390Y-117120814D01*
X142521789Y-116989711D01*
X142521786Y-116989707D01*
X142410292Y-116878213D01*
X142410288Y-116878210D01*
X142279185Y-116790609D01*
X142279172Y-116790602D01*
X142133501Y-116730264D01*
X142133489Y-116730261D01*
X141978845Y-116699500D01*
X141978842Y-116699500D01*
X141821158Y-116699500D01*
X141821155Y-116699500D01*
X141666510Y-116730261D01*
X141666498Y-116730264D01*
X141520827Y-116790602D01*
X141520814Y-116790609D01*
X141389711Y-116878210D01*
X141389707Y-116878213D01*
X141278213Y-116989707D01*
X141278210Y-116989711D01*
X141190609Y-117120814D01*
X141190602Y-117120827D01*
X141130264Y-117266498D01*
X141130261Y-117266510D01*
X141099500Y-117421153D01*
X123600500Y-117421153D01*
X123600500Y-115391156D01*
X147374499Y-115391156D01*
X147410065Y-115569952D01*
X147410067Y-115569958D01*
X147479835Y-115738394D01*
X147481525Y-115741556D01*
X147481908Y-115743399D01*
X147482164Y-115744016D01*
X147482047Y-115744064D01*
X147495761Y-115809960D01*
X147481525Y-115858444D01*
X147479835Y-115861605D01*
X147410067Y-116030041D01*
X147410065Y-116030047D01*
X147374500Y-116208843D01*
X147374500Y-116208846D01*
X147374500Y-116391154D01*
X147374500Y-116391156D01*
X147374499Y-116391156D01*
X147410065Y-116569952D01*
X147410068Y-116569962D01*
X147479831Y-116738387D01*
X147479833Y-116738391D01*
X147581113Y-116889967D01*
X147581119Y-116889975D01*
X147710024Y-117018880D01*
X147710032Y-117018886D01*
X147861608Y-117120166D01*
X147861612Y-117120168D01*
X148030037Y-117189931D01*
X148030042Y-117189933D01*
X148030046Y-117189933D01*
X148030047Y-117189934D01*
X148208843Y-117225500D01*
X148208846Y-117225500D01*
X148391156Y-117225500D01*
X148522048Y-117199463D01*
X148569958Y-117189933D01*
X148738389Y-117120167D01*
X148738391Y-117120166D01*
X148813672Y-117069864D01*
X148889972Y-117018883D01*
X149018883Y-116889972D01*
X149120167Y-116738389D01*
X149123533Y-116730264D01*
X149163614Y-116633497D01*
X149189933Y-116569958D01*
X149201981Y-116509390D01*
X149225500Y-116391156D01*
X149225500Y-116208843D01*
X149189934Y-116030047D01*
X149189933Y-116030046D01*
X149189933Y-116030042D01*
X149186111Y-116020814D01*
X149120169Y-115861615D01*
X149118482Y-115858459D01*
X149118097Y-115856613D01*
X149117836Y-115855982D01*
X149117857Y-115855973D01*
X149116389Y-115854363D01*
X149110909Y-115822098D01*
X149104236Y-115790057D01*
X149104964Y-115787098D01*
X149104690Y-115785480D01*
X149107825Y-115775489D01*
X149113769Y-115751373D01*
X149117782Y-115741956D01*
X149120167Y-115738389D01*
X149127306Y-115721153D01*
X195999500Y-115721153D01*
X195999500Y-115878846D01*
X196030261Y-116033489D01*
X196030264Y-116033501D01*
X196090602Y-116179172D01*
X196090609Y-116179185D01*
X196178210Y-116310288D01*
X196178213Y-116310292D01*
X196289707Y-116421786D01*
X196289711Y-116421789D01*
X196420814Y-116509390D01*
X196420827Y-116509397D01*
X196566498Y-116569735D01*
X196566503Y-116569737D01*
X196693699Y-116595038D01*
X196721153Y-116600499D01*
X196721156Y-116600500D01*
X196721158Y-116600500D01*
X196878841Y-116600500D01*
X196878842Y-116600500D01*
X196906299Y-116595038D01*
X196975888Y-116601264D01*
X197031067Y-116644125D01*
X197045052Y-116669202D01*
X197090604Y-116779176D01*
X197090609Y-116779185D01*
X197178210Y-116910288D01*
X197178213Y-116910292D01*
X197289707Y-117021786D01*
X197289711Y-117021789D01*
X197420814Y-117109390D01*
X197420827Y-117109397D01*
X197550675Y-117163181D01*
X197566503Y-117169737D01*
X197631147Y-117182595D01*
X197721849Y-117200638D01*
X197783760Y-117233023D01*
X197785339Y-117234574D01*
X198715139Y-118164374D01*
X198715149Y-118164385D01*
X198719479Y-118168715D01*
X198719480Y-118168716D01*
X198831284Y-118280520D01*
X198831286Y-118280521D01*
X198831290Y-118280524D01*
X198901667Y-118321156D01*
X198901671Y-118321157D01*
X198901672Y-118321158D01*
X198968215Y-118359577D01*
X199120943Y-118400501D01*
X199120946Y-118400501D01*
X199286653Y-118400501D01*
X199286669Y-118400500D01*
X200274500Y-118400500D01*
X200283185Y-118403050D01*
X200292147Y-118401762D01*
X200316187Y-118412740D01*
X200341539Y-118420185D01*
X200347466Y-118427025D01*
X200355703Y-118430787D01*
X200369992Y-118453021D01*
X200387294Y-118472989D01*
X200389581Y-118483503D01*
X200393477Y-118489565D01*
X200398500Y-118524500D01*
X200398500Y-118562273D01*
X200398499Y-118562291D01*
X200398499Y-118727997D01*
X200398498Y-118727997D01*
X200439423Y-118880729D01*
X200445935Y-118892007D01*
X200462409Y-118959907D01*
X200439558Y-119025934D01*
X200426231Y-119041689D01*
X200378214Y-119089706D01*
X200378210Y-119089711D01*
X200290609Y-119220814D01*
X200290602Y-119220827D01*
X200230264Y-119366498D01*
X200230261Y-119366510D01*
X200199500Y-119521153D01*
X200199500Y-119678846D01*
X200230261Y-119833489D01*
X200230264Y-119833501D01*
X200290602Y-119979172D01*
X200290609Y-119979185D01*
X200378210Y-120110288D01*
X200378213Y-120110292D01*
X200489707Y-120221786D01*
X200489711Y-120221789D01*
X200620814Y-120309390D01*
X200620827Y-120309397D01*
X200766498Y-120369735D01*
X200766503Y-120369737D01*
X200921153Y-120400499D01*
X200921156Y-120400500D01*
X200921158Y-120400500D01*
X201078844Y-120400500D01*
X201078845Y-120400499D01*
X201233497Y-120369737D01*
X201379179Y-120309394D01*
X201379185Y-120309390D01*
X201510875Y-120221398D01*
X201528921Y-120215747D01*
X201544831Y-120205523D01*
X201575792Y-120201071D01*
X201577553Y-120200520D01*
X201579766Y-120200500D01*
X201730374Y-120200500D01*
X201730390Y-120200501D01*
X201792297Y-120200501D01*
X201859336Y-120220186D01*
X201905091Y-120272990D01*
X201915035Y-120342148D01*
X201913914Y-120348693D01*
X201899500Y-120421155D01*
X201899500Y-120578846D01*
X201930261Y-120733489D01*
X201930264Y-120733501D01*
X201990602Y-120879172D01*
X201990609Y-120879185D01*
X202078210Y-121010288D01*
X202078213Y-121010292D01*
X202189707Y-121121786D01*
X202189711Y-121121789D01*
X202320814Y-121209390D01*
X202320827Y-121209397D01*
X202466498Y-121269735D01*
X202466503Y-121269737D01*
X202621153Y-121300499D01*
X202621156Y-121300500D01*
X202621158Y-121300500D01*
X202778844Y-121300500D01*
X202778845Y-121300499D01*
X202933497Y-121269737D01*
X203079179Y-121209394D01*
X203210289Y-121121789D01*
X203321789Y-121010289D01*
X203409394Y-120879179D01*
X203469737Y-120733497D01*
X203500500Y-120578842D01*
X203500500Y-120421158D01*
X203500500Y-120421155D01*
X203500499Y-120421153D01*
X203478269Y-120309397D01*
X203469737Y-120266503D01*
X203450552Y-120220186D01*
X203409397Y-120120827D01*
X203409390Y-120120814D01*
X203321789Y-119989711D01*
X203321786Y-119989707D01*
X203210292Y-119878213D01*
X203210288Y-119878210D01*
X203079185Y-119790609D01*
X203079172Y-119790602D01*
X202933501Y-119730264D01*
X202933489Y-119730261D01*
X202829490Y-119709574D01*
X202767579Y-119677189D01*
X202733005Y-119616473D01*
X202736744Y-119546704D01*
X202765998Y-119500278D01*
X214080520Y-108185759D01*
X214159577Y-108048827D01*
X214200501Y-107896100D01*
X214200501Y-107737985D01*
X214200501Y-107730390D01*
X214200500Y-107730372D01*
X214200500Y-99979765D01*
X214220185Y-99912726D01*
X214221398Y-99910874D01*
X214243663Y-99877553D01*
X214309394Y-99779179D01*
X214369737Y-99633497D01*
X214400500Y-99478842D01*
X214400500Y-99321158D01*
X214400500Y-99321155D01*
X214400499Y-99321153D01*
X214369737Y-99166503D01*
X214338275Y-99090546D01*
X214309397Y-99020827D01*
X214309387Y-99020809D01*
X214277759Y-98973474D01*
X214277758Y-98973473D01*
X214234977Y-98909448D01*
X221949500Y-98909448D01*
X221949500Y-99090551D01*
X221977829Y-99269410D01*
X222033787Y-99441636D01*
X222033788Y-99441639D01*
X222089664Y-99551300D01*
X222114478Y-99600000D01*
X222116006Y-99602997D01*
X222222441Y-99749494D01*
X222222445Y-99749499D01*
X222350500Y-99877554D01*
X222350505Y-99877558D01*
X222424858Y-99931578D01*
X222497006Y-99983996D01*
X222602415Y-100037705D01*
X222658360Y-100066211D01*
X222658363Y-100066212D01*
X222744476Y-100094191D01*
X222830591Y-100122171D01*
X222913429Y-100135291D01*
X223009449Y-100150500D01*
X223009454Y-100150500D01*
X224190551Y-100150500D01*
X224277259Y-100136765D01*
X224369409Y-100122171D01*
X224541639Y-100066211D01*
X224702994Y-99983996D01*
X224849501Y-99877553D01*
X224977553Y-99749501D01*
X225083996Y-99602994D01*
X225166211Y-99441639D01*
X225222171Y-99269409D01*
X225238470Y-99166503D01*
X225250500Y-99090551D01*
X225250500Y-98909448D01*
X225234019Y-98805397D01*
X225222171Y-98730591D01*
X225166211Y-98558361D01*
X225166211Y-98558360D01*
X225137740Y-98502484D01*
X225083996Y-98397006D01*
X225011401Y-98297087D01*
X224977558Y-98250505D01*
X224977554Y-98250500D01*
X224849499Y-98122445D01*
X224849494Y-98122441D01*
X224702995Y-98016004D01*
X224656686Y-97992408D01*
X224605891Y-97944434D01*
X224589096Y-97876612D01*
X224605594Y-97819925D01*
X224632984Y-97772485D01*
X224670500Y-97632475D01*
X224670500Y-97487525D01*
X224632984Y-97347515D01*
X224578387Y-97252951D01*
X224560511Y-97221988D01*
X224560506Y-97221982D01*
X224458017Y-97119493D01*
X224458011Y-97119488D01*
X224332488Y-97047017D01*
X224332489Y-97047017D01*
X224321006Y-97043940D01*
X224192475Y-97009500D01*
X224047525Y-97009500D01*
X223918993Y-97043940D01*
X223907511Y-97047017D01*
X223781988Y-97119488D01*
X223781982Y-97119493D01*
X223679493Y-97221982D01*
X223679488Y-97221988D01*
X223607017Y-97347511D01*
X223607016Y-97347515D01*
X223569500Y-97487525D01*
X223569500Y-97632475D01*
X223581926Y-97678849D01*
X223585827Y-97693407D01*
X223584164Y-97763256D01*
X223545001Y-97821119D01*
X223480773Y-97848623D01*
X223466052Y-97849500D01*
X223009449Y-97849500D01*
X222830589Y-97877829D01*
X222658363Y-97933787D01*
X222658360Y-97933788D01*
X222497002Y-98016006D01*
X222350505Y-98122441D01*
X222350500Y-98122445D01*
X222222445Y-98250500D01*
X222222441Y-98250505D01*
X222116006Y-98397002D01*
X222033788Y-98558360D01*
X222033787Y-98558363D01*
X221977829Y-98730589D01*
X221949500Y-98909448D01*
X214234977Y-98909448D01*
X214221789Y-98889711D01*
X214221786Y-98889707D01*
X214110292Y-98778213D01*
X214110288Y-98778210D01*
X213979185Y-98690609D01*
X213979172Y-98690602D01*
X213833501Y-98630264D01*
X213833489Y-98630261D01*
X213678845Y-98599500D01*
X213678842Y-98599500D01*
X213521158Y-98599500D01*
X213521155Y-98599500D01*
X213366510Y-98630261D01*
X213366498Y-98630264D01*
X213220827Y-98690602D01*
X213220814Y-98690609D01*
X213089711Y-98778210D01*
X213089707Y-98778213D01*
X212978213Y-98889707D01*
X212978210Y-98889711D01*
X212890609Y-99020814D01*
X212890602Y-99020827D01*
X212830264Y-99166498D01*
X212830261Y-99166510D01*
X212799500Y-99321153D01*
X212799500Y-99478846D01*
X212830261Y-99633489D01*
X212830264Y-99633501D01*
X212890602Y-99779172D01*
X212890609Y-99779185D01*
X212978602Y-99910874D01*
X212999480Y-99977551D01*
X212999500Y-99979765D01*
X212999500Y-100875500D01*
X212979815Y-100942539D01*
X212927011Y-100988294D01*
X212875500Y-100999500D01*
X212802155Y-100999500D01*
X212647510Y-101030261D01*
X212647498Y-101030264D01*
X212501827Y-101090602D01*
X212501814Y-101090609D01*
X212370711Y-101178210D01*
X212370707Y-101178213D01*
X212259213Y-101289707D01*
X212259210Y-101289711D01*
X212171609Y-101420814D01*
X212171602Y-101420827D01*
X212111264Y-101566498D01*
X212111261Y-101566510D01*
X212080500Y-101721153D01*
X212080500Y-101878846D01*
X212111261Y-102033489D01*
X212111264Y-102033501D01*
X212171602Y-102179172D01*
X212171609Y-102179185D01*
X212259602Y-102310874D01*
X212280480Y-102377551D01*
X212280500Y-102379765D01*
X212280500Y-107618903D01*
X212260815Y-107685942D01*
X212244181Y-107706584D01*
X205612181Y-114338584D01*
X205550858Y-114372069D01*
X205481166Y-114367085D01*
X205425233Y-114325213D01*
X205400816Y-114259749D01*
X205400500Y-114250903D01*
X205400500Y-109979765D01*
X205420185Y-109912726D01*
X205421398Y-109910874D01*
X205429680Y-109898480D01*
X205509394Y-109779179D01*
X205569737Y-109633497D01*
X205600500Y-109478842D01*
X205600500Y-109321158D01*
X205600500Y-109321155D01*
X205600499Y-109321153D01*
X205597830Y-109307735D01*
X205569737Y-109166503D01*
X205546434Y-109110243D01*
X205509397Y-109020827D01*
X205509390Y-109020814D01*
X205421789Y-108889711D01*
X205421786Y-108889707D01*
X205310292Y-108778213D01*
X205310288Y-108778210D01*
X205179185Y-108690609D01*
X205179172Y-108690602D01*
X205033501Y-108630264D01*
X205033489Y-108630261D01*
X204878845Y-108599500D01*
X204878842Y-108599500D01*
X204721158Y-108599500D01*
X204721155Y-108599500D01*
X204566510Y-108630261D01*
X204566498Y-108630264D01*
X204463705Y-108672842D01*
X204394235Y-108680311D01*
X204368801Y-108672842D01*
X204233614Y-108616846D01*
X204233602Y-108616843D01*
X204078958Y-108586082D01*
X204078955Y-108586082D01*
X203921271Y-108586082D01*
X203921268Y-108586082D01*
X203766623Y-108616843D01*
X203766611Y-108616846D01*
X203620940Y-108677184D01*
X203620927Y-108677191D01*
X203489824Y-108764792D01*
X203489820Y-108764795D01*
X203378326Y-108876289D01*
X203378323Y-108876293D01*
X203290722Y-109007396D01*
X203290715Y-109007409D01*
X203230377Y-109153080D01*
X203230374Y-109153092D01*
X203199613Y-109307735D01*
X203199613Y-109465428D01*
X203230374Y-109620071D01*
X203230377Y-109620083D01*
X203290715Y-109765754D01*
X203290722Y-109765767D01*
X203378715Y-109897456D01*
X203399593Y-109964133D01*
X203399613Y-109966347D01*
X203399613Y-114699790D01*
X203379928Y-114766829D01*
X203363294Y-114787471D01*
X202785339Y-115365425D01*
X202724016Y-115398910D01*
X202721850Y-115399361D01*
X202566508Y-115430261D01*
X202566498Y-115430264D01*
X202420827Y-115490602D01*
X202420814Y-115490609D01*
X202289711Y-115578210D01*
X202289707Y-115578213D01*
X202178213Y-115689707D01*
X202178210Y-115689711D01*
X202090609Y-115820814D01*
X202090602Y-115820827D01*
X202030264Y-115966498D01*
X202030261Y-115966510D01*
X201999500Y-116121153D01*
X201999500Y-116278846D01*
X202030261Y-116433489D01*
X202030264Y-116433501D01*
X202090602Y-116579172D01*
X202090609Y-116579185D01*
X202178210Y-116710288D01*
X202178213Y-116710292D01*
X202221661Y-116753740D01*
X202255146Y-116815063D01*
X202250162Y-116884755D01*
X202221661Y-116929102D01*
X201952315Y-117198448D01*
X201890992Y-117231933D01*
X201832541Y-117230542D01*
X201786680Y-117218254D01*
X201712957Y-117198500D01*
X201712956Y-117198500D01*
X201438047Y-117198500D01*
X201430119Y-117198500D01*
X201430115Y-117198499D01*
X201272000Y-117198499D01*
X201268509Y-117199434D01*
X201256951Y-117199498D01*
X201256829Y-117199463D01*
X201256268Y-117199500D01*
X199500097Y-117199500D01*
X199433058Y-117179815D01*
X199412416Y-117163181D01*
X198634574Y-116385339D01*
X198601089Y-116324016D01*
X198600638Y-116321849D01*
X198582595Y-116231147D01*
X198569737Y-116166503D01*
X198550953Y-116121153D01*
X198509397Y-116020827D01*
X198509390Y-116020814D01*
X198421789Y-115889711D01*
X198421786Y-115889707D01*
X198310292Y-115778213D01*
X198310288Y-115778210D01*
X198179185Y-115690609D01*
X198179175Y-115690604D01*
X198053257Y-115638447D01*
X197998854Y-115594606D01*
X197976789Y-115528312D01*
X197994068Y-115460612D01*
X198013025Y-115436209D01*
X200568713Y-112880521D01*
X200568716Y-112880520D01*
X200680520Y-112768716D01*
X200730639Y-112681904D01*
X200759577Y-112631785D01*
X200800500Y-112479057D01*
X200800500Y-112320943D01*
X200800500Y-110399399D01*
X200820185Y-110332360D01*
X200821398Y-110330508D01*
X200909390Y-110198819D01*
X200909390Y-110198818D01*
X200909394Y-110198813D01*
X200969737Y-110053131D01*
X201000500Y-109898476D01*
X201000500Y-109740792D01*
X201000500Y-109740789D01*
X201000499Y-109740787D01*
X200979158Y-109633501D01*
X200969737Y-109586137D01*
X200925296Y-109478846D01*
X200909397Y-109440461D01*
X200909390Y-109440448D01*
X200821789Y-109309345D01*
X200821786Y-109309341D01*
X200710292Y-109197847D01*
X200710288Y-109197844D01*
X200579185Y-109110243D01*
X200579172Y-109110236D01*
X200433501Y-109049898D01*
X200433489Y-109049895D01*
X200278845Y-109019134D01*
X200278842Y-109019134D01*
X200121158Y-109019134D01*
X200121155Y-109019134D01*
X199966510Y-109049895D01*
X199966498Y-109049898D01*
X199820827Y-109110236D01*
X199820814Y-109110243D01*
X199689711Y-109197844D01*
X199689707Y-109197847D01*
X199578213Y-109309341D01*
X199578210Y-109309345D01*
X199490609Y-109440448D01*
X199490602Y-109440461D01*
X199430264Y-109586132D01*
X199430261Y-109586144D01*
X199399500Y-109740787D01*
X199399500Y-109898480D01*
X199430261Y-110053123D01*
X199430264Y-110053135D01*
X199490602Y-110198806D01*
X199490609Y-110198819D01*
X199578602Y-110330508D01*
X199599480Y-110397185D01*
X199599500Y-110399399D01*
X199599500Y-112099903D01*
X199579815Y-112166942D01*
X199563181Y-112187584D01*
X196785339Y-114965425D01*
X196724016Y-114998910D01*
X196721850Y-114999361D01*
X196566508Y-115030261D01*
X196566498Y-115030264D01*
X196420827Y-115090602D01*
X196420814Y-115090609D01*
X196289711Y-115178210D01*
X196289707Y-115178213D01*
X196178213Y-115289707D01*
X196178210Y-115289711D01*
X196090609Y-115420814D01*
X196090602Y-115420827D01*
X196030264Y-115566498D01*
X196030261Y-115566510D01*
X195999500Y-115721153D01*
X149127306Y-115721153D01*
X149189933Y-115569958D01*
X149216539Y-115436205D01*
X149225500Y-115391156D01*
X149225500Y-115208843D01*
X149189934Y-115030046D01*
X149189933Y-115030043D01*
X149189933Y-115030042D01*
X149185174Y-115018555D01*
X149177703Y-114949088D01*
X149183548Y-114927776D01*
X149219091Y-114832483D01*
X149225500Y-114772873D01*
X149225499Y-113827128D01*
X149219091Y-113767517D01*
X149168796Y-113632669D01*
X149168795Y-113632668D01*
X149168793Y-113632664D01*
X149082547Y-113517455D01*
X149082544Y-113517452D01*
X148967335Y-113431206D01*
X148967328Y-113431202D01*
X148832482Y-113380908D01*
X148832483Y-113380908D01*
X148772883Y-113374501D01*
X148772881Y-113374500D01*
X148772873Y-113374500D01*
X148772864Y-113374500D01*
X147827129Y-113374500D01*
X147827123Y-113374501D01*
X147767516Y-113380908D01*
X147632671Y-113431202D01*
X147632664Y-113431206D01*
X147517455Y-113517452D01*
X147517452Y-113517455D01*
X147431206Y-113632664D01*
X147431202Y-113632671D01*
X147380908Y-113767517D01*
X147374501Y-113827116D01*
X147374501Y-113827123D01*
X147374500Y-113827135D01*
X147374500Y-114772870D01*
X147374501Y-114772876D01*
X147380908Y-114832483D01*
X147416447Y-114927765D01*
X147421431Y-114997456D01*
X147414828Y-115018545D01*
X147410069Y-115030034D01*
X147410065Y-115030047D01*
X147374500Y-115208843D01*
X147374500Y-115208846D01*
X147374500Y-115391154D01*
X147374500Y-115391156D01*
X147374499Y-115391156D01*
X123600500Y-115391156D01*
X123600500Y-109321153D01*
X191799500Y-109321153D01*
X191799500Y-109478846D01*
X191830261Y-109633489D01*
X191830264Y-109633501D01*
X191890602Y-109779172D01*
X191890609Y-109779185D01*
X191978210Y-109910288D01*
X191978213Y-109910292D01*
X192089707Y-110021786D01*
X192089711Y-110021789D01*
X192220814Y-110109390D01*
X192220827Y-110109397D01*
X192366498Y-110169735D01*
X192366503Y-110169737D01*
X192512642Y-110198806D01*
X192521153Y-110200499D01*
X192521156Y-110200500D01*
X192521158Y-110200500D01*
X192678844Y-110200500D01*
X192678845Y-110200499D01*
X192833497Y-110169737D01*
X192979179Y-110109394D01*
X193110289Y-110021789D01*
X193221789Y-109910289D01*
X193309394Y-109779179D01*
X193369737Y-109633497D01*
X193400500Y-109478842D01*
X193400500Y-109321158D01*
X193400500Y-109321155D01*
X193400499Y-109321153D01*
X193397830Y-109307735D01*
X193369737Y-109166503D01*
X193346434Y-109110243D01*
X193309397Y-109020827D01*
X193309390Y-109020814D01*
X193221789Y-108889711D01*
X193221786Y-108889707D01*
X193110292Y-108778213D01*
X193110288Y-108778210D01*
X192979185Y-108690609D01*
X192979172Y-108690602D01*
X192833501Y-108630264D01*
X192833489Y-108630261D01*
X192678845Y-108599500D01*
X192678842Y-108599500D01*
X192521158Y-108599500D01*
X192521155Y-108599500D01*
X192366510Y-108630261D01*
X192366498Y-108630264D01*
X192220827Y-108690602D01*
X192220814Y-108690609D01*
X192089711Y-108778210D01*
X192089707Y-108778213D01*
X191978213Y-108889707D01*
X191978210Y-108889711D01*
X191890609Y-109020814D01*
X191890602Y-109020827D01*
X191830264Y-109166498D01*
X191830261Y-109166510D01*
X191799500Y-109321153D01*
X123600500Y-109321153D01*
X123600500Y-108021153D01*
X196199500Y-108021153D01*
X196199500Y-108178846D01*
X196230261Y-108333489D01*
X196230264Y-108333501D01*
X196290602Y-108479172D01*
X196290609Y-108479185D01*
X196378210Y-108610288D01*
X196378213Y-108610292D01*
X196489707Y-108721786D01*
X196489711Y-108721789D01*
X196620814Y-108809390D01*
X196620827Y-108809397D01*
X196766498Y-108869735D01*
X196766503Y-108869737D01*
X196921153Y-108900499D01*
X196921156Y-108900500D01*
X196921158Y-108900500D01*
X197078844Y-108900500D01*
X197078845Y-108900499D01*
X197233497Y-108869737D01*
X197379179Y-108809394D01*
X197510289Y-108721789D01*
X197621789Y-108610289D01*
X197709394Y-108479179D01*
X197769737Y-108333497D01*
X197800500Y-108178842D01*
X197800500Y-108021158D01*
X197800500Y-108021155D01*
X197800499Y-108021153D01*
X197769738Y-107866510D01*
X197769737Y-107866503D01*
X197713358Y-107730390D01*
X197709397Y-107720827D01*
X197709390Y-107720814D01*
X197621789Y-107589711D01*
X197621786Y-107589707D01*
X197510292Y-107478213D01*
X197510288Y-107478210D01*
X197379185Y-107390609D01*
X197379172Y-107390602D01*
X197233501Y-107330264D01*
X197233489Y-107330261D01*
X197078845Y-107299500D01*
X197078842Y-107299500D01*
X196921158Y-107299500D01*
X196921155Y-107299500D01*
X196766510Y-107330261D01*
X196766498Y-107330264D01*
X196620827Y-107390602D01*
X196620814Y-107390609D01*
X196489711Y-107478210D01*
X196489707Y-107478213D01*
X196378213Y-107589707D01*
X196378210Y-107589711D01*
X196290609Y-107720814D01*
X196290602Y-107720827D01*
X196230264Y-107866498D01*
X196230261Y-107866510D01*
X196199500Y-108021153D01*
X123600500Y-108021153D01*
X123600500Y-96600000D01*
X134700000Y-96600000D01*
X134700000Y-105300000D01*
X141700000Y-105300000D01*
X142075500Y-105300000D01*
X142142539Y-105319685D01*
X142188294Y-105372489D01*
X142199500Y-105424000D01*
X142199500Y-105920234D01*
X142179815Y-105987273D01*
X142178602Y-105989125D01*
X142090609Y-106120814D01*
X142090602Y-106120827D01*
X142030264Y-106266498D01*
X142030261Y-106266510D01*
X141999500Y-106421153D01*
X141999500Y-106578846D01*
X142030261Y-106733489D01*
X142030264Y-106733501D01*
X142090602Y-106879172D01*
X142090609Y-106879185D01*
X142178210Y-107010288D01*
X142178213Y-107010292D01*
X142289707Y-107121786D01*
X142289711Y-107121789D01*
X142420814Y-107209390D01*
X142420827Y-107209397D01*
X142566498Y-107269735D01*
X142566503Y-107269737D01*
X142716131Y-107299500D01*
X142721153Y-107300499D01*
X142721156Y-107300500D01*
X142721158Y-107300500D01*
X142878844Y-107300500D01*
X142878845Y-107300499D01*
X143033497Y-107269737D01*
X143179179Y-107209394D01*
X143310289Y-107121789D01*
X143421789Y-107010289D01*
X143509394Y-106879179D01*
X143569737Y-106733497D01*
X143600500Y-106578842D01*
X143600500Y-106421158D01*
X143600500Y-106421155D01*
X143600499Y-106421153D01*
X143589627Y-106366498D01*
X143569737Y-106266503D01*
X143550812Y-106220814D01*
X143509397Y-106120827D01*
X143509390Y-106120814D01*
X143421398Y-105989125D01*
X143400520Y-105922447D01*
X143400500Y-105920234D01*
X143400500Y-105424000D01*
X143420185Y-105356961D01*
X143472989Y-105311206D01*
X143524500Y-105300000D01*
X149500000Y-105300000D01*
X149500000Y-101921153D01*
X153699500Y-101921153D01*
X153699500Y-102078846D01*
X153730261Y-102233489D01*
X153730264Y-102233501D01*
X153790602Y-102379172D01*
X153790609Y-102379185D01*
X153878602Y-102510874D01*
X153899480Y-102577551D01*
X153899500Y-102579765D01*
X153899500Y-106020234D01*
X153879815Y-106087273D01*
X153878602Y-106089125D01*
X153790609Y-106220814D01*
X153790602Y-106220827D01*
X153730264Y-106366498D01*
X153730261Y-106366510D01*
X153699500Y-106521153D01*
X153699500Y-106678846D01*
X153730261Y-106833489D01*
X153730264Y-106833501D01*
X153790602Y-106979172D01*
X153790609Y-106979185D01*
X153878210Y-107110288D01*
X153878213Y-107110292D01*
X153989707Y-107221786D01*
X153989711Y-107221789D01*
X154120814Y-107309390D01*
X154120827Y-107309397D01*
X154266498Y-107369735D01*
X154266503Y-107369737D01*
X154421153Y-107400499D01*
X154421156Y-107400500D01*
X154421158Y-107400500D01*
X154578844Y-107400500D01*
X154578845Y-107400499D01*
X154733497Y-107369737D01*
X154879179Y-107309394D01*
X155010289Y-107221789D01*
X155121789Y-107110289D01*
X155209394Y-106979179D01*
X155269737Y-106833497D01*
X155300500Y-106678842D01*
X155300500Y-106521158D01*
X155300500Y-106521155D01*
X155300499Y-106521153D01*
X155269737Y-106366503D01*
X155233569Y-106279185D01*
X155209397Y-106220827D01*
X155209390Y-106220814D01*
X155121398Y-106089125D01*
X155115747Y-106071078D01*
X155105523Y-106055169D01*
X155101071Y-106024207D01*
X155100520Y-106022447D01*
X155100500Y-106020234D01*
X155100500Y-105821153D01*
X179999500Y-105821153D01*
X179999500Y-105978846D01*
X180030261Y-106133489D01*
X180030264Y-106133501D01*
X180090602Y-106279172D01*
X180090609Y-106279185D01*
X180178210Y-106410288D01*
X180178213Y-106410292D01*
X180289707Y-106521786D01*
X180289711Y-106521789D01*
X180420814Y-106609390D01*
X180420827Y-106609397D01*
X180566498Y-106669735D01*
X180566503Y-106669737D01*
X180721153Y-106700499D01*
X180721156Y-106700500D01*
X180721158Y-106700500D01*
X180878844Y-106700500D01*
X180878845Y-106700499D01*
X181033497Y-106669737D01*
X181179179Y-106609394D01*
X181310289Y-106521789D01*
X181421789Y-106410289D01*
X181509394Y-106279179D01*
X181569737Y-106133497D01*
X181600500Y-105978842D01*
X181600500Y-105821158D01*
X181600500Y-105821155D01*
X181600499Y-105821153D01*
X181584005Y-105738232D01*
X181569737Y-105666503D01*
X181538166Y-105590283D01*
X181509397Y-105520827D01*
X181509390Y-105520814D01*
X181421789Y-105389711D01*
X181421786Y-105389707D01*
X181310292Y-105278213D01*
X181310288Y-105278210D01*
X181179185Y-105190609D01*
X181179172Y-105190602D01*
X181033501Y-105130264D01*
X181033489Y-105130261D01*
X180878845Y-105099500D01*
X180878842Y-105099500D01*
X180721158Y-105099500D01*
X180721155Y-105099500D01*
X180566510Y-105130261D01*
X180566498Y-105130264D01*
X180420827Y-105190602D01*
X180420814Y-105190609D01*
X180289711Y-105278210D01*
X180289707Y-105278213D01*
X180178213Y-105389707D01*
X180178210Y-105389711D01*
X180090609Y-105520814D01*
X180090602Y-105520827D01*
X180030264Y-105666498D01*
X180030261Y-105666510D01*
X179999500Y-105821153D01*
X155100500Y-105821153D01*
X155100500Y-104889650D01*
X207761247Y-104889650D01*
X207761247Y-105047343D01*
X207792008Y-105201986D01*
X207792011Y-105201998D01*
X207852349Y-105347669D01*
X207852356Y-105347682D01*
X207939957Y-105478785D01*
X207939960Y-105478789D01*
X208051454Y-105590283D01*
X208051458Y-105590286D01*
X208182561Y-105677887D01*
X208182574Y-105677894D01*
X208328245Y-105738232D01*
X208328250Y-105738234D01*
X208482900Y-105768996D01*
X208482903Y-105768997D01*
X208482905Y-105768997D01*
X208640591Y-105768997D01*
X208640592Y-105768996D01*
X208795244Y-105738234D01*
X208940926Y-105677891D01*
X209072036Y-105590286D01*
X209183536Y-105478786D01*
X209271141Y-105347676D01*
X209331484Y-105201994D01*
X209362247Y-105047339D01*
X209362247Y-104889655D01*
X209362247Y-104889652D01*
X209362246Y-104889650D01*
X209331485Y-104735007D01*
X209331484Y-104735000D01*
X209331482Y-104734995D01*
X209271144Y-104589324D01*
X209271137Y-104589311D01*
X209183536Y-104458208D01*
X209183533Y-104458204D01*
X209072039Y-104346710D01*
X209072035Y-104346707D01*
X208940932Y-104259106D01*
X208940919Y-104259099D01*
X208795248Y-104198761D01*
X208795236Y-104198758D01*
X208640592Y-104167997D01*
X208640589Y-104167997D01*
X208482905Y-104167997D01*
X208482902Y-104167997D01*
X208328257Y-104198758D01*
X208328245Y-104198761D01*
X208182574Y-104259099D01*
X208182561Y-104259106D01*
X208051458Y-104346707D01*
X208051454Y-104346710D01*
X207939960Y-104458204D01*
X207939957Y-104458208D01*
X207852356Y-104589311D01*
X207852349Y-104589324D01*
X207792011Y-104734995D01*
X207792008Y-104735007D01*
X207761247Y-104889650D01*
X155100500Y-104889650D01*
X155100500Y-103621153D01*
X160299500Y-103621153D01*
X160299500Y-103778846D01*
X160330261Y-103933489D01*
X160330264Y-103933501D01*
X160390602Y-104079172D01*
X160390609Y-104079185D01*
X160478210Y-104210288D01*
X160478213Y-104210292D01*
X160589707Y-104321786D01*
X160589711Y-104321789D01*
X160720814Y-104409390D01*
X160720827Y-104409397D01*
X160838669Y-104458208D01*
X160866503Y-104469737D01*
X161021153Y-104500499D01*
X161021156Y-104500500D01*
X161021158Y-104500500D01*
X161178844Y-104500500D01*
X161178845Y-104500499D01*
X161333497Y-104469737D01*
X161479179Y-104409394D01*
X161610289Y-104321789D01*
X161721789Y-104210289D01*
X161809394Y-104079179D01*
X161869737Y-103933497D01*
X161900500Y-103778842D01*
X161900500Y-103621158D01*
X161900500Y-103621155D01*
X161900499Y-103621153D01*
X161876499Y-103500499D01*
X161869737Y-103466503D01*
X161846080Y-103409390D01*
X161809397Y-103320827D01*
X161809390Y-103320814D01*
X161721789Y-103189711D01*
X161721786Y-103189707D01*
X161610292Y-103078213D01*
X161610288Y-103078210D01*
X161479185Y-102990609D01*
X161479172Y-102990602D01*
X161333501Y-102930264D01*
X161333489Y-102930261D01*
X161178845Y-102899500D01*
X161178842Y-102899500D01*
X161021158Y-102899500D01*
X161021155Y-102899500D01*
X160866510Y-102930261D01*
X160866498Y-102930264D01*
X160720827Y-102990602D01*
X160720814Y-102990609D01*
X160589711Y-103078210D01*
X160589707Y-103078213D01*
X160478213Y-103189707D01*
X160478210Y-103189711D01*
X160390609Y-103320814D01*
X160390602Y-103320827D01*
X160330264Y-103466498D01*
X160330261Y-103466510D01*
X160299500Y-103621153D01*
X155100500Y-103621153D01*
X155100500Y-102724500D01*
X155120185Y-102657461D01*
X155172989Y-102611706D01*
X155224500Y-102600500D01*
X162420234Y-102600500D01*
X162487273Y-102620185D01*
X162489125Y-102621398D01*
X162620814Y-102709390D01*
X162620827Y-102709397D01*
X162715799Y-102748735D01*
X162766503Y-102769737D01*
X162921158Y-102800500D01*
X162921847Y-102800637D01*
X162983758Y-102833022D01*
X162985337Y-102834573D01*
X163131284Y-102980520D01*
X163131286Y-102980521D01*
X163131290Y-102980524D01*
X163268209Y-103059573D01*
X163268212Y-103059575D01*
X163268216Y-103059577D01*
X163420943Y-103100501D01*
X163420945Y-103100501D01*
X163586654Y-103100501D01*
X163586670Y-103100500D01*
X165582152Y-103100500D01*
X165649191Y-103120185D01*
X165694946Y-103172989D01*
X165703769Y-103200308D01*
X165730261Y-103333491D01*
X165730264Y-103333501D01*
X165790602Y-103479172D01*
X165790609Y-103479185D01*
X165878210Y-103610288D01*
X165878213Y-103610292D01*
X165989707Y-103721786D01*
X165989711Y-103721789D01*
X166120814Y-103809390D01*
X166120827Y-103809397D01*
X166266498Y-103869735D01*
X166266503Y-103869737D01*
X166421153Y-103900499D01*
X166421156Y-103900500D01*
X166421158Y-103900500D01*
X166578844Y-103900500D01*
X166578845Y-103900499D01*
X166733497Y-103869737D01*
X166879179Y-103809394D01*
X167010289Y-103721789D01*
X167121789Y-103610289D01*
X167209394Y-103479179D01*
X167269737Y-103333497D01*
X167274505Y-103309524D01*
X167296231Y-103200308D01*
X167328616Y-103138397D01*
X167389332Y-103103823D01*
X167417848Y-103100500D01*
X171913331Y-103100500D01*
X171913347Y-103100501D01*
X171920943Y-103100501D01*
X172079054Y-103100501D01*
X172079057Y-103100501D01*
X172231785Y-103059577D01*
X172298328Y-103021158D01*
X172368716Y-102980520D01*
X172480520Y-102868716D01*
X172480521Y-102868714D01*
X172514662Y-102834572D01*
X172575983Y-102801089D01*
X172578150Y-102800638D01*
X172636085Y-102789113D01*
X172733497Y-102769737D01*
X172879179Y-102709394D01*
X173010289Y-102621789D01*
X173010925Y-102621153D01*
X178899500Y-102621153D01*
X178899500Y-102778846D01*
X178930261Y-102933489D01*
X178930264Y-102933501D01*
X178990602Y-103079172D01*
X178990609Y-103079185D01*
X179078210Y-103210288D01*
X179078213Y-103210292D01*
X179189707Y-103321786D01*
X179189711Y-103321789D01*
X179320814Y-103409390D01*
X179320827Y-103409397D01*
X179458683Y-103466498D01*
X179466503Y-103469737D01*
X179621153Y-103500499D01*
X179621156Y-103500500D01*
X179621158Y-103500500D01*
X179778844Y-103500500D01*
X179778845Y-103500499D01*
X179933497Y-103469737D01*
X180079179Y-103409394D01*
X180210289Y-103321789D01*
X180321789Y-103210289D01*
X180409394Y-103079179D01*
X180469737Y-102933497D01*
X180496075Y-102801089D01*
X180500638Y-102778150D01*
X180533023Y-102716239D01*
X180534521Y-102714713D01*
X181050744Y-102198489D01*
X181106329Y-102166397D01*
X181131784Y-102159577D01*
X181268716Y-102080520D01*
X181380520Y-101968716D01*
X181459577Y-101831784D01*
X181500500Y-101679057D01*
X181500500Y-98382940D01*
X181520185Y-98315901D01*
X181536814Y-98295263D01*
X181621789Y-98210289D01*
X181709394Y-98079179D01*
X181769737Y-97933497D01*
X181800500Y-97778842D01*
X181800500Y-97621158D01*
X181800500Y-97621155D01*
X181800499Y-97621153D01*
X181780609Y-97521161D01*
X181769737Y-97466503D01*
X181738736Y-97391659D01*
X181709397Y-97320827D01*
X181709390Y-97320814D01*
X181621789Y-97189711D01*
X181621786Y-97189707D01*
X181510292Y-97078213D01*
X181510288Y-97078210D01*
X181379185Y-96990609D01*
X181379172Y-96990602D01*
X181233501Y-96930264D01*
X181233489Y-96930261D01*
X181078845Y-96899500D01*
X181078842Y-96899500D01*
X180921158Y-96899500D01*
X180921155Y-96899500D01*
X180766510Y-96930261D01*
X180766498Y-96930264D01*
X180620827Y-96990602D01*
X180620814Y-96990609D01*
X180489711Y-97078210D01*
X180489707Y-97078213D01*
X180378213Y-97189707D01*
X180378210Y-97189711D01*
X180290609Y-97320814D01*
X180290602Y-97320827D01*
X180230264Y-97466498D01*
X180230261Y-97466510D01*
X180199500Y-97621153D01*
X180199500Y-97778846D01*
X180230261Y-97933489D01*
X180230264Y-97933501D01*
X180290061Y-98077864D01*
X180299500Y-98125316D01*
X180299500Y-101199903D01*
X180279815Y-101266942D01*
X180263181Y-101287584D01*
X179685339Y-101865425D01*
X179624016Y-101898910D01*
X179621850Y-101899361D01*
X179466508Y-101930261D01*
X179466498Y-101930264D01*
X179320827Y-101990602D01*
X179320814Y-101990609D01*
X179189711Y-102078210D01*
X179189707Y-102078213D01*
X179078213Y-102189707D01*
X179078210Y-102189711D01*
X178990609Y-102320814D01*
X178990602Y-102320827D01*
X178930264Y-102466498D01*
X178930261Y-102466510D01*
X178899500Y-102621153D01*
X173010925Y-102621153D01*
X173054527Y-102577551D01*
X173104694Y-102527385D01*
X173121786Y-102510292D01*
X173121789Y-102510289D01*
X173209394Y-102379179D01*
X173269737Y-102233497D01*
X173300500Y-102078842D01*
X173300500Y-101921158D01*
X173300500Y-101921155D01*
X173300499Y-101921153D01*
X173279552Y-101815845D01*
X177625206Y-101815845D01*
X177754152Y-101869257D01*
X177754156Y-101869258D01*
X177908702Y-101899999D01*
X177908706Y-101900000D01*
X178066294Y-101900000D01*
X178066297Y-101899999D01*
X178220843Y-101869258D01*
X178220847Y-101869257D01*
X178290046Y-101840594D01*
X178359515Y-101833125D01*
X178384954Y-101840594D01*
X178454152Y-101869257D01*
X178454156Y-101869258D01*
X178608702Y-101899999D01*
X178608706Y-101900000D01*
X178766294Y-101900000D01*
X178766297Y-101899999D01*
X178920843Y-101869258D01*
X178920847Y-101869257D01*
X179049793Y-101815845D01*
X178510723Y-101276777D01*
X178510722Y-101276777D01*
X178337500Y-101103553D01*
X178164278Y-101276777D01*
X178164277Y-101276777D01*
X177625206Y-101815845D01*
X173279552Y-101815845D01*
X173276246Y-101799222D01*
X173269738Y-101766508D01*
X173269737Y-101766507D01*
X173269737Y-101766503D01*
X173233515Y-101679055D01*
X173209397Y-101620827D01*
X173209390Y-101620814D01*
X173121789Y-101489711D01*
X173121786Y-101489707D01*
X173010292Y-101378213D01*
X173010288Y-101378210D01*
X172879185Y-101290609D01*
X172879172Y-101290602D01*
X172733501Y-101230264D01*
X172733489Y-101230261D01*
X172578845Y-101199500D01*
X172578842Y-101199500D01*
X172421158Y-101199500D01*
X172421155Y-101199500D01*
X172266510Y-101230261D01*
X172266498Y-101230264D01*
X172120827Y-101290602D01*
X172120814Y-101290609D01*
X171989711Y-101378210D01*
X171989707Y-101378213D01*
X171878213Y-101489707D01*
X171878210Y-101489711D01*
X171790609Y-101620814D01*
X171790602Y-101620827D01*
X171730264Y-101766498D01*
X171730261Y-101766510D01*
X171723661Y-101799691D01*
X171691276Y-101861602D01*
X171630561Y-101896176D01*
X171602044Y-101899500D01*
X163897956Y-101899500D01*
X163830917Y-101879815D01*
X163785162Y-101827011D01*
X163776339Y-101799691D01*
X163769738Y-101766510D01*
X163769738Y-101766508D01*
X163769737Y-101766503D01*
X163733515Y-101679055D01*
X163709397Y-101620827D01*
X163709390Y-101620814D01*
X163621789Y-101489711D01*
X163621786Y-101489707D01*
X163510292Y-101378213D01*
X163510288Y-101378210D01*
X163379185Y-101290609D01*
X163379172Y-101290602D01*
X163233501Y-101230264D01*
X163233489Y-101230261D01*
X163078845Y-101199500D01*
X163078842Y-101199500D01*
X162921158Y-101199500D01*
X162921155Y-101199500D01*
X162766510Y-101230261D01*
X162766498Y-101230264D01*
X162620827Y-101290602D01*
X162620814Y-101290609D01*
X162489125Y-101378602D01*
X162422447Y-101399480D01*
X162420234Y-101399500D01*
X155079766Y-101399500D01*
X155012727Y-101379815D01*
X155010875Y-101378602D01*
X154879185Y-101290609D01*
X154879172Y-101290602D01*
X154733501Y-101230264D01*
X154733489Y-101230261D01*
X154578845Y-101199500D01*
X154578842Y-101199500D01*
X154421158Y-101199500D01*
X154421155Y-101199500D01*
X154266510Y-101230261D01*
X154266498Y-101230264D01*
X154120827Y-101290602D01*
X154120814Y-101290609D01*
X153989711Y-101378210D01*
X153989707Y-101378213D01*
X153878213Y-101489707D01*
X153878210Y-101489711D01*
X153790609Y-101620814D01*
X153790602Y-101620827D01*
X153730264Y-101766498D01*
X153730261Y-101766510D01*
X153699500Y-101921153D01*
X149500000Y-101921153D01*
X149500000Y-100321202D01*
X177187500Y-100321202D01*
X177187500Y-100478797D01*
X177218241Y-100633342D01*
X177218244Y-100633354D01*
X177246905Y-100702548D01*
X177254374Y-100772017D01*
X177246905Y-100797452D01*
X177218244Y-100866645D01*
X177218241Y-100866657D01*
X177187500Y-101021202D01*
X177187500Y-101178797D01*
X177218241Y-101333343D01*
X177218243Y-101333351D01*
X177271653Y-101462293D01*
X177663783Y-101070163D01*
X177837500Y-101070163D01*
X177837500Y-101129837D01*
X177860336Y-101184968D01*
X177902532Y-101227164D01*
X177957663Y-101250000D01*
X178017337Y-101250000D01*
X178072468Y-101227164D01*
X178114664Y-101184968D01*
X178137500Y-101129837D01*
X178137500Y-101070163D01*
X178537500Y-101070163D01*
X178537500Y-101129837D01*
X178560336Y-101184968D01*
X178602532Y-101227164D01*
X178657663Y-101250000D01*
X178717337Y-101250000D01*
X178772468Y-101227164D01*
X178814664Y-101184968D01*
X178837500Y-101129837D01*
X178837500Y-101070163D01*
X178814664Y-101015032D01*
X178772468Y-100972836D01*
X178717337Y-100950000D01*
X178657663Y-100950000D01*
X178602532Y-100972836D01*
X178560336Y-101015032D01*
X178537500Y-101070163D01*
X178137500Y-101070163D01*
X178114664Y-101015032D01*
X178072468Y-100972836D01*
X178017337Y-100950000D01*
X177957663Y-100950000D01*
X177902532Y-100972836D01*
X177860336Y-101015032D01*
X177837500Y-101070163D01*
X177663783Y-101070163D01*
X177983946Y-100750000D01*
X178691053Y-100750000D01*
X178864277Y-100923222D01*
X178864277Y-100923223D01*
X179403345Y-101462293D01*
X179456757Y-101333347D01*
X179456758Y-101333343D01*
X179487499Y-101178797D01*
X179487500Y-101178794D01*
X179487500Y-101021206D01*
X179487499Y-101021202D01*
X179456758Y-100866656D01*
X179456757Y-100866652D01*
X179428094Y-100797454D01*
X179420625Y-100727985D01*
X179428094Y-100702546D01*
X179456757Y-100633347D01*
X179456758Y-100633343D01*
X179487499Y-100478797D01*
X179487500Y-100478794D01*
X179487500Y-100321206D01*
X179487499Y-100321202D01*
X179456758Y-100166656D01*
X179456757Y-100166652D01*
X179403345Y-100037706D01*
X178864277Y-100576777D01*
X178864277Y-100576778D01*
X178691053Y-100750000D01*
X177983946Y-100750000D01*
X177810723Y-100576777D01*
X177604110Y-100370163D01*
X177837500Y-100370163D01*
X177837500Y-100429837D01*
X177860336Y-100484968D01*
X177902532Y-100527164D01*
X177957663Y-100550000D01*
X178017337Y-100550000D01*
X178072468Y-100527164D01*
X178114664Y-100484968D01*
X178137500Y-100429837D01*
X178137500Y-100370163D01*
X178114664Y-100315032D01*
X178072468Y-100272836D01*
X178017337Y-100250000D01*
X177957663Y-100250000D01*
X177902532Y-100272836D01*
X177860336Y-100315032D01*
X177837500Y-100370163D01*
X177604110Y-100370163D01*
X177271653Y-100037705D01*
X177218243Y-100166648D01*
X177218241Y-100166656D01*
X177187500Y-100321202D01*
X149500000Y-100321202D01*
X149500000Y-99684153D01*
X177625205Y-99684153D01*
X178164277Y-100223223D01*
X178337500Y-100396446D01*
X178363783Y-100370163D01*
X178537500Y-100370163D01*
X178537500Y-100429837D01*
X178560336Y-100484968D01*
X178602532Y-100527164D01*
X178657663Y-100550000D01*
X178717337Y-100550000D01*
X178772468Y-100527164D01*
X178814664Y-100484968D01*
X178837500Y-100429837D01*
X178837500Y-100370163D01*
X178814664Y-100315032D01*
X178772468Y-100272836D01*
X178717337Y-100250000D01*
X178657663Y-100250000D01*
X178602532Y-100272836D01*
X178560336Y-100315032D01*
X178537500Y-100370163D01*
X178363783Y-100370163D01*
X179049793Y-99684153D01*
X178920851Y-99630743D01*
X178920843Y-99630741D01*
X178766297Y-99600000D01*
X178608702Y-99600000D01*
X178454157Y-99630741D01*
X178454145Y-99630744D01*
X178384952Y-99659405D01*
X178315483Y-99666874D01*
X178290048Y-99659405D01*
X178220854Y-99630744D01*
X178220842Y-99630741D01*
X178066297Y-99600000D01*
X177908702Y-99600000D01*
X177754156Y-99630741D01*
X177754148Y-99630743D01*
X177625205Y-99684153D01*
X149500000Y-99684153D01*
X149500000Y-96600000D01*
X144424500Y-96600000D01*
X144357461Y-96580315D01*
X144311706Y-96527511D01*
X144300500Y-96476000D01*
X144300500Y-96321155D01*
X144300499Y-96321153D01*
X144272066Y-96178211D01*
X144269737Y-96166503D01*
X144236827Y-96087051D01*
X144209397Y-96020827D01*
X144209390Y-96020814D01*
X144121398Y-95889125D01*
X144100520Y-95822447D01*
X144100500Y-95820234D01*
X144100500Y-94026525D01*
X148198500Y-94026525D01*
X148198500Y-94184218D01*
X148229261Y-94338861D01*
X148229264Y-94338873D01*
X148289602Y-94484544D01*
X148289609Y-94484557D01*
X148377210Y-94615660D01*
X148377213Y-94615664D01*
X148488707Y-94727158D01*
X148488711Y-94727161D01*
X148619814Y-94814762D01*
X148619827Y-94814769D01*
X148765498Y-94875107D01*
X148765503Y-94875109D01*
X148920153Y-94905871D01*
X148920156Y-94905872D01*
X148920158Y-94905872D01*
X149077844Y-94905872D01*
X149077845Y-94905871D01*
X149232497Y-94875109D01*
X149378179Y-94814766D01*
X149509289Y-94727161D01*
X149620789Y-94615661D01*
X149708394Y-94484551D01*
X149768737Y-94338869D01*
X149799500Y-94184214D01*
X149799500Y-94026530D01*
X149799500Y-94026527D01*
X149799499Y-94026525D01*
X149786917Y-93963273D01*
X149768737Y-93871875D01*
X149738966Y-93800000D01*
X149708397Y-93726199D01*
X149708390Y-93726186D01*
X149620789Y-93595083D01*
X149620786Y-93595079D01*
X149509292Y-93483585D01*
X149509288Y-93483582D01*
X149378185Y-93395981D01*
X149378172Y-93395974D01*
X149232501Y-93335636D01*
X149232489Y-93335633D01*
X149077845Y-93304872D01*
X149077842Y-93304872D01*
X148920158Y-93304872D01*
X148920155Y-93304872D01*
X148765510Y-93335633D01*
X148765498Y-93335636D01*
X148619827Y-93395974D01*
X148619814Y-93395981D01*
X148488711Y-93483582D01*
X148488707Y-93483585D01*
X148377213Y-93595079D01*
X148377210Y-93595083D01*
X148289609Y-93726186D01*
X148289602Y-93726199D01*
X148229264Y-93871870D01*
X148229261Y-93871882D01*
X148198500Y-94026525D01*
X144100500Y-94026525D01*
X144100500Y-93579765D01*
X144120185Y-93512726D01*
X144121398Y-93510874D01*
X144209390Y-93379185D01*
X144209390Y-93379184D01*
X144209394Y-93379179D01*
X144269737Y-93233497D01*
X144279991Y-93181947D01*
X178400000Y-93181947D01*
X178400000Y-93418052D01*
X178436934Y-93651247D01*
X178509897Y-93875802D01*
X178617087Y-94086174D01*
X178677338Y-94169104D01*
X178677340Y-94169105D01*
X179417037Y-93429408D01*
X179434075Y-93492993D01*
X179499901Y-93607007D01*
X179592993Y-93700099D01*
X179707007Y-93765925D01*
X179770590Y-93782962D01*
X179030893Y-94522658D01*
X179113828Y-94582914D01*
X179324197Y-94690102D01*
X179548752Y-94763065D01*
X179548751Y-94763065D01*
X179781948Y-94800000D01*
X180018052Y-94800000D01*
X180251247Y-94763065D01*
X180380238Y-94721153D01*
X195299500Y-94721153D01*
X195299500Y-94878846D01*
X195330261Y-95033489D01*
X195330264Y-95033501D01*
X195390602Y-95179172D01*
X195390609Y-95179185D01*
X195478602Y-95310874D01*
X195499480Y-95377551D01*
X195499500Y-95379765D01*
X195499500Y-96520234D01*
X195479815Y-96587273D01*
X195478602Y-96589125D01*
X195390609Y-96720814D01*
X195390602Y-96720827D01*
X195330264Y-96866498D01*
X195330261Y-96866510D01*
X195299500Y-97021153D01*
X195299500Y-97178846D01*
X195330261Y-97333489D01*
X195330264Y-97333501D01*
X195390602Y-97479172D01*
X195390609Y-97479185D01*
X195478210Y-97610288D01*
X195478213Y-97610292D01*
X195589707Y-97721786D01*
X195589711Y-97721789D01*
X195720814Y-97809390D01*
X195720827Y-97809397D01*
X195817646Y-97849500D01*
X195866503Y-97869737D01*
X196008665Y-97898015D01*
X196021153Y-97900499D01*
X196021156Y-97900500D01*
X196021158Y-97900500D01*
X196178844Y-97900500D01*
X196178845Y-97900499D01*
X196333497Y-97869737D01*
X196479179Y-97809394D01*
X196610289Y-97721789D01*
X196721789Y-97610289D01*
X196809394Y-97479179D01*
X196869737Y-97333497D01*
X196900500Y-97178842D01*
X196900500Y-97021158D01*
X196900500Y-97021155D01*
X196900499Y-97021153D01*
X196882419Y-96930261D01*
X196869737Y-96866503D01*
X196818961Y-96743918D01*
X196809397Y-96720827D01*
X196809390Y-96720814D01*
X196721398Y-96589125D01*
X196700520Y-96522447D01*
X196700500Y-96520234D01*
X196700500Y-95379765D01*
X196720185Y-95312726D01*
X196721398Y-95310874D01*
X196809390Y-95179185D01*
X196809390Y-95179184D01*
X196809394Y-95179179D01*
X196869737Y-95033497D01*
X196900500Y-94878842D01*
X196900500Y-94721158D01*
X196897558Y-94706368D01*
X196903784Y-94636779D01*
X196931492Y-94594498D01*
X197790418Y-93735572D01*
X197851739Y-93702089D01*
X197853906Y-93701638D01*
X197911841Y-93690113D01*
X198009253Y-93670737D01*
X198154935Y-93610394D01*
X198286045Y-93522789D01*
X198397545Y-93411289D01*
X198485150Y-93280179D01*
X198545493Y-93134497D01*
X198576256Y-92979842D01*
X198576256Y-92822158D01*
X198576256Y-92822155D01*
X198576255Y-92822153D01*
X198554004Y-92710292D01*
X198545493Y-92667503D01*
X198526557Y-92621786D01*
X198485153Y-92521827D01*
X198485146Y-92521814D01*
X198397545Y-92390711D01*
X198397542Y-92390707D01*
X198286048Y-92279213D01*
X198286044Y-92279210D01*
X198154941Y-92191609D01*
X198154928Y-92191602D01*
X198009257Y-92131264D01*
X198009245Y-92131261D01*
X197854601Y-92100500D01*
X197854598Y-92100500D01*
X197696914Y-92100500D01*
X197696911Y-92100500D01*
X197542266Y-92131261D01*
X197542254Y-92131264D01*
X197396583Y-92191602D01*
X197396570Y-92191609D01*
X197265467Y-92279210D01*
X197265463Y-92279213D01*
X197153969Y-92390707D01*
X197153966Y-92390711D01*
X197066365Y-92521814D01*
X197066358Y-92521827D01*
X197006020Y-92667498D01*
X197006017Y-92667508D01*
X196975117Y-92822850D01*
X196942732Y-92884761D01*
X196941181Y-92886339D01*
X195765735Y-94061784D01*
X195725516Y-94088660D01*
X195720827Y-94090602D01*
X195720818Y-94090606D01*
X195589715Y-94178207D01*
X195589707Y-94178213D01*
X195478213Y-94289707D01*
X195478210Y-94289711D01*
X195390609Y-94420814D01*
X195390602Y-94420827D01*
X195330264Y-94566498D01*
X195330261Y-94566510D01*
X195299500Y-94721153D01*
X180380238Y-94721153D01*
X180475802Y-94690102D01*
X180643649Y-94604581D01*
X180686163Y-94582918D01*
X180686169Y-94582914D01*
X180769104Y-94522658D01*
X180769105Y-94522658D01*
X180029408Y-93782962D01*
X180092993Y-93765925D01*
X180207007Y-93700099D01*
X180300099Y-93607007D01*
X180365925Y-93492993D01*
X180382962Y-93429408D01*
X181122658Y-94169105D01*
X181122658Y-94169104D01*
X181182914Y-94086169D01*
X181182918Y-94086163D01*
X181290102Y-93875802D01*
X181363065Y-93651247D01*
X181400000Y-93418052D01*
X181400000Y-93181947D01*
X181363065Y-92948752D01*
X181290102Y-92724197D01*
X181182914Y-92513828D01*
X181122658Y-92430894D01*
X181122658Y-92430893D01*
X180382962Y-93170590D01*
X180365925Y-93107007D01*
X180300099Y-92992993D01*
X180207007Y-92899901D01*
X180092993Y-92834075D01*
X180029409Y-92817037D01*
X180769105Y-92077340D01*
X180769104Y-92077338D01*
X180686174Y-92017087D01*
X180475802Y-91909897D01*
X180251247Y-91836934D01*
X180251248Y-91836934D01*
X180018052Y-91800000D01*
X179781948Y-91800000D01*
X179548752Y-91836934D01*
X179324197Y-91909897D01*
X179113830Y-92017084D01*
X179030894Y-92077340D01*
X179770591Y-92817037D01*
X179707007Y-92834075D01*
X179592993Y-92899901D01*
X179499901Y-92992993D01*
X179434075Y-93107007D01*
X179417037Y-93170591D01*
X178677340Y-92430894D01*
X178617084Y-92513830D01*
X178509897Y-92724197D01*
X178436934Y-92948752D01*
X178400000Y-93181947D01*
X144279991Y-93181947D01*
X144285773Y-93152883D01*
X144285773Y-93152882D01*
X144300499Y-93078846D01*
X144300500Y-93078844D01*
X144300500Y-92921155D01*
X144300499Y-92921153D01*
X144280945Y-92822850D01*
X144269737Y-92766503D01*
X144253705Y-92727797D01*
X144209397Y-92620827D01*
X144209390Y-92620814D01*
X144121789Y-92489711D01*
X144121786Y-92489707D01*
X144010292Y-92378213D01*
X144010288Y-92378210D01*
X143879185Y-92290609D01*
X143879172Y-92290602D01*
X143754977Y-92239160D01*
X143733501Y-92230264D01*
X143733489Y-92230261D01*
X143578845Y-92199500D01*
X143578842Y-92199500D01*
X143421158Y-92199500D01*
X143421155Y-92199500D01*
X143266510Y-92230261D01*
X143266498Y-92230264D01*
X143120827Y-92290602D01*
X143120814Y-92290609D01*
X142989711Y-92378210D01*
X142989707Y-92378213D01*
X142878213Y-92489707D01*
X142878210Y-92489711D01*
X142790609Y-92620814D01*
X142790602Y-92620827D01*
X142730264Y-92766498D01*
X142730261Y-92766510D01*
X142699500Y-92921153D01*
X142699500Y-93078846D01*
X142730261Y-93233489D01*
X142730264Y-93233501D01*
X142790602Y-93379172D01*
X142790609Y-93379185D01*
X142878602Y-93510874D01*
X142899480Y-93577551D01*
X142899500Y-93579765D01*
X142899500Y-95820234D01*
X142879815Y-95887273D01*
X142878602Y-95889125D01*
X142790609Y-96020814D01*
X142790602Y-96020827D01*
X142730264Y-96166498D01*
X142730261Y-96166510D01*
X142699500Y-96321153D01*
X142699500Y-96476000D01*
X142679815Y-96543039D01*
X142627011Y-96588794D01*
X142575500Y-96600000D01*
X142068201Y-96600000D01*
X142006201Y-96583387D01*
X141931787Y-96540424D01*
X141931786Y-96540423D01*
X141856440Y-96520234D01*
X141779058Y-96499499D01*
X141620943Y-96499499D01*
X141544579Y-96519961D01*
X141468214Y-96540423D01*
X141468213Y-96540424D01*
X141393800Y-96583387D01*
X141331800Y-96600000D01*
X134700000Y-96600000D01*
X123600500Y-96600000D01*
X123600500Y-89381902D01*
X132299500Y-89381902D01*
X132299500Y-89618097D01*
X132336446Y-89851368D01*
X132409433Y-90075996D01*
X132483399Y-90221161D01*
X132516657Y-90286433D01*
X132655483Y-90477510D01*
X132822490Y-90644517D01*
X133013567Y-90783343D01*
X133112991Y-90834002D01*
X133224003Y-90890566D01*
X133224005Y-90890566D01*
X133224008Y-90890568D01*
X133344412Y-90929689D01*
X133448631Y-90963553D01*
X133681903Y-91000500D01*
X133681908Y-91000500D01*
X133918097Y-91000500D01*
X134151368Y-90963553D01*
X134375992Y-90890568D01*
X134586433Y-90783343D01*
X134777510Y-90644517D01*
X134944517Y-90477510D01*
X135083343Y-90286433D01*
X135190568Y-90075992D01*
X135263553Y-89851368D01*
X135281667Y-89737002D01*
X135300500Y-89618097D01*
X135300500Y-89421153D01*
X142699500Y-89421153D01*
X142699500Y-89578846D01*
X142730261Y-89733489D01*
X142730264Y-89733501D01*
X142790602Y-89879172D01*
X142790609Y-89879185D01*
X142878210Y-90010288D01*
X142878213Y-90010292D01*
X142989707Y-90121786D01*
X142989711Y-90121789D01*
X143120814Y-90209390D01*
X143120827Y-90209397D01*
X143217535Y-90249454D01*
X143266503Y-90269737D01*
X143331147Y-90282595D01*
X143421849Y-90300638D01*
X143483760Y-90333023D01*
X143485339Y-90334574D01*
X143815142Y-90664377D01*
X143815152Y-90664388D01*
X143819482Y-90668718D01*
X143819483Y-90668719D01*
X143931287Y-90780523D01*
X143947195Y-90789707D01*
X144018098Y-90830642D01*
X144018100Y-90830644D01*
X144056154Y-90852614D01*
X144068218Y-90859580D01*
X144220946Y-90900503D01*
X146420234Y-90900503D01*
X146487273Y-90920188D01*
X146489125Y-90921401D01*
X146620814Y-91009393D01*
X146620827Y-91009400D01*
X146758676Y-91066498D01*
X146766503Y-91069740D01*
X146865838Y-91089499D01*
X146921153Y-91100502D01*
X146921156Y-91100503D01*
X146921158Y-91100503D01*
X147078844Y-91100503D01*
X147078845Y-91100502D01*
X147233497Y-91069740D01*
X147379179Y-91009397D01*
X147510289Y-90921792D01*
X147621789Y-90810292D01*
X147709394Y-90679182D01*
X147769737Y-90533500D01*
X147800500Y-90378845D01*
X147800500Y-90221161D01*
X147800500Y-90221158D01*
X147800499Y-90221156D01*
X147798159Y-90209390D01*
X147769737Y-90066506D01*
X147746453Y-90010292D01*
X147709397Y-89920830D01*
X147709390Y-89920817D01*
X147621789Y-89789714D01*
X147621786Y-89789710D01*
X147510292Y-89678216D01*
X147510288Y-89678213D01*
X147379185Y-89590612D01*
X147379172Y-89590605D01*
X147233501Y-89530267D01*
X147233489Y-89530264D01*
X147078845Y-89499503D01*
X147078842Y-89499503D01*
X146921158Y-89499503D01*
X146921155Y-89499503D01*
X146766510Y-89530264D01*
X146766498Y-89530267D01*
X146620827Y-89590605D01*
X146620814Y-89590612D01*
X146489125Y-89678605D01*
X146422447Y-89699483D01*
X146420234Y-89699503D01*
X144600100Y-89699503D01*
X144533061Y-89679818D01*
X144512419Y-89663184D01*
X144334574Y-89485339D01*
X144301089Y-89424016D01*
X144300638Y-89421849D01*
X144269738Y-89266510D01*
X144269737Y-89266503D01*
X144242398Y-89200500D01*
X144209397Y-89120827D01*
X144209390Y-89120814D01*
X144121789Y-88989711D01*
X144121786Y-88989707D01*
X144010292Y-88878213D01*
X144010288Y-88878210D01*
X143879185Y-88790609D01*
X143879172Y-88790602D01*
X143733501Y-88730264D01*
X143733489Y-88730261D01*
X143578845Y-88699500D01*
X143578842Y-88699500D01*
X143421158Y-88699500D01*
X143421155Y-88699500D01*
X143266510Y-88730261D01*
X143266498Y-88730264D01*
X143120827Y-88790602D01*
X143120814Y-88790609D01*
X142989711Y-88878210D01*
X142989707Y-88878213D01*
X142878213Y-88989707D01*
X142878210Y-88989711D01*
X142790609Y-89120814D01*
X142790602Y-89120827D01*
X142730264Y-89266498D01*
X142730261Y-89266510D01*
X142699500Y-89421153D01*
X135300500Y-89421153D01*
X135300500Y-89381902D01*
X135263553Y-89148631D01*
X135221489Y-89019172D01*
X135190568Y-88924008D01*
X135190566Y-88924005D01*
X135190566Y-88924003D01*
X135116770Y-88779172D01*
X135083343Y-88713567D01*
X134944517Y-88522490D01*
X134777510Y-88355483D01*
X134586433Y-88216657D01*
X134544561Y-88195322D01*
X134375996Y-88109433D01*
X134151368Y-88036446D01*
X133918097Y-87999500D01*
X133918092Y-87999500D01*
X133681908Y-87999500D01*
X133681903Y-87999500D01*
X133448631Y-88036446D01*
X133224003Y-88109433D01*
X133013566Y-88216657D01*
X132927977Y-88278842D01*
X132822490Y-88355483D01*
X132822488Y-88355485D01*
X132822487Y-88355485D01*
X132655485Y-88522487D01*
X132655485Y-88522488D01*
X132655483Y-88522490D01*
X132614301Y-88579172D01*
X132516657Y-88713566D01*
X132409433Y-88924003D01*
X132336446Y-89148631D01*
X132299500Y-89381902D01*
X123600500Y-89381902D01*
X123600500Y-82796152D01*
X137794053Y-82796152D01*
X137794053Y-82953845D01*
X137824814Y-83108488D01*
X137824817Y-83108500D01*
X137885155Y-83254171D01*
X137885162Y-83254184D01*
X137972763Y-83385287D01*
X137972766Y-83385291D01*
X138013557Y-83426081D01*
X138047043Y-83487404D01*
X138047495Y-83537952D01*
X138043875Y-83556152D01*
X138043875Y-83713841D01*
X138074636Y-83868484D01*
X138074639Y-83868496D01*
X138134977Y-84014167D01*
X138134984Y-84014180D01*
X138222585Y-84145283D01*
X138222588Y-84145287D01*
X138334082Y-84256781D01*
X138334086Y-84256784D01*
X138465189Y-84344385D01*
X138465202Y-84344392D01*
X138600661Y-84400500D01*
X138610878Y-84404732D01*
X138765528Y-84435494D01*
X138765531Y-84435495D01*
X138765533Y-84435495D01*
X138923219Y-84435495D01*
X138923220Y-84435494D01*
X139077872Y-84404732D01*
X139223554Y-84344389D01*
X139354664Y-84256784D01*
X139466164Y-84145284D01*
X139466166Y-84145280D01*
X139466658Y-84144789D01*
X139527981Y-84111303D01*
X139586434Y-84112694D01*
X139587513Y-84112983D01*
X139587515Y-84112984D01*
X139727525Y-84150500D01*
X139727526Y-84150500D01*
X139872474Y-84150500D01*
X142567060Y-84150500D01*
X142634099Y-84170185D01*
X142654742Y-84186820D01*
X142689707Y-84221786D01*
X142689711Y-84221789D01*
X142820814Y-84309390D01*
X142820827Y-84309397D01*
X142966498Y-84369735D01*
X142966503Y-84369737D01*
X143121153Y-84400499D01*
X143121156Y-84400500D01*
X143121158Y-84400500D01*
X143278844Y-84400500D01*
X143278845Y-84400499D01*
X143433497Y-84369737D01*
X143579179Y-84309394D01*
X143710289Y-84221789D01*
X143821789Y-84110289D01*
X143909394Y-83979179D01*
X143969737Y-83833497D01*
X144000500Y-83678842D01*
X144000500Y-83521158D01*
X144000500Y-83521155D01*
X144000499Y-83521153D01*
X143993786Y-83487404D01*
X143969737Y-83366503D01*
X143945855Y-83308846D01*
X143926666Y-83262518D01*
X143909532Y-83221153D01*
X147299500Y-83221153D01*
X147299500Y-83378846D01*
X147330261Y-83533489D01*
X147330264Y-83533501D01*
X147390602Y-83679172D01*
X147390609Y-83679185D01*
X147478210Y-83810288D01*
X147478213Y-83810292D01*
X147589707Y-83921786D01*
X147589711Y-83921789D01*
X147720814Y-84009390D01*
X147720827Y-84009397D01*
X147860687Y-84067328D01*
X147866503Y-84069737D01*
X148021153Y-84100499D01*
X148021156Y-84100500D01*
X148021158Y-84100500D01*
X148178844Y-84100500D01*
X148178845Y-84100499D01*
X148333497Y-84069737D01*
X148446166Y-84023067D01*
X148479172Y-84009397D01*
X148479172Y-84009396D01*
X148479179Y-84009394D01*
X148610289Y-83921789D01*
X148721789Y-83810289D01*
X148809394Y-83679179D01*
X148813214Y-83669958D01*
X148849286Y-83582871D01*
X148869737Y-83533497D01*
X148900500Y-83378842D01*
X148900500Y-83221158D01*
X148900500Y-83221155D01*
X148900499Y-83221153D01*
X148882406Y-83130194D01*
X148869737Y-83066503D01*
X148861520Y-83046666D01*
X148809397Y-82920827D01*
X148809390Y-82920814D01*
X148721789Y-82789711D01*
X148721786Y-82789707D01*
X148610292Y-82678213D01*
X148610288Y-82678210D01*
X148479185Y-82590609D01*
X148479172Y-82590602D01*
X148333501Y-82530264D01*
X148333489Y-82530261D01*
X148178845Y-82499500D01*
X148178842Y-82499500D01*
X148021158Y-82499500D01*
X148021155Y-82499500D01*
X147866510Y-82530261D01*
X147866498Y-82530264D01*
X147720827Y-82590602D01*
X147720814Y-82590609D01*
X147589711Y-82678210D01*
X147589707Y-82678213D01*
X147478213Y-82789707D01*
X147478210Y-82789711D01*
X147390609Y-82920814D01*
X147390602Y-82920827D01*
X147330264Y-83066498D01*
X147330261Y-83066510D01*
X147299500Y-83221153D01*
X143909532Y-83221153D01*
X143909395Y-83220823D01*
X143909390Y-83220814D01*
X143821789Y-83089711D01*
X143821786Y-83089707D01*
X143710292Y-82978213D01*
X143710288Y-82978210D01*
X143579185Y-82890609D01*
X143579172Y-82890602D01*
X143433501Y-82830264D01*
X143433489Y-82830261D01*
X143278845Y-82799500D01*
X143278842Y-82799500D01*
X143121158Y-82799500D01*
X143121155Y-82799500D01*
X142966510Y-82830261D01*
X142966498Y-82830264D01*
X142820827Y-82890602D01*
X142820814Y-82890609D01*
X142689711Y-82978210D01*
X142689707Y-82978213D01*
X142654742Y-83013180D01*
X142593420Y-83046666D01*
X142567060Y-83049500D01*
X140121053Y-83049500D01*
X140054014Y-83029815D01*
X140008259Y-82977011D01*
X139997053Y-82925500D01*
X139997053Y-82449616D01*
X139997053Y-82449614D01*
X139959537Y-82309604D01*
X139947485Y-82288729D01*
X139887063Y-82184074D01*
X139877431Y-82174442D01*
X139869760Y-82161918D01*
X139864321Y-82141798D01*
X139854334Y-82123507D01*
X139851500Y-82097149D01*
X139851500Y-73129742D01*
X139871185Y-73062703D01*
X139887819Y-73042061D01*
X140791061Y-72138819D01*
X140852384Y-72105334D01*
X140878742Y-72102500D01*
X141025382Y-72102500D01*
X141025384Y-72102500D01*
X141025385Y-72102500D01*
X141165395Y-72064984D01*
X141207936Y-72040423D01*
X141290925Y-71992510D01*
X141746223Y-71537212D01*
X141807546Y-71503727D01*
X141877238Y-71508711D01*
X141933171Y-71550583D01*
X141948465Y-71577441D01*
X141990602Y-71679172D01*
X141990609Y-71679185D01*
X142078210Y-71810288D01*
X142078213Y-71810292D01*
X142189707Y-71921786D01*
X142189711Y-71921789D01*
X142320814Y-72009390D01*
X142320827Y-72009397D01*
X142455028Y-72064984D01*
X142466503Y-72069737D01*
X142621153Y-72100499D01*
X142621156Y-72100500D01*
X142621158Y-72100500D01*
X142778844Y-72100500D01*
X142778845Y-72100499D01*
X142933497Y-72069737D01*
X143079179Y-72009394D01*
X143210289Y-71921789D01*
X143321789Y-71810289D01*
X143409394Y-71679179D01*
X143410275Y-71677049D01*
X143411035Y-71676106D01*
X143412264Y-71673809D01*
X143412699Y-71674041D01*
X143454115Y-71622646D01*
X143520408Y-71600579D01*
X143524838Y-71600500D01*
X144736123Y-71600500D01*
X144803162Y-71620185D01*
X144823804Y-71636819D01*
X145483790Y-72296804D01*
X146127496Y-72940510D01*
X146229670Y-72999500D01*
X146253025Y-73012984D01*
X146393035Y-73050500D01*
X146393036Y-73050500D01*
X146537984Y-73050500D01*
X147967060Y-73050500D01*
X148034099Y-73070185D01*
X148054742Y-73086820D01*
X148089707Y-73121786D01*
X148089711Y-73121789D01*
X148220814Y-73209390D01*
X148220827Y-73209397D01*
X148351368Y-73263468D01*
X148366503Y-73269737D01*
X148521153Y-73300499D01*
X148521156Y-73300500D01*
X148521158Y-73300500D01*
X148678844Y-73300500D01*
X148678845Y-73300499D01*
X148833497Y-73269737D01*
X148979179Y-73209394D01*
X149110289Y-73121789D01*
X149221789Y-73010289D01*
X149309394Y-72879179D01*
X149369737Y-72733497D01*
X149400500Y-72578842D01*
X149400500Y-72421158D01*
X149400500Y-72421155D01*
X149400499Y-72421153D01*
X149378447Y-72310292D01*
X149369737Y-72266503D01*
X149333569Y-72179185D01*
X149309397Y-72120827D01*
X149309390Y-72120814D01*
X149245484Y-72025173D01*
X149224606Y-71958496D01*
X149243090Y-71891116D01*
X149295069Y-71844425D01*
X149301100Y-71841734D01*
X149379179Y-71809394D01*
X149510289Y-71721789D01*
X149545258Y-71686820D01*
X149572188Y-71672114D01*
X149598005Y-71655523D01*
X149604203Y-71654631D01*
X149606580Y-71653334D01*
X149632940Y-71650500D01*
X149669257Y-71650500D01*
X149736296Y-71670185D01*
X149756938Y-71686819D01*
X152811181Y-74741062D01*
X152844666Y-74802385D01*
X152847500Y-74828743D01*
X152847500Y-81276882D01*
X152847500Y-81421830D01*
X152885016Y-81561841D01*
X152957490Y-81687371D01*
X158512629Y-87242510D01*
X158512631Y-87242511D01*
X158512635Y-87242514D01*
X158601809Y-87293998D01*
X158601812Y-87293999D01*
X158601817Y-87294002D01*
X158638159Y-87314984D01*
X158778169Y-87352500D01*
X158778170Y-87352500D01*
X158923118Y-87352500D01*
X186425320Y-87352500D01*
X186492359Y-87372185D01*
X186513001Y-87388819D01*
X191648079Y-92523897D01*
X191658171Y-92535403D01*
X191896553Y-92773785D01*
X191930038Y-92835108D01*
X191932872Y-92861466D01*
X191932872Y-92909511D01*
X191963633Y-93064154D01*
X191963636Y-93064166D01*
X192023974Y-93209837D01*
X192023981Y-93209850D01*
X192111582Y-93340953D01*
X192111585Y-93340957D01*
X192223079Y-93452451D01*
X192223083Y-93452454D01*
X192354186Y-93540055D01*
X192354199Y-93540062D01*
X192497697Y-93599500D01*
X192499875Y-93600402D01*
X192649985Y-93630261D01*
X192654525Y-93631164D01*
X192654528Y-93631165D01*
X192654530Y-93631165D01*
X192812216Y-93631165D01*
X192812217Y-93631164D01*
X192966869Y-93600402D01*
X193112551Y-93540059D01*
X193243661Y-93452454D01*
X193355161Y-93340954D01*
X193442766Y-93209844D01*
X193497879Y-93076786D01*
X193541718Y-93022386D01*
X193608012Y-93000320D01*
X193615066Y-93000540D01*
X193615066Y-93000500D01*
X193778844Y-93000500D01*
X193778845Y-93000499D01*
X193933497Y-92969737D01*
X194079179Y-92909394D01*
X194210289Y-92821789D01*
X194321789Y-92710289D01*
X194409394Y-92579179D01*
X194469737Y-92433497D01*
X194500500Y-92278842D01*
X194500500Y-92121158D01*
X194500500Y-92121155D01*
X194500499Y-92121153D01*
X194493715Y-92087048D01*
X194469737Y-91966503D01*
X194450955Y-91921158D01*
X194409397Y-91820827D01*
X194409390Y-91820814D01*
X194321789Y-91689711D01*
X194321786Y-91689707D01*
X194210292Y-91578213D01*
X194210288Y-91578210D01*
X194079185Y-91490609D01*
X194079172Y-91490602D01*
X193933501Y-91430264D01*
X193933489Y-91430261D01*
X193772868Y-91398311D01*
X193773143Y-91396925D01*
X193714950Y-91373427D01*
X193684504Y-91338185D01*
X193640512Y-91261988D01*
X193640508Y-91261983D01*
X188138016Y-85759491D01*
X188138015Y-85759490D01*
X188012485Y-85687016D01*
X188012482Y-85687015D01*
X187984507Y-85679518D01*
X187984507Y-85679519D01*
X187891243Y-85654529D01*
X187872475Y-85649500D01*
X187872474Y-85649500D01*
X159379387Y-85649500D01*
X159312348Y-85629815D01*
X159291706Y-85613181D01*
X155399678Y-81721153D01*
X156899500Y-81721153D01*
X156899500Y-81878846D01*
X156930261Y-82033489D01*
X156930264Y-82033501D01*
X156990602Y-82179172D01*
X156990609Y-82179185D01*
X157078210Y-82310288D01*
X157078213Y-82310292D01*
X157189707Y-82421786D01*
X157189711Y-82421789D01*
X157320814Y-82509390D01*
X157320827Y-82509397D01*
X157466498Y-82569735D01*
X157466503Y-82569737D01*
X157621153Y-82600499D01*
X157621156Y-82600500D01*
X157621158Y-82600500D01*
X157778844Y-82600500D01*
X157778845Y-82600499D01*
X157933497Y-82569737D01*
X158050199Y-82521398D01*
X158079172Y-82509397D01*
X158079172Y-82509396D01*
X158079179Y-82509394D01*
X158092490Y-82500500D01*
X158210875Y-82421398D01*
X158277553Y-82400520D01*
X158279766Y-82400500D01*
X163613331Y-82400500D01*
X163613347Y-82400501D01*
X163620943Y-82400501D01*
X163779054Y-82400501D01*
X163779057Y-82400501D01*
X163931785Y-82359577D01*
X163981904Y-82330639D01*
X164068716Y-82280520D01*
X164180520Y-82168716D01*
X164180520Y-82168714D01*
X164190728Y-82158507D01*
X164190730Y-82158504D01*
X164528081Y-81821153D01*
X174699500Y-81821153D01*
X174699500Y-81978846D01*
X174730261Y-82133489D01*
X174730264Y-82133501D01*
X174790602Y-82279172D01*
X174790609Y-82279185D01*
X174878210Y-82410288D01*
X174878213Y-82410292D01*
X174989707Y-82521786D01*
X174989711Y-82521789D01*
X175120814Y-82609390D01*
X175120827Y-82609397D01*
X175266498Y-82669735D01*
X175266503Y-82669737D01*
X175421153Y-82700499D01*
X175421156Y-82700500D01*
X175421158Y-82700500D01*
X175578844Y-82700500D01*
X175578845Y-82700499D01*
X175733497Y-82669737D01*
X175879179Y-82609394D01*
X175920460Y-82581811D01*
X176010875Y-82521398D01*
X176077553Y-82500520D01*
X176079766Y-82500500D01*
X181413331Y-82500500D01*
X181413347Y-82500501D01*
X181420943Y-82500501D01*
X181579054Y-82500501D01*
X181579057Y-82500501D01*
X181731785Y-82459577D01*
X181797235Y-82421789D01*
X181868716Y-82380520D01*
X181980520Y-82268716D01*
X181980520Y-82268714D01*
X181990724Y-82258511D01*
X181990728Y-82258506D01*
X183868713Y-80380521D01*
X183868716Y-80380520D01*
X183980520Y-80268716D01*
X184030639Y-80181904D01*
X184059577Y-80131785D01*
X184100500Y-79979057D01*
X184100500Y-79820943D01*
X184100500Y-77979765D01*
X184120185Y-77912726D01*
X184121398Y-77910874D01*
X184142185Y-77879765D01*
X184209394Y-77779179D01*
X184269737Y-77633497D01*
X184300500Y-77478842D01*
X184300500Y-77321158D01*
X184300500Y-77321155D01*
X184300499Y-77321153D01*
X184290196Y-77269358D01*
X184269737Y-77166503D01*
X184228314Y-77066498D01*
X184209397Y-77020827D01*
X184209390Y-77020814D01*
X184121789Y-76889711D01*
X184121786Y-76889707D01*
X184010292Y-76778213D01*
X184010288Y-76778210D01*
X183879185Y-76690609D01*
X183879172Y-76690602D01*
X183733501Y-76630264D01*
X183733489Y-76630261D01*
X183578845Y-76599500D01*
X183578842Y-76599500D01*
X183421158Y-76599500D01*
X183421155Y-76599500D01*
X183266510Y-76630261D01*
X183266498Y-76630264D01*
X183120827Y-76690602D01*
X183120814Y-76690609D01*
X182989711Y-76778210D01*
X182989707Y-76778213D01*
X182878213Y-76889707D01*
X182878210Y-76889711D01*
X182790609Y-77020814D01*
X182790602Y-77020827D01*
X182730264Y-77166498D01*
X182730261Y-77166510D01*
X182699500Y-77321153D01*
X182699500Y-77478846D01*
X182730261Y-77633489D01*
X182730264Y-77633501D01*
X182790602Y-77779172D01*
X182790609Y-77779185D01*
X182878602Y-77910874D01*
X182899480Y-77977551D01*
X182899500Y-77979765D01*
X182899500Y-79599903D01*
X182879815Y-79666942D01*
X182863181Y-79687584D01*
X181287584Y-81263181D01*
X181226261Y-81296666D01*
X181199903Y-81299500D01*
X176079766Y-81299500D01*
X176012727Y-81279815D01*
X176010875Y-81278602D01*
X175879185Y-81190609D01*
X175879172Y-81190602D01*
X175733501Y-81130264D01*
X175733489Y-81130261D01*
X175578845Y-81099500D01*
X175578842Y-81099500D01*
X175421158Y-81099500D01*
X175421155Y-81099500D01*
X175266510Y-81130261D01*
X175266498Y-81130264D01*
X175120827Y-81190602D01*
X175120814Y-81190609D01*
X174989711Y-81278210D01*
X174989707Y-81278213D01*
X174878213Y-81389707D01*
X174878210Y-81389711D01*
X174790609Y-81520814D01*
X174790602Y-81520827D01*
X174730264Y-81666498D01*
X174730261Y-81666510D01*
X174699500Y-81821153D01*
X164528081Y-81821153D01*
X166068713Y-80280521D01*
X166068716Y-80280520D01*
X166180520Y-80168716D01*
X166230639Y-80081904D01*
X166259577Y-80031785D01*
X166300500Y-79879057D01*
X166300500Y-79720943D01*
X166300500Y-79147844D01*
X179150000Y-79147844D01*
X179156401Y-79207372D01*
X179156403Y-79207379D01*
X179206645Y-79342086D01*
X179206649Y-79342093D01*
X179292809Y-79457187D01*
X179292812Y-79457190D01*
X179407906Y-79543350D01*
X179407913Y-79543354D01*
X179542620Y-79593596D01*
X179542627Y-79593598D01*
X179602155Y-79599999D01*
X179602172Y-79600000D01*
X180225000Y-79600000D01*
X180725000Y-79600000D01*
X181347828Y-79600000D01*
X181347844Y-79599999D01*
X181407372Y-79593598D01*
X181407379Y-79593596D01*
X181542086Y-79543354D01*
X181542093Y-79543350D01*
X181657187Y-79457190D01*
X181657190Y-79457187D01*
X181743350Y-79342093D01*
X181743354Y-79342086D01*
X181793596Y-79207379D01*
X181793598Y-79207372D01*
X181799999Y-79147844D01*
X181800000Y-79147827D01*
X181800000Y-78150000D01*
X180725000Y-78150000D01*
X180725000Y-79600000D01*
X180225000Y-79600000D01*
X180225000Y-78150000D01*
X179150000Y-78150000D01*
X179150000Y-79147844D01*
X166300500Y-79147844D01*
X166300500Y-77879765D01*
X166320185Y-77812726D01*
X166321398Y-77810874D01*
X166409390Y-77679185D01*
X166409390Y-77679184D01*
X166409394Y-77679179D01*
X166469737Y-77533497D01*
X166500500Y-77378842D01*
X166500500Y-77221158D01*
X166500500Y-77221155D01*
X166500499Y-77221153D01*
X166474531Y-77090606D01*
X166469737Y-77066503D01*
X166469735Y-77066498D01*
X166409397Y-76920827D01*
X166409390Y-76920814D01*
X166321789Y-76789711D01*
X166321786Y-76789707D01*
X166210292Y-76678213D01*
X166210288Y-76678210D01*
X166079185Y-76590609D01*
X166079172Y-76590602D01*
X165933501Y-76530264D01*
X165933489Y-76530261D01*
X165778845Y-76499500D01*
X165778842Y-76499500D01*
X165621158Y-76499500D01*
X165621155Y-76499500D01*
X165466510Y-76530261D01*
X165466498Y-76530264D01*
X165320827Y-76590602D01*
X165320814Y-76590609D01*
X165189711Y-76678210D01*
X165189707Y-76678213D01*
X165078213Y-76789707D01*
X165078210Y-76789711D01*
X164990609Y-76920814D01*
X164990602Y-76920827D01*
X164930264Y-77066498D01*
X164930261Y-77066510D01*
X164899500Y-77221153D01*
X164899500Y-77378846D01*
X164930261Y-77533489D01*
X164930264Y-77533501D01*
X164990602Y-77679172D01*
X164990609Y-77679185D01*
X165078602Y-77810874D01*
X165099480Y-77877551D01*
X165099500Y-77879765D01*
X165099500Y-79499903D01*
X165079815Y-79566942D01*
X165063181Y-79587584D01*
X163487584Y-81163181D01*
X163426261Y-81196666D01*
X163399903Y-81199500D01*
X158279766Y-81199500D01*
X158212727Y-81179815D01*
X158210875Y-81178602D01*
X158079185Y-81090609D01*
X158079172Y-81090602D01*
X157933501Y-81030264D01*
X157933489Y-81030261D01*
X157778845Y-80999500D01*
X157778842Y-80999500D01*
X157621158Y-80999500D01*
X157621155Y-80999500D01*
X157466510Y-81030261D01*
X157466498Y-81030264D01*
X157320827Y-81090602D01*
X157320814Y-81090609D01*
X157189711Y-81178210D01*
X157189707Y-81178213D01*
X157078213Y-81289707D01*
X157078210Y-81289711D01*
X156990609Y-81420814D01*
X156990602Y-81420827D01*
X156930264Y-81566498D01*
X156930261Y-81566510D01*
X156899500Y-81721153D01*
X155399678Y-81721153D01*
X154586819Y-80908294D01*
X154553334Y-80846971D01*
X154550500Y-80820613D01*
X154550500Y-79047844D01*
X161350000Y-79047844D01*
X161356401Y-79107372D01*
X161356403Y-79107379D01*
X161406645Y-79242086D01*
X161406649Y-79242093D01*
X161492809Y-79357187D01*
X161492812Y-79357190D01*
X161607906Y-79443350D01*
X161607913Y-79443354D01*
X161742620Y-79493596D01*
X161742627Y-79493598D01*
X161802155Y-79499999D01*
X161802172Y-79500000D01*
X162425000Y-79500000D01*
X162925000Y-79500000D01*
X163547828Y-79500000D01*
X163547844Y-79499999D01*
X163607372Y-79493598D01*
X163607379Y-79493596D01*
X163742086Y-79443354D01*
X163742093Y-79443350D01*
X163857187Y-79357190D01*
X163857190Y-79357187D01*
X163943350Y-79242093D01*
X163943354Y-79242086D01*
X163993596Y-79107379D01*
X163993598Y-79107372D01*
X163999999Y-79047844D01*
X164000000Y-79047827D01*
X164000000Y-78050000D01*
X162925000Y-78050000D01*
X162925000Y-79500000D01*
X162425000Y-79500000D01*
X162425000Y-78050000D01*
X161350000Y-78050000D01*
X161350000Y-79047844D01*
X154550500Y-79047844D01*
X154550500Y-77770163D01*
X162525000Y-77770163D01*
X162525000Y-77829837D01*
X162547836Y-77884968D01*
X162590032Y-77927164D01*
X162645163Y-77950000D01*
X162704837Y-77950000D01*
X162759968Y-77927164D01*
X162802164Y-77884968D01*
X162825000Y-77829837D01*
X162825000Y-77770163D01*
X162802164Y-77715032D01*
X162759968Y-77672836D01*
X162704837Y-77650000D01*
X162645163Y-77650000D01*
X162590032Y-77672836D01*
X162547836Y-77715032D01*
X162525000Y-77770163D01*
X154550500Y-77770163D01*
X154550500Y-76552155D01*
X161350000Y-76552155D01*
X161350000Y-77550000D01*
X162425000Y-77550000D01*
X162925000Y-77550000D01*
X164000000Y-77550000D01*
X164000000Y-76552172D01*
X163999999Y-76552155D01*
X163993598Y-76492627D01*
X163993596Y-76492620D01*
X163943354Y-76357913D01*
X163943350Y-76357906D01*
X163857190Y-76242812D01*
X163857187Y-76242809D01*
X163742093Y-76156649D01*
X163742086Y-76156645D01*
X163607379Y-76106403D01*
X163607372Y-76106401D01*
X163547844Y-76100000D01*
X162925000Y-76100000D01*
X162925000Y-77550000D01*
X162425000Y-77550000D01*
X162425000Y-76100000D01*
X161802155Y-76100000D01*
X161742627Y-76106401D01*
X161742620Y-76106403D01*
X161607913Y-76156645D01*
X161607906Y-76156649D01*
X161492812Y-76242809D01*
X161492809Y-76242812D01*
X161406649Y-76357906D01*
X161406645Y-76357913D01*
X161356403Y-76492620D01*
X161356401Y-76492627D01*
X161350000Y-76552155D01*
X154550500Y-76552155D01*
X154550500Y-74227527D01*
X154550500Y-74227525D01*
X154512984Y-74087515D01*
X154505469Y-74074499D01*
X154440510Y-73961985D01*
X150087015Y-69608490D01*
X149961485Y-69536016D01*
X149961480Y-69536014D01*
X149899777Y-69519480D01*
X149899777Y-69519481D01*
X149860625Y-69508990D01*
X149821475Y-69498500D01*
X144635454Y-69498500D01*
X144568415Y-69478815D01*
X144522660Y-69426011D01*
X144512716Y-69356853D01*
X144541741Y-69293297D01*
X144547773Y-69286819D01*
X144635855Y-69198736D01*
X144635858Y-69198733D01*
X144704311Y-69096286D01*
X144751463Y-68982452D01*
X144775500Y-68861606D01*
X144775500Y-68738394D01*
X144751463Y-68617548D01*
X144704311Y-68503714D01*
X144704310Y-68503713D01*
X144704307Y-68503707D01*
X144635858Y-68401267D01*
X144635855Y-68401263D01*
X144548736Y-68314144D01*
X144548732Y-68314141D01*
X144446292Y-68245692D01*
X144446283Y-68245687D01*
X144332454Y-68198538D01*
X144332455Y-68198538D01*
X144332452Y-68198537D01*
X144332448Y-68198536D01*
X144332444Y-68198535D01*
X144211610Y-68174500D01*
X144211606Y-68174500D01*
X144088394Y-68174500D01*
X143999188Y-68192242D01*
X143950812Y-68192242D01*
X143861606Y-68174500D01*
X143738394Y-68174500D01*
X143738389Y-68174500D01*
X143617555Y-68198535D01*
X143617545Y-68198538D01*
X143503716Y-68245687D01*
X143503707Y-68245692D01*
X143401267Y-68314141D01*
X143401263Y-68314144D01*
X143314144Y-68401263D01*
X143314141Y-68401267D01*
X143245692Y-68503707D01*
X143245687Y-68503716D01*
X143198538Y-68617545D01*
X143198535Y-68617555D01*
X143174500Y-68738389D01*
X143174500Y-68861610D01*
X143198535Y-68982444D01*
X143198538Y-68982454D01*
X143245687Y-69096283D01*
X143245692Y-69096292D01*
X143314141Y-69198732D01*
X143314144Y-69198736D01*
X143402227Y-69286819D01*
X143435712Y-69348142D01*
X143430728Y-69417834D01*
X143388856Y-69473767D01*
X143323392Y-69498184D01*
X143314546Y-69498500D01*
X140952847Y-69498500D01*
X140874545Y-69519481D01*
X140874544Y-69519480D01*
X140812841Y-69536014D01*
X140812836Y-69536016D01*
X140687309Y-69608488D01*
X140382289Y-69913507D01*
X140342061Y-69940386D01*
X140220824Y-69990604D01*
X140220814Y-69990609D01*
X140089711Y-70078210D01*
X140089707Y-70078213D01*
X139978213Y-70189707D01*
X139978210Y-70189711D01*
X139890609Y-70320814D01*
X139890602Y-70320827D01*
X139830264Y-70466498D01*
X139830261Y-70466510D01*
X139799500Y-70621153D01*
X139799500Y-70670613D01*
X139779815Y-70737652D01*
X139763181Y-70758294D01*
X138154044Y-72367430D01*
X138154042Y-72367433D01*
X138081569Y-72492961D01*
X138081569Y-72492962D01*
X138044053Y-72632972D01*
X138044053Y-72632974D01*
X138044053Y-82242058D01*
X138024368Y-82309097D01*
X138007734Y-82329739D01*
X137972766Y-82364706D01*
X137972763Y-82364710D01*
X137885162Y-82495813D01*
X137885155Y-82495826D01*
X137824817Y-82641497D01*
X137824814Y-82641509D01*
X137794053Y-82796152D01*
X123600500Y-82796152D01*
X123600500Y-81088394D01*
X133174500Y-81088394D01*
X133174500Y-81211606D01*
X133193616Y-81307718D01*
X133194200Y-81314753D01*
X133192242Y-81324271D01*
X133192242Y-81349188D01*
X133174500Y-81438393D01*
X133174500Y-81561610D01*
X133198535Y-81682444D01*
X133198538Y-81682454D01*
X133245687Y-81796283D01*
X133245692Y-81796292D01*
X133314141Y-81898732D01*
X133314144Y-81898736D01*
X133401263Y-81985855D01*
X133401267Y-81985858D01*
X133503707Y-82054307D01*
X133503713Y-82054310D01*
X133503714Y-82054311D01*
X133617548Y-82101463D01*
X133712075Y-82120265D01*
X133738389Y-82125499D01*
X133738393Y-82125500D01*
X133738394Y-82125500D01*
X133861607Y-82125500D01*
X133861608Y-82125499D01*
X133982452Y-82101463D01*
X134096286Y-82054311D01*
X134198733Y-81985858D01*
X134285858Y-81898733D01*
X134354311Y-81796286D01*
X134401463Y-81682452D01*
X134425500Y-81561606D01*
X134425500Y-81438394D01*
X134407756Y-81349187D01*
X134407756Y-81300812D01*
X134425500Y-81211606D01*
X134425500Y-81088394D01*
X134401463Y-80967548D01*
X134354311Y-80853714D01*
X134354310Y-80853713D01*
X134354307Y-80853707D01*
X134285858Y-80751267D01*
X134285855Y-80751263D01*
X134198736Y-80664144D01*
X134198732Y-80664141D01*
X134096292Y-80595692D01*
X134096283Y-80595687D01*
X133982454Y-80548538D01*
X133982455Y-80548538D01*
X133982452Y-80548537D01*
X133982448Y-80548536D01*
X133982444Y-80548535D01*
X133861610Y-80524500D01*
X133861606Y-80524500D01*
X133738394Y-80524500D01*
X133738389Y-80524500D01*
X133617555Y-80548535D01*
X133617545Y-80548538D01*
X133503716Y-80595687D01*
X133503707Y-80595692D01*
X133401267Y-80664141D01*
X133401263Y-80664144D01*
X133314144Y-80751263D01*
X133314141Y-80751267D01*
X133245692Y-80853707D01*
X133245687Y-80853716D01*
X133198538Y-80967545D01*
X133198535Y-80967555D01*
X133175156Y-81085089D01*
X133175156Y-81085093D01*
X133174500Y-81088394D01*
X123600500Y-81088394D01*
X123600500Y-67624500D01*
X123620185Y-67557461D01*
X123672989Y-67511706D01*
X123724500Y-67500500D01*
X134678111Y-67500500D01*
X134745150Y-67520185D01*
G37*
%TD.AperFunction*%
%TD*%
M02*
