M48
; DRILL file {KiCad 9.0.5} date 2025-10-24T01:37:30-0400
; FORMAT={-:-/ absolute / metric / decimal}
; #@! TF.CreationDate,2025-10-24T01:37:30-04:00
; #@! TF.GenerationSoftware,Kicad,Pcbnew,9.0.5
; #@! TF.FileFunction,Plated,1,4,PTH
FMAT,2
METRIC
; #@! TA.AperFunction,Plated,PTH,ComponentDrill
T1C0.150
; #@! TA.AperFunction,Plated,PTH,ViaDrill
T2C0.300
; #@! TA.AperFunction,Plated,PTH,ComponentDrill
T3C0.300
; #@! TA.AperFunction,Plated,PTH,ComponentDrill
T4C0.500
; #@! TA.AperFunction,Plated,PTH,ComponentDrill
T5C1.000
; #@! TA.AperFunction,Plated,PTH,ComponentDrill
T6C1.016
%
G90
G05
T1
X133.8Y-81.15
X133.8Y-81.5
X143.8Y-68.8
X144.15Y-68.8
T2
X129.2Y-78.9
X131.6Y-93.9
X131.9Y-88.9
X133.4Y-103.6
X133.5Y-98.0
X135.9Y-101.0
X137.4Y-96.9
X137.4Y-98.0
X137.4Y-98.0
X137.4Y-98.0
X137.4Y-103.8
X137.4Y-104.7
X137.5Y-72.1
X138.595Y-82.875
X138.844Y-83.635
X140.4Y-72.8
X140.4Y-96.8
X140.6Y-70.7
X140.8Y-88.2
X141.9Y-117.5
X142.0Y-91.5
X142.7Y-71.3
X142.8Y-99.6
X142.8Y-106.5
X143.2Y-83.6
X143.5Y-89.5
X143.5Y-93.0
X143.5Y-96.4
X145.1Y-107.7
X145.6Y-117.1
X145.9Y-82.9
X146.0Y-76.4
X147.0Y-89.5
X147.0Y-90.3
X148.1Y-83.3
X148.3Y-70.6
X148.6Y-72.5
X148.999Y-94.105
X149.0Y-71.1
X149.119Y-71.891
X149.826Y-101.674
X150.0Y-94.52
X150.0Y-104.5
X150.1Y-116.6
X150.3Y-74.5
X151.563Y-110.914
X151.563Y-112.286
X151.7Y-111.6
X154.5Y-102.0
X154.5Y-106.6
X155.0Y-100.5
X155.1Y-81.1
X157.6Y-68.4
X157.6Y-69.2
X157.6Y-70.0
X157.6Y-70.9
X157.7Y-81.8
X158.5Y-68.4
X158.5Y-69.2
X158.5Y-70.0
X158.5Y-70.9
X158.7Y-80.8
X159.0Y-98.5
X161.1Y-68.4
X161.1Y-69.1
X161.1Y-103.7
X163.0Y-101.0
X163.0Y-102.0
X163.5Y-104.5
X163.5Y-105.5
X163.5Y-106.5
X163.5Y-107.5
X163.5Y-108.5
X163.5Y-109.5
X165.7Y-77.3
X166.5Y-103.1
X167.5Y-98.5
X167.8Y-74.2
X167.8Y-77.0
X167.879Y-100.569
X168.5Y-73.8
X168.6Y-77.3
X169.3Y-73.8
X169.4Y-77.3
X169.5Y-99.5
X170.2Y-73.8
X170.2Y-74.7
X170.2Y-75.6
X170.2Y-76.4
X170.2Y-77.3
X170.5Y-99.5
X171.5Y-104.0
X171.5Y-105.0
X171.5Y-106.0
X171.5Y-107.0
X171.5Y-108.0
X171.5Y-109.0
X172.5Y-102.0
X173.0Y-81.5
X174.0Y-103.0
X175.0Y-104.0
X175.0Y-105.5
X175.0Y-106.5
X175.0Y-108.0
X175.0Y-109.0
X175.1Y-68.6
X175.1Y-69.4
X175.1Y-70.3
X175.1Y-71.1
X175.5Y-81.9
X176.0Y-68.6
X176.0Y-69.4
X176.0Y-70.3
X176.0Y-71.1
X176.5Y-80.9
X178.4Y-68.5
X178.4Y-69.3
X179.7Y-102.7
X180.8Y-105.9
X181.0Y-97.7
X183.5Y-77.4
X183.8Y-99.0
X183.8Y-100.6
X183.8Y-102.4
X184.41Y-105.07
X185.2Y-99.0
X185.2Y-100.6
X185.2Y-102.4
X185.41Y-105.07
X186.21Y-104.07
X186.6Y-99.0
X186.6Y-100.6
X186.6Y-102.4
X186.61Y-110.07
X187.178Y-95.944
X187.2Y-94.4
X187.21Y-105.97
X188.0Y-99.0
X188.0Y-100.6
X188.0Y-102.4
X188.9Y-98.2
X189.01Y-106.07
X189.139Y-94.455
X189.356Y-96.039
X189.4Y-99.0
X189.4Y-100.6
X189.4Y-102.4
X190.989Y-97.125
X191.6Y-75.7
X191.6Y-95.0
X191.6Y-104.6
X191.714Y-95.686
X192.4Y-117.9
X192.6Y-109.4
X192.65Y-91.969
X192.733Y-92.831
X193.2Y-95.61
X193.2Y-121.0
X193.7Y-92.2
X193.8Y-121.6
X194.0Y-75.2
X194.2Y-69.5
X194.8Y-121.6
X195.6Y-121.0
X195.8Y-70.0
X195.8Y-71.0
X195.8Y-71.8
X195.8Y-72.6
X195.8Y-73.4
X195.8Y-74.2
X195.8Y-106.8
X196.0Y-75.2
X196.0Y-101.3
X196.1Y-94.8
X196.1Y-97.1
X196.7Y-87.469
X196.8Y-115.8
X196.85Y-89.35
X196.9Y-88.2
X197.0Y-108.1
X197.2Y-75.6
X197.6Y-88.4
X197.776Y-92.901
X197.8Y-116.4
X198.0Y-74.8
X198.3Y-88.4
X198.4Y-87.7
X199.424Y-86.424
X199.64Y-115.06
X200.2Y-109.82
X200.6Y-81.0
X201.0Y-119.6
X201.6Y-74.2
X201.6Y-118.4
X201.8Y-114.6
X202.412Y-73.4
X202.7Y-120.5
X202.8Y-116.2
X203.2Y-85.0
X203.2Y-72.6
X203.4Y-69.4
X204.0Y-85.0
X204.0Y-109.387
X204.05Y-71.8
X204.2Y-121.2
X204.4Y-92.2
X204.8Y-109.4
X205.0Y-70.8
X205.0Y-85.0
X205.0Y-121.2
X205.12Y-69.4
X205.6Y-120.6
X205.8Y-85.0
X206.4Y-81.0
X206.476Y-86.524
X206.6Y-92.0
X206.722Y-70.123
X207.4Y-109.511
X207.6Y-92.0
X208.2Y-109.0
X208.562Y-104.968
X208.6Y-96.8
X208.6Y-97.6
X208.8Y-108.2
X209.207Y-114.593
X210.4Y-114.0
X211.3Y-91.3
X212.543Y-81.282
X212.881Y-101.8
X212.9Y-78.8
X213.4Y-87.3
X213.6Y-92.4
X213.6Y-93.0
X213.6Y-99.4
X213.8Y-77.8
X213.943Y-82.882
X214.0Y-91.4
X214.8Y-91.4
X215.2Y-92.2
X216.543Y-78.882
X217.8Y-78.6
X219.0Y-83.4
X219.743Y-68.882
X220.0Y-99.2
X220.0Y-100.2
X220.2Y-96.02
X220.4Y-94.4
X220.4Y-97.8
X220.6Y-82.8
X220.6Y-91.6
X221.6Y-90.4
T3
X162.195Y-76.94
X162.195Y-78.66
X162.675Y-77.8
X163.155Y-76.94
X163.155Y-78.66
X177.987Y-100.4
X177.987Y-101.1
X178.688Y-100.4
X178.688Y-101.1
X179.995Y-77.04
X179.995Y-78.76
X180.475Y-77.9
X180.955Y-77.04
X180.955Y-78.76
X226.42Y-92.67
X226.42Y-96.67
X228.42Y-92.67
X228.42Y-96.67
T4
X148.3Y-114.3
X148.3Y-115.3
X148.3Y-116.3
X197.4Y-83.4
X198.4Y-83.4
X199.4Y-83.4
T5
X168.1Y-71.7
X179.9Y-93.3
X186.2Y-71.8
X224.3Y-78.9
T6
X133.8Y-70.6
X133.8Y-89.5
X135.8Y-68.8
X154.7Y-68.8
T4
G00X223.05Y-90.34
M15
G01X224.15Y-90.34
M16
G05
G00X223.05Y-99.0
M15
G01X224.15Y-99.0
M16
G05
G00X227.4Y-90.34
M15
G01X228.2Y-90.34
M16
G05
G00X227.4Y-99.0
M15
G01X228.2Y-99.0
M16
G05
M30
